<svg xmlns="http://www.w3.org/2000/svg" width="32" height="32" viewBox="0 0 32 32" fill="none">
  <g clip-path="url(#clip0_168_1029)">
    <path d="M18.3119 21.3864H7.08059C6.91593 21.3791 6.75154 21.4063 6.59733 21.4663C6.44313 21.5263 6.3023 21.6178 6.18334 21.7355C6.06438 21.8531 5.96975 21.9944 5.90515 22.1507C5.84055 22.3071 5.80733 22.4753 5.80748 22.6453C5.80765 22.8159 5.84096 22.9849 5.90544 23.1421C5.96992 23.2993 6.06427 23.4415 6.18292 23.5605C6.30157 23.6795 6.44213 23.7728 6.5963 23.8349C6.75047 23.897 6.91513 23.9267 7.08059 23.9221H18.3119C18.4773 23.9267 18.642 23.897 18.7962 23.8349C18.9503 23.7728 19.0909 23.6795 19.2095 23.5605C19.3282 23.4415 19.4225 23.2993 19.487 23.1421C19.5515 22.9849 19.5848 22.8159 19.585 22.6453C19.5851 22.4753 19.5519 22.3071 19.4873 22.1507C19.4227 21.9944 19.3281 21.8531 19.2091 21.7355C19.0902 21.6178 18.9493 21.5263 18.7951 21.4663C18.6409 21.4063 18.4765 21.3791 18.3119 21.3864ZM26.6133 9.91265V2.75505C26.6128 2.42609 26.4859 2.11074 26.2603 1.87813C26.0347 1.64552 25.7289 1.51464 25.4099 1.51416H1.20335C0.884345 1.51464 0.578535 1.64552 0.352963 1.87813C0.127391 2.11074 0.00046134 2.42609 1.29893e-08 2.75505V29.2454C-4.65658e-05 29.5749 0.12518 29.8912 0.348798 30.1266C0.577027 30.3572 0.883831 30.4863 1.20335 30.4863H25.3925C25.7115 30.4858 26.0173 30.3549 26.2429 30.1223C26.4684 29.8897 26.5954 29.5743 26.5958 29.2454V22.0878L31.6534 16.8724C31.8771 16.6371 32.0024 16.3207 32.0024 15.9912C32.0024 15.6617 31.8771 15.3453 31.6534 15.11L26.6133 9.91265ZM24.5554 20.703C24.3317 20.9384 24.2065 21.2547 24.2066 21.5842V28.0225H2.42414V3.99594H24.2066V10.4342C24.2065 10.7637 24.3317 11.08 24.5554 11.3154L29.1072 16.0092L24.5554 20.703ZM7.02827 17.2681H15.0506C15.3698 17.2681 15.6758 17.1373 15.9015 16.9046C16.1272 16.6719 16.254 16.3563 16.254 16.0272C16.254 15.6981 16.1272 15.3825 15.9015 15.1497C15.6758 14.917 15.3698 14.7863 15.0506 14.7863H7.02827C6.70912 14.7863 6.40305 14.917 6.17737 15.1497C5.9517 15.3825 5.82492 15.6981 5.82492 16.0272C5.82492 16.3563 5.9517 16.6719 6.17737 16.9046C6.40305 17.1373 6.70912 17.2681 7.02827 17.2681ZM7.08059 10.668H18.0503C18.2149 10.6753 18.3793 10.6481 18.5335 10.5881C18.6877 10.5281 18.8286 10.4365 18.9475 10.3189C19.0665 10.2013 19.1611 10.06 19.2257 9.90365C19.2903 9.74729 19.3235 9.57906 19.3234 9.4091C19.3232 9.23842 19.2899 9.06951 19.2254 8.91231C19.1609 8.75512 19.0666 8.61283 18.9479 8.49383C18.8293 8.37483 18.6887 8.28153 18.5346 8.21943C18.3804 8.15733 18.2157 8.12768 18.0503 8.13224H7.08059C6.91513 8.12768 6.75047 8.15733 6.5963 8.21943C6.44213 8.28153 6.30157 8.37483 6.18292 8.49383C6.06427 8.61283 5.96992 8.75512 5.90544 8.91231C5.84096 9.06951 5.80765 9.23842 5.80748 9.4091C5.80733 9.57906 5.84055 9.74729 5.90515 9.90365C5.96975 10.06 6.06438 10.2013 6.18334 10.3189C6.3023 10.4365 6.44313 10.5281 6.59733 10.5881C6.75154 10.6481 6.91593 10.6753 7.08059 10.668Z" fill="#071013"/>
  </g>
  <defs>
    <clipPath id="clip0_168_1029">
      <rect width="32" height="32" fill="white"/>
    </clipPath>
  </defs>
</svg>

