<svg width="208" height="49" viewBox="0 0 208 49" fill="none" xmlns="http://www.w3.org/2000/svg">
<g id="logo" clip-path="url(#clip0_375_8688)">
<g id="Layer 1">
<path id="Vector" d="M2.50743 15.3368H20.1212C20.397 15.3489 20.6723 15.3037 20.9306 15.2037C21.1889 15.1038 21.4247 14.9512 21.624 14.7553C21.8232 14.5593 21.9817 14.324 22.0899 14.0635C22.1981 13.803 22.2537 13.5228 22.2535 13.2396C22.2532 12.9553 22.1974 12.6739 22.0894 12.412C21.9814 12.1501 21.8234 11.9131 21.6247 11.7148C21.4259 11.5166 21.1905 11.3612 20.9323 11.2577C20.6741 11.1543 20.3983 11.1049 20.1212 11.1125H2.50743C1.96127 11.1125 1.43747 11.335 1.05127 11.7311C0.665072 12.1272 0.44811 12.6645 0.44811 13.2246C0.44811 13.7848 0.665072 14.3221 1.05127 14.7182C1.43747 15.1143 1.96127 15.3368 2.50743 15.3368ZM2.44901 26.332H15.1262C15.6608 26.332 16.1734 26.1142 16.5514 25.7266C16.9294 25.3389 17.1417 24.8131 17.1417 24.2648C17.1417 23.7165 16.9294 23.1907 16.5514 22.8031C16.1734 22.4154 15.6608 22.1976 15.1262 22.1976H2.44901C1.91447 22.1976 1.40182 22.4154 1.02384 22.8031C0.645855 23.1907 0.433508 23.7165 0.433508 24.2648C0.433508 24.8131 0.645855 25.3389 1.02384 25.7266C1.40182 26.1142 1.91447 26.332 2.44901 26.332ZM98.6381 12.221C98.4874 11.7525 98.1922 11.3471 97.7969 11.066C97.4016 10.7849 96.9279 10.6435 96.4473 10.6631C95.4542 10.6631 94.7239 11.2024 94.315 12.221L85.2014 34.3313C84.9928 34.7271 84.8825 35.1696 84.8801 35.6195C84.8816 35.9193 84.9412 36.2157 85.0555 36.4915C85.1698 36.7674 85.3364 37.0172 85.5458 37.2263C85.7551 37.4354 86.0029 37.5997 86.2748 37.7096C86.5467 37.8196 86.8371 37.8729 87.1293 37.8665C88.1516 37.8665 88.8819 37.2973 89.2616 36.2487L90.6929 32.7734H102.231L103.721 36.2487C104.159 37.3273 104.889 37.8665 105.853 37.8665C106.44 37.8698 107.006 37.636 107.426 37.2156C107.847 36.7952 108.09 36.2219 108.102 35.6195C108.08 35.1724 107.971 34.7344 107.781 34.3313L98.6381 12.221ZM92.2995 28.7288L96.4765 17.7036L100.566 28.7288H92.2995ZM147.711 10.6631C147.407 10.6542 147.105 10.7096 146.822 10.8257C146.54 10.9419 146.284 11.1165 146.07 11.3385C145.857 11.5605 145.69 11.8252 145.58 12.1162C145.47 12.4072 145.42 12.7182 145.433 13.0299V35.4997C145.433 36.1195 145.673 36.7139 146.1 37.1521C146.527 37.5904 147.107 37.8366 147.711 37.8366C148.315 37.8366 148.895 37.5904 149.322 37.1521C149.749 36.7139 149.99 36.1195 149.99 35.4997V13.0299C150.002 12.7182 149.952 12.4072 149.842 12.1162C149.733 11.8252 149.566 11.5605 149.352 11.3385C149.138 11.1165 148.882 10.9419 148.6 10.8257C148.318 10.7096 148.015 10.6542 147.711 10.6631ZM20.5885 33.1928H2.53664C2.26084 33.1807 1.98551 33.2259 1.72723 33.3259C1.46895 33.4258 1.23307 33.5784 1.03383 33.7744C0.834577 33.9703 0.676074 34.2056 0.567882 34.4661C0.459689 34.7266 0.404044 35.0069 0.404298 35.29C0.404589 35.5743 0.46038 35.8557 0.568378 36.1176C0.676376 36.3795 0.8344 36.6165 1.03313 36.8148C1.23186 37.013 1.46727 37.1684 1.72549 37.2719C1.98371 37.3753 2.25951 37.4247 2.53664 37.4171H20.5885C21.1347 37.4171 21.6585 37.1946 22.0447 36.7985C22.4309 36.4024 22.6478 35.8652 22.6478 35.305C22.6478 34.7448 22.4309 34.2076 22.0447 33.8114C21.6585 33.4153 21.1347 33.1928 20.5885 33.1928ZM205.869 11.0825H188.196C187.919 11.0749 187.644 11.1243 187.385 11.2278C187.127 11.3312 186.892 11.4866 186.693 11.6849C186.494 11.8831 186.336 12.1202 186.228 12.3821C186.12 12.6439 186.064 12.9253 186.064 13.2097C186.064 13.4928 186.119 13.7731 186.228 14.0335C186.336 14.294 186.494 14.5293 186.694 14.7253C186.893 14.9213 187.129 15.0738 187.387 15.1738C187.645 15.2737 187.921 15.319 188.196 15.3068H194.74V35.4997C194.74 36.1195 194.98 36.7139 195.407 37.1521C195.834 37.5904 196.414 37.8366 197.018 37.8366C197.622 37.8366 198.202 37.5904 198.629 37.1521C199.056 36.7139 199.296 36.1195 199.296 35.4997V15.3368H205.869C206.144 15.3489 206.42 15.3037 206.678 15.2037C206.936 15.1038 207.172 14.9512 207.371 14.7553C207.571 14.5593 207.729 14.324 207.837 14.0635C207.946 13.803 208.001 13.5228 208.001 13.2396C208.001 12.9537 207.946 12.6705 207.839 12.4067C207.732 12.1428 207.574 11.9035 207.376 11.7027C207.177 11.5019 206.942 11.3437 206.683 11.2372C206.424 11.1307 206.147 11.0781 205.869 11.0825ZM172.131 22.5571L169.297 21.2389C166.581 19.9206 165.938 19.2615 165.938 17.7935C165.938 16.0558 167.34 14.9174 169.502 14.9174C171.109 14.9174 172.54 15.5765 173.883 16.9546C174.261 17.3322 174.759 17.5559 175.286 17.5838C176.396 17.5838 177.418 16.5951 177.418 15.4866C177.409 14.8691 177.169 14.2788 176.746 13.8388C175.461 12.3708 173.153 10.6631 169.531 10.693C164.799 10.693 161.352 13.7489 161.352 17.9433C161.352 21.0591 163.222 23.3361 167.37 25.3434L170.145 26.6616C172.949 27.9798 173.708 28.7887 173.708 30.2867C173.708 32.324 172.102 33.6422 169.619 33.6422C166.931 33.6422 165.062 32.0543 163.981 30.7062C163.805 30.5041 163.589 30.3433 163.347 30.2347C163.105 30.1261 162.843 30.0723 162.579 30.077C162.302 30.0694 162.026 30.1188 161.768 30.2222C161.51 30.3257 161.274 30.4811 161.076 30.6794C160.877 30.8776 160.719 31.1147 160.611 31.3765C160.503 31.6384 160.447 31.9198 160.447 32.2041C160.467 32.8104 160.706 33.3873 161.119 33.822C163.076 36.2787 166.435 37.8665 169.677 37.8665C174.789 37.8665 178.353 34.6908 178.353 30.1369C178.323 26.8413 176.512 24.6243 172.131 22.5571ZM42.4962 22.5571L39.6628 21.2389C36.9462 19.9206 36.3036 19.2615 36.3036 17.7935C36.3036 16.0558 37.7057 14.9174 39.8672 14.9174C41.4738 14.9174 42.9051 15.5765 44.2488 16.9546C44.626 17.3322 45.1244 17.5559 45.6508 17.5838C46.7608 17.5838 47.7832 16.5951 47.7832 15.4866C47.7746 14.8691 47.5339 14.2788 47.1113 13.8388C45.8261 12.3708 43.5185 10.6631 39.8964 10.693C35.1644 10.693 31.7176 13.7489 31.7176 17.9433C31.7176 21.0591 33.587 23.3361 37.7349 25.3434L40.5098 26.6616C43.314 27.9798 44.0735 28.7887 44.0735 30.2867C44.0735 32.324 42.4669 33.6422 39.9841 33.6422C37.2967 33.6422 35.4273 32.0543 34.3465 30.7062C34.1706 30.5041 33.9543 30.3433 33.7124 30.2347C33.4704 30.1261 33.2085 30.0723 32.9444 30.077C32.6673 30.0694 32.3915 30.1188 32.1333 30.2222C31.875 30.3257 31.6396 30.4811 31.4409 30.6794C31.2422 30.8776 31.0842 31.1147 30.9762 31.3765C30.8682 31.6384 30.8124 31.9198 30.8121 32.2041C30.8318 32.8104 31.0714 33.3873 31.4839 33.822C33.4702 36.2787 36.8002 37.8665 40.0425 37.8665C45.1543 37.8665 48.7179 34.6908 48.7179 30.1369C48.6887 26.8413 46.8777 24.6243 42.4962 22.5571ZM69.9829 22.5571L67.1495 21.2389C64.433 19.9206 63.7904 19.2615 63.7904 17.7935C63.7904 16.0558 65.1924 14.9174 67.354 14.9174C68.9605 14.9174 70.3918 15.5765 71.7355 16.9546C72.1127 17.3322 72.6112 17.5559 73.1376 17.5838C74.2476 17.5838 75.27 16.5951 75.27 15.4866C75.2614 14.8691 75.0207 14.2788 74.5981 13.8388C73.3129 12.3708 71.0053 10.6631 67.3832 10.693C62.6511 10.693 59.2044 13.7489 59.2044 17.9433C59.2044 21.0591 61.0738 23.3361 65.2216 25.3434L67.9966 26.6616C70.8008 27.9798 71.5603 28.7887 71.5603 30.2867C71.5603 32.324 69.9537 33.6422 67.4708 33.6422C64.7835 33.6422 62.914 32.0543 61.8333 30.7062C61.6574 30.5041 61.4411 30.3433 61.1991 30.2347C60.9572 30.1261 60.6952 30.0723 60.4312 30.077C60.1541 30.0694 59.8783 30.1188 59.62 30.2222C59.3618 30.3257 59.1264 30.4811 58.9277 30.6794C58.7289 30.8776 58.5709 31.1147 58.4629 31.3765C58.3549 31.6384 58.2991 31.9198 58.2988 32.2041C58.3186 32.8104 58.5581 33.3873 58.9707 33.822C60.9278 36.2787 64.2869 37.8665 67.5293 37.8665C72.641 37.8665 76.2047 34.6908 76.2047 30.1369C76.1755 26.8413 74.3644 24.6243 69.9829 22.5571ZM132.317 10.6631C131.383 10.6631 130.711 11.0825 130.156 12.0113L124.08 22.5271L118.034 12.0113C117.479 11.0526 116.865 10.6631 115.872 10.6631C115.581 10.6505 115.29 10.6986 115.017 10.8045C114.745 10.9103 114.496 11.0716 114.286 11.2788C114.076 11.486 113.908 11.7347 113.795 12.0099C113.681 12.2851 113.622 12.5811 113.623 12.8801C113.629 13.4579 113.802 14.0208 114.119 14.4979L121.802 27.2608V35.4997C121.802 36.1195 122.042 36.7139 122.469 37.1521C122.896 37.5904 123.476 37.8366 124.08 37.8366C124.684 37.8366 125.264 37.5904 125.691 37.1521C126.118 36.7139 126.359 36.1195 126.359 35.4997V27.3507L134.07 14.4979C134.391 14.0337 134.564 13.4792 134.567 12.9101C134.565 12.6102 134.506 12.3136 134.392 12.0376C134.278 11.7616 134.111 11.5116 133.902 11.3024C133.692 11.0932 133.444 10.9289 133.172 10.8191C132.9 10.7094 132.61 10.6563 132.317 10.6631Z" fill="#071013"/>
</g>
</g>
<defs>
<clipPath id="clip0_375_8688">
<rect width="207.75" height="48.2652" fill="white" transform="translate(0.25 0.0869141)"/>
</clipPath>
</defs>
</svg>
