<svg width="135" height="25" viewBox="0 0 135 25" fill="none" xmlns="http://www.w3.org/2000/svg">
<g clip-path="url(#clip0_375_8228)">
<path d="M15.3059 16.8869H6.22496C6.09182 16.8809 5.95891 16.9031 5.83423 16.9519C5.70954 17.0008 5.59568 17.0754 5.49949 17.1712C5.40331 17.267 5.3268 17.382 5.27457 17.5094C5.22234 17.6368 5.19547 17.7738 5.1956 17.9122C5.19574 18.0512 5.22267 18.1888 5.2748 18.3168C5.32694 18.4449 5.40322 18.5608 5.49916 18.6577C5.59509 18.7546 5.70873 18.8306 5.83339 18.8812C5.95804 18.9318 6.09118 18.9559 6.22496 18.9522H15.3059C15.4397 18.9559 15.5729 18.9318 15.6975 18.8812C15.8222 18.8306 15.9358 18.7546 16.0317 18.6577C16.1277 18.5608 16.204 18.4449 16.2561 18.3168C16.3082 18.1888 16.3352 18.0512 16.3353 17.9122C16.3354 17.7738 16.3086 17.6368 16.2563 17.5094C16.2041 17.382 16.1276 17.267 16.0314 17.1712C15.9352 17.0754 15.8214 17.0008 15.6967 16.9519C15.572 16.9031 15.4391 16.8809 15.3059 16.8869ZM22.018 7.54164V1.71186C22.0176 1.44393 21.915 1.18708 21.7326 0.997624C21.5502 0.808167 21.3029 0.701559 21.045 0.701172H1.47296C1.21503 0.701559 0.967771 0.808167 0.785386 0.997624C0.603001 1.18708 0.500373 1.44393 0.5 1.71186V23.2879C0.499962 23.5563 0.601213 23.814 0.782018 24.0056C0.966551 24.1935 1.21462 24.2986 1.47296 24.2986H21.0309C21.2888 24.2982 21.5361 24.1916 21.7185 24.0021C21.9009 23.8127 22.0035 23.5558 22.0039 23.2879V17.4581L26.0931 13.2103C26.274 13.0186 26.3753 12.7609 26.3753 12.4926C26.3753 12.2242 26.274 11.9665 26.0931 11.7748L22.018 7.54164ZM20.3541 16.3303C20.1733 16.5219 20.072 16.7796 20.072 17.048V22.2919H2.46002V2.72255H20.072V7.96642C20.072 8.23479 20.1733 8.49247 20.3541 8.68416L24.0344 12.5072L20.3541 16.3303ZM6.18266 13.5325H12.6691C12.9271 13.5325 13.1746 13.4261 13.3571 13.2365C13.5395 13.047 13.642 12.7899 13.642 12.5219C13.642 12.2538 13.5395 11.9967 13.3571 11.8072C13.1746 11.6176 12.9271 11.5112 12.6691 11.5112H6.18266C5.92461 11.5112 5.67714 11.6176 5.49467 11.8072C5.31221 11.9967 5.2097 12.2538 5.2097 12.5219C5.2097 12.7899 5.31221 13.047 5.49467 13.2365C5.67714 13.4261 5.92461 13.5325 6.18266 13.5325ZM35.019 8.15685H43.5218C43.655 8.16278 43.7879 8.14065 43.9126 8.09178C44.0372 8.04291 44.1511 7.96833 44.2473 7.87252C44.3435 7.77671 44.42 7.66166 44.4722 7.53431C44.5244 7.40696 44.5513 7.26994 44.5512 7.13151C44.551 6.99249 44.5241 6.85491 44.472 6.72688C44.4198 6.59885 44.3436 6.48295 44.2476 6.38603C44.1517 6.2891 44.038 6.21311 43.9134 6.16253C43.7887 6.11195 43.6556 6.08781 43.5218 6.09152H35.019C34.7553 6.09152 34.5025 6.20032 34.316 6.39398C34.1296 6.58764 34.0249 6.8503 34.0249 7.12418C34.0249 7.39806 34.1296 7.66072 34.316 7.85439C34.5025 8.04805 34.7553 8.15685 35.019 8.15685ZM34.9908 13.5325H41.1106C41.3686 13.5325 41.6161 13.4261 41.7986 13.2365C41.981 13.047 42.0835 12.7899 42.0835 12.5219C42.0835 12.2538 41.981 11.9967 41.7986 11.8072C41.6161 11.6176 41.3686 11.5112 41.1106 11.5112H34.9908C34.7327 11.5112 34.4853 11.6176 34.3028 11.8072C34.1203 11.9967 34.0178 12.2538 34.0178 12.5219C34.0178 12.7899 34.1203 13.047 34.3028 13.2365C34.4853 13.4261 34.7327 13.5325 34.9908 13.5325ZM6.22496 8.15685H15.0944C15.2276 8.16278 15.3605 8.14065 15.4852 8.09178C15.6098 8.04291 15.7237 7.96833 15.8199 7.87252C15.9161 7.77671 15.9926 7.66166 16.0448 7.53431C16.097 7.40696 16.1239 7.26994 16.1238 7.13151C16.1236 6.99249 16.0967 6.85491 16.0446 6.72688C15.9924 6.59885 15.9162 6.48295 15.8202 6.38603C15.7243 6.2891 15.6106 6.21311 15.486 6.16253C15.3613 6.11195 15.2282 6.08781 15.0944 6.09152H6.22496C6.09118 6.08781 5.95804 6.11195 5.83339 6.16253C5.70873 6.21311 5.59509 6.2891 5.49916 6.38603C5.40322 6.48295 5.32694 6.59885 5.2748 6.72688C5.22267 6.85491 5.19574 6.99249 5.1956 7.13151C5.19547 7.26994 5.22234 7.40696 5.27457 7.53431C5.3268 7.66166 5.40331 7.77671 5.49949 7.87252C5.59568 7.96833 5.70954 8.04291 5.83423 8.09178C5.95891 8.14065 6.09182 8.16278 6.22496 8.15685ZM81.425 6.63349C81.3523 6.40443 81.2098 6.20621 81.0189 6.06879C80.8281 5.93136 80.5994 5.86222 80.3674 5.87181C79.888 5.87181 79.5355 6.13546 79.3381 6.63349L74.9386 17.4435C74.8379 17.637 74.7847 17.8533 74.7835 18.0733C74.7842 18.2199 74.813 18.3648 74.8682 18.4997C74.9233 18.6345 75.0038 18.7566 75.1048 18.8589C75.2059 18.9611 75.3255 19.0415 75.4568 19.0952C75.588 19.1489 75.7282 19.175 75.8693 19.1719C76.3628 19.1719 76.7153 18.8936 76.8986 18.3809L77.5896 16.6818H83.1594L83.8786 18.3809C84.0901 18.9082 84.4426 19.1719 84.9079 19.1719C85.1915 19.1735 85.4643 19.0592 85.6675 18.8537C85.8706 18.6481 85.9878 18.3678 85.9937 18.0733C85.983 17.8547 85.9303 17.6406 85.8386 17.4435L81.425 6.63349ZM78.3651 14.7044L80.3815 9.31401L82.3557 14.7044H78.3651ZM105.115 5.87181C104.968 5.86746 104.822 5.89453 104.685 5.95133C104.549 6.00814 104.426 6.09346 104.322 6.202C104.219 6.31054 104.139 6.43997 104.086 6.58224C104.033 6.72451 104.009 6.87657 104.015 7.02897V18.0147C104.015 18.3178 104.131 18.6084 104.337 18.8226C104.543 19.0369 104.823 19.1573 105.115 19.1573C105.406 19.1573 105.686 19.0369 105.892 18.8226C106.098 18.6084 106.214 18.3178 106.214 18.0147V7.02897C106.22 6.87657 106.196 6.72451 106.143 6.58224C106.09 6.43997 106.01 6.31054 105.907 6.202C105.803 6.09346 105.68 6.00814 105.544 5.95133C105.407 5.89453 105.261 5.86746 105.115 5.87181ZM43.7474 16.8869H35.0331C34.8999 16.8809 34.767 16.9031 34.6423 16.9519C34.5177 17.0008 34.4038 17.0754 34.3076 17.1712C34.2114 17.267 34.1349 17.382 34.0827 17.5094C34.0305 17.6368 34.0036 17.7738 34.0037 17.9122C34.0039 18.0512 34.0308 18.1888 34.0829 18.3168C34.1351 18.4449 34.2113 18.5608 34.3073 18.6577C34.4032 18.7546 34.5169 18.8306 34.6415 18.8812C34.7662 18.9318 34.8993 18.9559 35.0331 18.9522H43.7474C44.0111 18.9522 44.2639 18.8434 44.4504 18.6497C44.6368 18.4561 44.7415 18.1934 44.7415 17.9195C44.7415 17.6457 44.6368 17.383 44.4504 17.1893C44.2639 16.9957 44.0111 16.8869 43.7474 16.8869ZM133.189 6.07687H124.658C124.525 6.07316 124.391 6.0973 124.267 6.14788C124.142 6.19846 124.028 6.27446 123.933 6.37138C123.837 6.4683 123.76 6.5842 123.708 6.71223C123.656 6.84026 123.629 6.97784 123.629 7.11686C123.629 7.25529 123.656 7.39231 123.708 7.51966C123.76 7.64701 123.837 7.76206 123.933 7.85787C124.029 7.95368 124.143 8.02827 124.268 8.07713C124.392 8.126 124.525 8.14813 124.658 8.1422H127.817V18.0147C127.817 18.3178 127.933 18.6084 128.139 18.8226C128.345 19.0369 128.625 19.1573 128.917 19.1573C129.209 19.1573 129.488 19.0369 129.695 18.8226C129.901 18.6084 130.017 18.3178 130.017 18.0147V8.15685H133.189C133.323 8.16278 133.455 8.14065 133.58 8.09178C133.705 8.04291 133.819 7.96833 133.915 7.87252C134.011 7.77671 134.088 7.66166 134.14 7.53431C134.192 7.40696 134.219 7.26994 134.219 7.13151C134.219 6.99171 134.192 6.85328 134.141 6.72427C134.089 6.59526 134.013 6.47826 133.917 6.3801C133.821 6.28193 133.707 6.20457 133.582 6.1525C133.458 6.10044 133.324 6.07473 133.189 6.07687ZM116.903 11.6869L115.535 11.0424C114.224 10.3979 113.913 10.0757 113.913 9.35796C113.913 8.50839 114.59 7.95178 115.634 7.95178C116.409 7.95178 117.1 8.27403 117.749 8.94782C117.931 9.13244 118.172 9.24179 118.426 9.25542C118.962 9.25542 119.455 8.77205 119.455 8.23008C119.451 7.92817 119.335 7.63957 119.131 7.42446C118.51 6.70672 117.396 5.87181 115.648 5.88645C113.364 5.88645 111.7 7.38052 111.7 9.43119C111.7 10.9546 112.602 12.0678 114.604 13.0492L115.944 13.6937C117.298 14.3382 117.664 14.7337 117.664 15.466C117.664 16.4621 116.889 17.1066 115.69 17.1066C114.393 17.1066 113.49 16.3303 112.969 15.6711C112.884 15.5723 112.779 15.4937 112.663 15.4406C112.546 15.3875 112.419 15.3612 112.292 15.3635C112.158 15.3598 112.025 15.3839 111.9 15.4345C111.776 15.4851 111.662 15.5611 111.566 15.658C111.47 15.7549 111.394 15.8708 111.342 15.9989C111.29 16.1269 111.263 16.2645 111.263 16.4035C111.272 16.6999 111.388 16.982 111.587 17.1945C112.532 18.3956 114.153 19.1719 115.718 19.1719C118.186 19.1719 119.906 17.6193 119.906 15.3928C119.892 13.7816 119.018 12.6976 116.903 11.6869ZM54.3231 11.6869L52.9553 11.0424C51.6439 10.3979 51.3337 10.0757 51.3337 9.35796C51.3337 8.50839 52.0106 7.95178 53.054 7.95178C53.8296 7.95178 54.5205 8.27403 55.1692 8.94782C55.3513 9.13244 55.5919 9.24179 55.846 9.25542C56.3818 9.25542 56.8754 8.77205 56.8754 8.23008C56.8712 7.92817 56.755 7.63957 56.551 7.42446C55.9306 6.70672 54.8166 5.87181 53.0681 5.88645C50.7838 5.88645 49.1199 7.38052 49.1199 9.43119C49.1199 10.9546 50.0223 12.0678 52.0247 13.0492L53.3642 13.6937C54.7179 14.3382 55.0846 14.7337 55.0846 15.466C55.0846 16.4621 54.309 17.1066 53.1104 17.1066C51.8131 17.1066 50.9107 16.3303 50.389 15.6711C50.304 15.5723 50.1996 15.4937 50.0828 15.4406C49.966 15.3875 49.8396 15.3612 49.7121 15.3635C49.5783 15.3598 49.4452 15.3839 49.3205 15.4345C49.1959 15.4851 49.0822 15.5611 48.9863 15.658C48.8904 15.7549 48.8141 15.8708 48.762 15.9989C48.7098 16.1269 48.6829 16.2645 48.6827 16.4035C48.6923 16.6999 48.8079 16.982 49.0071 17.1945C49.9659 18.3956 51.5734 19.1719 53.1386 19.1719C55.6063 19.1719 57.3266 17.6193 57.3266 15.3928C57.3125 13.7816 56.4382 12.6976 54.3231 11.6869ZM67.592 11.6869L66.2243 11.0424C64.9129 10.3979 64.6026 10.0757 64.6026 9.35796C64.6026 8.50839 65.2795 7.95178 66.323 7.95178C67.0985 7.95178 67.7894 8.27403 68.4381 8.94782C68.6202 9.13244 68.8608 9.24179 69.1149 9.25542C69.6508 9.25542 70.1443 8.77205 70.1443 8.23008C70.1402 7.92817 70.024 7.63957 69.82 7.42446C69.1995 6.70672 68.0856 5.87181 66.3371 5.88645C64.0527 5.88645 62.3888 7.38052 62.3888 9.43119C62.3888 10.9546 63.2913 12.0678 65.2936 13.0492L66.6332 13.6937C67.9869 14.3382 68.3535 14.7337 68.3535 15.466C68.3535 16.4621 67.5779 17.1066 66.3794 17.1066C65.0821 17.1066 64.1796 16.3303 63.6579 15.6711C63.573 15.5723 63.4686 15.4937 63.3518 15.4406C63.235 15.3875 63.1085 15.3612 62.981 15.3635C62.8473 15.3598 62.7141 15.3839 62.5895 15.4345C62.4648 15.4851 62.3512 15.5611 62.2552 15.658C62.1593 15.7549 62.083 15.8708 62.0309 15.9989C61.9788 16.1269 61.9518 16.2645 61.9517 16.4035C61.9612 16.6999 62.0769 16.982 62.276 17.1945C63.2208 18.3956 64.8424 19.1719 66.4076 19.1719C68.8752 19.1719 70.5955 17.6193 70.5955 15.3928C70.5814 13.7816 69.7072 12.6976 67.592 11.6869ZM97.6833 5.87181C97.2321 5.87181 96.9078 6.07687 96.6399 6.53095L93.7069 11.6723L90.788 6.53095C90.5201 6.06223 90.224 5.87181 89.7445 5.87181C89.6039 5.86567 89.4636 5.88919 89.332 5.94092C89.2004 5.99266 89.0802 6.07156 88.9788 6.17285C88.8773 6.27414 88.7966 6.39572 88.7416 6.53028C88.6866 6.66483 88.6585 6.80956 88.6588 6.95573C88.6617 7.2382 88.7451 7.51344 88.8985 7.74671L92.607 13.9866V18.0147C92.607 18.3178 92.7229 18.6084 92.9292 18.8226C93.1354 19.0369 93.4152 19.1573 93.7069 19.1573C93.9986 19.1573 94.2784 19.0369 94.4846 18.8226C94.6909 18.6084 94.8068 18.3178 94.8068 18.0147V14.0306L98.5294 7.74671C98.6843 7.51972 98.768 7.24862 98.7691 6.97038C98.7686 6.82379 98.7399 6.67878 98.6848 6.54382C98.6297 6.40886 98.5493 6.28667 98.4482 6.18438C98.3471 6.0821 98.2274 6.00177 98.0961 5.9481C97.9647 5.89443 97.8244 5.8685 97.6833 5.87181Z" fill="#071013"/>
</g>
<defs>
<clipPath id="clip0_375_8228">
<rect width="133.719" height="23.5974" fill="white" transform="translate(0.5 0.701172)"/>
</clipPath>
</defs>
</svg>
