<svg aria-hidden="true" style="position: absolute; width: 0; height: 0; overflow: hidden;" version="1.1" xmlns="http://www.w3.org/2000/svg" xmlns:xlink="http://www.w3.org/1999/xlink">
<defs>
<symbol id="icon-add_FILL0_wght400_GRAD0_opsz16" viewBox="0 0 32 32">
<path d="M14.743 17.113h-7.529v-2.51h7.529v-7.529h2.51v7.529h7.529v2.51h-7.529v7.529h-2.51v-7.529z"></path>
</symbol>
<symbol id="icon-add_FILL0_wght400_GRAD0_opsz24" viewBox="0 0 32 32">
<path d="M14.72 17.184h-7.68v-2.56h7.68v-7.68h2.56v7.68h7.68v2.56h-7.68v7.68h-2.56v-7.68z"></path>
</symbol>
<symbol id="icon-add_FILL0_wght400_GRAD0_opsz32" viewBox="0 0 32 32">
<path d="M14.708 17.22h-7.758v-2.586h7.758v-7.758h2.586v7.758h7.758v2.586h-7.758v7.758h-2.586v-7.758z"></path>
</symbol>
<symbol id="icon-background" viewBox="0 0 32 32">
<path d="M6.667 28c-0.733 0-1.361-0.261-1.883-0.783s-0.783-1.15-0.783-1.883v-18.667c0-0.733 0.261-1.361 0.783-1.883s1.15-0.783 1.883-0.783h18.667c0.733 0 1.361 0.261 1.883 0.783s0.783 1.15 0.783 1.883v18.667c0 0.733-0.261 1.361-0.783 1.883s-1.15 0.783-1.883 0.783h-18.667zM6.667 25.333h18.667v-18.667h-18.667v18.667zM8 22.667h16l-5-6.667-4 5.333-3-4-4 5.333z"></path>
</symbol>
<symbol id="icon-book_2_FILL0_wght400_GRAD0_opsz16-3" viewBox="0 0 32 32">
<path d="M10.355 28.407c-1.213 0-2.248-0.429-3.106-1.286s-1.286-1.893-1.286-3.106v-16.314c0-1.213 0.429-2.248 1.286-3.106s1.893-1.286 3.106-1.286h15.686v18.823c-0.523 0-0.967 0.183-1.333 0.549s-0.549 0.81-0.549 1.333 0.183 0.967 0.549 1.333c0.366 0.366 0.811 0.549 1.333 0.549v2.51h-15.686zM8.473 20.030c0.293-0.146 0.596-0.251 0.91-0.314s0.638-0.094 0.973-0.094h0.627v-13.804h-0.627c-0.523 0-0.967 0.183-1.333 0.549s-0.549 0.81-0.549 1.333v12.329zM13.493 19.623h10.039v-13.804h-10.039v13.804zM10.355 25.897h11.702c-0.126-0.293-0.225-0.591-0.298-0.894s-0.11-0.633-0.11-0.988c0-0.335 0.031-0.659 0.094-0.973s0.167-0.617 0.314-0.91h-11.702c-0.544 0-0.993 0.183-1.349 0.549s-0.533 0.81-0.533 1.333c0 0.544 0.178 0.994 0.533 1.349s0.805 0.533 1.349 0.533z"></path>
</symbol>
<symbol id="icon-book_2_FILL0_wght400_GRAD0_opsz24-3" viewBox="0 0 32 32">
<path d="M10.24 28.704c-1.237 0-2.293-0.437-3.168-1.312s-1.312-1.931-1.312-3.168v-16.64c0-1.237 0.437-2.293 1.312-3.168s1.931-1.312 3.168-1.312h16v19.2c-0.533 0-0.987 0.187-1.36 0.56s-0.56 0.827-0.56 1.36c0 0.533 0.187 0.987 0.56 1.36s0.827 0.56 1.36 0.56v2.56h-16zM8.32 20.16c0.299-0.149 0.608-0.256 0.928-0.32s0.651-0.096 0.992-0.096h0.64v-14.080h-0.64c-0.533 0-0.987 0.187-1.36 0.56s-0.56 0.827-0.56 1.36v12.576zM13.44 19.744h10.24v-14.080h-10.24v14.080zM10.24 26.144h11.936c-0.128-0.299-0.229-0.603-0.304-0.912s-0.112-0.645-0.112-1.008c0-0.341 0.032-0.672 0.096-0.992s0.171-0.629 0.32-0.928h-11.936c-0.555 0-1.013 0.187-1.376 0.56s-0.544 0.827-0.544 1.36c0 0.555 0.181 1.013 0.544 1.376s0.821 0.544 1.376 0.544z"></path>
</symbol>
<symbol id="icon-book_2_FILL0_wght400_GRAD0_opsz32-3" viewBox="0 0 32 32">
<path d="M10.181 28.857c-1.25 0-2.316-0.442-3.2-1.325s-1.325-1.95-1.325-3.2v-16.808c0-1.25 0.442-2.316 1.325-3.2s1.95-1.325 3.2-1.325h16.162v19.394c-0.539 0-0.997 0.189-1.374 0.566s-0.566 0.835-0.566 1.374c0 0.539 0.189 0.997 0.566 1.374s0.835 0.566 1.374 0.566v2.586h-16.162zM8.241 20.226c0.302-0.151 0.614-0.259 0.937-0.323s0.657-0.097 1.002-0.097h0.646v-14.222h-0.646c-0.539 0-0.997 0.189-1.374 0.566s-0.566 0.835-0.566 1.374v12.703zM13.413 19.806h10.343v-14.222h-10.343v14.222zM10.181 26.271h12.057c-0.129-0.302-0.232-0.609-0.307-0.921s-0.113-0.652-0.113-1.018c0-0.345 0.032-0.679 0.097-1.002s0.172-0.636 0.323-0.937h-12.057c-0.56 0-1.024 0.189-1.39 0.566s-0.55 0.835-0.55 1.374c0 0.56 0.183 1.024 0.55 1.39s0.83 0.55 1.39 0.55z"></path>
</symbol>
<symbol id="icon-book_3_FILL0_wght400_GRAD0_opsz16" viewBox="0 0 32 32">
<path d="M10.355 28.407c-1.234 0-2.274-0.424-3.122-1.271s-1.271-1.887-1.271-3.122v-16.314c0-1.213 0.424-2.248 1.271-3.106s1.888-1.286 3.122-1.286h15.686v18.823c-0.544 0-0.993 0.183-1.349 0.549s-0.533 0.81-0.533 1.333c0 0.544 0.178 0.994 0.533 1.349s0.805 0.533 1.349 0.533v2.51h-15.686zM10.355 25.897h11.702c-0.126-0.293-0.225-0.591-0.298-0.894s-0.11-0.633-0.11-0.988c0-0.335 0.031-0.659 0.094-0.973s0.167-0.617 0.314-0.91h-11.702c-0.544 0-0.993 0.183-1.349 0.549s-0.533 0.81-0.533 1.333c0 0.544 0.178 0.994 0.533 1.349s0.805 0.533 1.349 0.533zM8.473 20.030c0.293-0.146 0.591-0.251 0.894-0.314s0.633-0.094 0.988-0.094h13.176v-13.804h-13.176c-0.544 0-0.993 0.183-1.349 0.549s-0.533 0.81-0.533 1.333v12.329zM11.893 17.113h1.537l0.784-2.227h3.545l0.784 2.227h1.537l-3.326-8.784h-1.569l-3.294 8.784zM14.653 13.599l1.286-3.639h0.094l1.286 3.639h-2.667z"></path>
</symbol>
<symbol id="icon-book_3_FILL0_wght400_GRAD0_opsz24" viewBox="0 0 32 32">
<path d="M10.24 28.704c-1.259 0-2.32-0.432-3.184-1.296s-1.296-1.925-1.296-3.184v-16.64c0-1.237 0.432-2.293 1.296-3.168s1.925-1.312 3.184-1.312h16v19.2c-0.555 0-1.013 0.187-1.376 0.56s-0.544 0.827-0.544 1.36c0 0.555 0.181 1.013 0.544 1.376s0.821 0.544 1.376 0.544v2.56h-16zM10.24 26.144h11.936c-0.128-0.299-0.229-0.603-0.304-0.912s-0.112-0.645-0.112-1.008c0-0.341 0.032-0.672 0.096-0.992s0.171-0.629 0.32-0.928h-11.936c-0.555 0-1.013 0.187-1.376 0.56s-0.544 0.827-0.544 1.36c0 0.555 0.181 1.013 0.544 1.376s0.821 0.544 1.376 0.544zM8.32 20.16c0.299-0.149 0.603-0.256 0.912-0.32s0.645-0.096 1.008-0.096h13.44v-14.080h-13.44c-0.555 0-1.013 0.187-1.376 0.56s-0.544 0.827-0.544 1.36v12.576zM11.808 17.184h1.568l0.8-2.272h3.616l0.8 2.272h1.568l-3.392-8.96h-1.6l-3.36 8.96zM14.624 13.6l1.312-3.712h0.096l1.312 3.712h-2.72z"></path>
</symbol>
<symbol id="icon-book_3_FILL0_wght400_GRAD0_opsz32" viewBox="0 0 32 32">
<path d="M10.181 28.857c-1.271 0-2.343-0.436-3.216-1.309s-1.309-1.945-1.309-3.216v-16.808c0-1.25 0.436-2.316 1.309-3.2s1.945-1.325 3.216-1.325h16.162v19.394c-0.56 0-1.024 0.189-1.39 0.566s-0.549 0.835-0.549 1.374c0 0.56 0.183 1.024 0.549 1.39s0.83 0.55 1.39 0.55v2.586h-16.162zM10.181 26.271h12.057c-0.129-0.302-0.232-0.609-0.307-0.921s-0.113-0.652-0.113-1.018c0-0.345 0.032-0.679 0.097-1.002s0.172-0.636 0.323-0.937h-12.057c-0.56 0-1.024 0.189-1.39 0.566s-0.55 0.835-0.55 1.374c0 0.56 0.183 1.024 0.55 1.39s0.83 0.55 1.39 0.55zM8.241 20.226c0.302-0.151 0.609-0.259 0.921-0.323s0.652-0.097 1.018-0.097h13.576v-14.222h-13.576c-0.56 0-1.024 0.189-1.39 0.566s-0.55 0.835-0.55 1.374v12.703zM11.764 17.22h1.584l0.808-2.295h3.653l0.808 2.295h1.584l-3.426-9.051h-1.616l-3.394 9.051zM14.609 13.6l1.325-3.749h0.097l1.325 3.749h-2.747z"></path>
</symbol>
<symbol id="icon-book_FILL0_wght400_GRAD0_opsz16" viewBox="0 0 32 32">
<path d="M8.473 28.407c-0.69 0-1.281-0.246-1.773-0.737s-0.737-1.082-0.737-1.773v-20.078c0-0.69 0.246-1.281 0.737-1.773s1.082-0.737 1.773-0.737h15.059c0.69 0 1.281 0.246 1.773 0.737s0.737 1.082 0.737 1.773v20.078c0 0.69-0.246 1.281-0.737 1.773s-1.082 0.737-1.773 0.737h-15.059zM8.473 25.897h15.059v-20.078h-2.51v8.784l-3.137-1.882-3.137 1.882v-8.784h-6.275v20.078z"></path>
</symbol>
<symbol id="icon-book_FILL0_wght400_GRAD0_opsz24" viewBox="0 0 32 32">
<path d="M8.32 28.704c-0.704 0-1.307-0.251-1.808-0.752s-0.752-1.104-0.752-1.808v-20.48c0-0.704 0.251-1.307 0.752-1.808s1.104-0.752 1.808-0.752h15.36c0.704 0 1.307 0.251 1.808 0.752s0.752 1.104 0.752 1.808v20.48c0 0.704-0.251 1.307-0.752 1.808s-1.104 0.752-1.808 0.752h-15.36zM8.32 26.144h15.36v-20.48h-2.56v8.96l-3.2-1.92-3.2 1.92v-8.96h-6.4v20.48z"></path>
</symbol>
<symbol id="icon-book_FILL0_wght400_GRAD0_opsz32" viewBox="0 0 32 32">
<path d="M8.241 28.857c-0.711 0-1.32-0.253-1.826-0.76s-0.76-1.115-0.76-1.826v-20.687c0-0.711 0.253-1.32 0.76-1.826s1.115-0.76 1.826-0.76h15.515c0.711 0 1.32 0.253 1.826 0.76s0.76 1.115 0.76 1.826v20.687c0 0.711-0.253 1.32-0.76 1.826s-1.115 0.76-1.826 0.76h-15.515zM8.241 26.271h15.515v-20.687h-2.586v9.050l-3.232-1.939-3.232 1.939v-9.050h-6.465v20.687z"></path>
</symbol>
<symbol id="icon-bookmark_FILL0_wght400_GRAD0_opsz16" viewBox="0 0 32 32">
<path d="M7.213 27.153v-20.078c0-0.69 0.246-1.281 0.737-1.773s1.082-0.737 1.773-0.737h12.549c0.69 0 1.281 0.246 1.773 0.737s0.737 1.082 0.737 1.773v20.078l-8.784-3.765-8.784 3.765zM9.723 23.325l6.275-2.698 6.274 2.698v-16.251h-12.549v16.251z"></path>
</symbol>
<symbol id="icon-bookmark_FILL0_wght400_GRAD0_opsz24" viewBox="0 0 32 32">
<path d="M7.040 27.424v-20.48c0-0.704 0.251-1.307 0.752-1.808s1.104-0.752 1.808-0.752h12.8c0.704 0 1.307 0.251 1.808 0.752s0.752 1.104 0.752 1.808v20.48l-8.96-3.84-8.96 3.84zM9.6 23.52l6.4-2.752 6.4 2.752v-16.576h-12.8v16.576z"></path>
</symbol>
<symbol id="icon-bookmark_FILL0_wght400_GRAD0_opsz32" viewBox="0 0 32 32">
<path d="M6.951 27.563v-20.687c0-0.711 0.253-1.32 0.76-1.826s1.115-0.76 1.826-0.76h12.929c0.711 0 1.32 0.253 1.826 0.76s0.76 1.115 0.76 1.826v20.687l-9.050-3.879-9.050 3.879zM9.537 23.62l6.465-2.78 6.465 2.78v-16.743h-12.929v16.743z"></path>
</symbol>
<symbol id="icon-bookmarks_FILL0_wght400_GRAD0_opsz16" viewBox="0 0 32 32">
<path d="M4.706 29.662v-20.078c0-0.69 0.246-1.281 0.737-1.773s1.082-0.737 1.773-0.737h12.549c0.69 0 1.281 0.246 1.773 0.737s0.737 1.082 0.737 1.773v20.078l-8.784-3.765-8.784 3.765zM7.216 25.835l6.275-2.698 6.274 2.698v-16.251h-12.549v16.251zM24.784 25.897v-21.333h-16.314v-2.51h16.314c0.69 0 1.281 0.246 1.772 0.737s0.737 1.082 0.737 1.773v21.333h-2.51z"></path>
</symbol>
<symbol id="icon-bookmarks_FILL0_wght400_GRAD0_opsz24" viewBox="0 0 32 32">
<path d="M4.48 29.984v-20.48c0-0.704 0.251-1.307 0.752-1.808s1.104-0.752 1.808-0.752h12.8c0.704 0 1.307 0.251 1.808 0.752s0.752 1.104 0.752 1.808v20.48l-8.96-3.84-8.96 3.84zM7.040 26.080l6.4-2.752 6.4 2.752v-16.576h-12.8v16.576zM24.96 26.144v-21.76h-16.64v-2.56h16.64c0.704 0 1.307 0.251 1.808 0.752s0.752 1.104 0.752 1.808v21.76h-2.56z"></path>
</symbol>
<symbol id="icon-bookmarks_FILL0_wght400_GRAD0_opsz32" viewBox="0 0 32 32">
<path d="M4.364 30.149v-20.687c0-0.711 0.253-1.32 0.76-1.826s1.115-0.76 1.826-0.76h12.929c0.711 0 1.32 0.253 1.826 0.76s0.76 1.115 0.76 1.826v20.687l-9.051-3.879-9.050 3.879zM6.949 26.206l6.465-2.78 6.465 2.78v-16.743h-12.929v16.743zM25.050 26.271v-21.98h-16.808v-2.586h16.808c0.711 0 1.32 0.253 1.826 0.76s0.76 1.115 0.76 1.826v21.98h-2.586z"></path>
</symbol>
<symbol id="icon-burger" viewBox="0 0 32 32">
<path d="M1.334 9.599v-4.267h29.867v4.267h-29.867zM1.334 18.133v-4.267h29.867v4.267h-29.867zM1.334 26.666v-4.267h29.867v4.267h-29.867z"></path>
</symbol>
<symbol id="icon-celebration_FILL0_wght400_GRAD0_opsz16" viewBox="0 0 32 32">
<path d="M3.449 28.408l6.274-17.569 11.294 11.294-17.569 6.275zM7.59 24.266l8.847-3.137-5.71-5.71-3.137 8.847zM19.198 16.549l-1.318-1.318 7.027-7.027c0.669-0.669 1.475-1.004 2.416-1.004s1.746 0.335 2.416 1.004l0.753 0.753-1.318 1.318-0.753-0.753c-0.293-0.293-0.659-0.439-1.098-0.439s-0.805 0.146-1.098 0.439l-7.027 7.027zM14.178 11.529l-1.318-1.318 0.753-0.753c0.293-0.293 0.439-0.648 0.439-1.067s-0.146-0.774-0.439-1.067l-0.816-0.816 1.318-1.318 0.816 0.816c0.669 0.669 1.004 1.464 1.004 2.384s-0.335 1.715-1.004 2.384l-0.753 0.753zM16.688 14.039l-1.318-1.318 4.518-4.518c0.293-0.293 0.439-0.659 0.439-1.098s-0.146-0.805-0.439-1.098l-2.008-2.008 1.318-1.318 2.008 2.008c0.669 0.669 1.004 1.474 1.004 2.416s-0.335 1.746-1.004 2.416l-4.518 4.518zM21.707 19.058l-1.318-1.318 2.008-2.008c0.669-0.669 1.474-1.004 2.416-1.004s1.746 0.335 2.416 1.004l2.008 2.008-1.318 1.318-2.008-2.008c-0.293-0.293-0.659-0.439-1.098-0.439s-0.805 0.146-1.098 0.439l-2.008 2.008z"></path>
</symbol>
<symbol id="icon-celebration_FILL0_wght400_GRAD0_opsz24" viewBox="0 0 32 32">
<path d="M3.2 28.704l6.4-17.92 11.52 11.52-17.92 6.4zM7.424 24.48l9.024-3.2-5.824-5.824-3.2 9.024zM19.264 16.608l-1.344-1.344 7.168-7.168c0.683-0.683 1.504-1.024 2.464-1.024s1.781 0.341 2.464 1.024l0.768 0.768-1.344 1.344-0.768-0.768c-0.299-0.299-0.672-0.448-1.12-0.448s-0.821 0.149-1.12 0.448l-7.168 7.168zM14.144 11.488l-1.344-1.344 0.768-0.768c0.299-0.299 0.448-0.661 0.448-1.088s-0.149-0.789-0.448-1.088l-0.832-0.832 1.344-1.344 0.832 0.832c0.683 0.683 1.024 1.493 1.024 2.432s-0.341 1.749-1.024 2.432l-0.768 0.768zM16.704 14.048l-1.344-1.344 4.608-4.608c0.299-0.299 0.448-0.672 0.448-1.12s-0.149-0.821-0.448-1.12l-2.048-2.048 1.344-1.344 2.048 2.048c0.683 0.683 1.024 1.504 1.024 2.464s-0.341 1.781-1.024 2.464l-4.608 4.608zM21.824 19.168l-1.344-1.344 2.048-2.048c0.683-0.683 1.504-1.024 2.464-1.024s1.781 0.341 2.464 1.024l2.048 2.048-1.344 1.344-2.048-2.048c-0.299-0.299-0.672-0.448-1.12-0.448s-0.821 0.149-1.12 0.448l-2.048 2.048z"></path>
</symbol>
<symbol id="icon-celebration_FILL0_wght400_GRAD0_opsz32" viewBox="0 0 32 32">
<path d="M3.072 28.856l6.465-18.101 11.636 11.636-18.101 6.465zM7.339 24.59l9.115-3.232-5.883-5.883-3.232 9.115zM19.298 16.638l-1.358-1.358 7.24-7.24c0.69-0.69 1.519-1.034 2.489-1.034s1.799 0.345 2.489 1.034l0.776 0.776-1.358 1.358-0.776-0.776c-0.302-0.302-0.679-0.453-1.131-0.453s-0.83 0.151-1.131 0.453l-7.24 7.24zM14.127 11.466l-1.358-1.358 0.776-0.776c0.302-0.302 0.452-0.668 0.452-1.099s-0.151-0.797-0.452-1.099l-0.84-0.84 1.358-1.358 0.84 0.84c0.69 0.69 1.034 1.508 1.034 2.457s-0.345 1.767-1.034 2.457l-0.776 0.776zM16.712 14.052l-1.358-1.358 4.655-4.655c0.302-0.302 0.453-0.679 0.453-1.131s-0.151-0.83-0.453-1.131l-2.069-2.069 1.358-1.358 2.069 2.069c0.69 0.69 1.034 1.519 1.034 2.489s-0.345 1.799-1.034 2.489l-4.655 4.655zM21.884 19.224l-1.358-1.358 2.069-2.069c0.69-0.69 1.519-1.034 2.489-1.034s1.799 0.345 2.489 1.034l2.069 2.069-1.358 1.358-2.069-2.069c-0.302-0.302-0.679-0.453-1.131-0.453s-0.83 0.151-1.131 0.453l-2.069 2.069z"></path>
</symbol>
<symbol id="icon-collections_bookmark_FILL0_wght400_GRAD0_opsz16" viewBox="0 0 32 32">
<path d="M10.978 20.877h15.059v-15.059h-2.51v8.784l-3.137-1.882-3.137 1.882v-8.784h-6.274v15.059zM10.978 23.387c-0.69 0-1.281-0.246-1.773-0.737s-0.737-1.082-0.737-1.773v-15.059c0-0.69 0.246-1.281 0.737-1.773s1.082-0.737 1.773-0.737h15.059c0.69 0 1.281 0.246 1.773 0.737s0.737 1.082 0.737 1.773v15.059c0 0.69-0.246 1.281-0.737 1.773s-1.082 0.737-1.773 0.737h-15.059zM5.958 28.407c-0.69 0-1.281-0.246-1.773-0.737s-0.737-1.082-0.737-1.773v-17.569h2.51v17.569h17.569v2.51h-17.569z"></path>
</symbol>
<symbol id="icon-collections_bookmark_FILL0_wght400_GRAD0_opsz24-1" viewBox="0 0 32 32">
<path d="M10.88 21.024h15.36v-15.36h-2.56v8.96l-3.2-1.92-3.2 1.92v-8.96h-6.4v15.36zM10.88 23.584c-0.704 0-1.307-0.251-1.808-0.752s-0.752-1.104-0.752-1.808v-15.36c0-0.704 0.251-1.307 0.752-1.808s1.104-0.752 1.808-0.752h15.36c0.704 0 1.307 0.251 1.808 0.752s0.752 1.104 0.752 1.808v15.36c0 0.704-0.251 1.307-0.752 1.808s-1.104 0.752-1.808 0.752h-15.36zM5.76 28.704c-0.704 0-1.307-0.251-1.808-0.752s-0.752-1.104-0.752-1.808v-17.92h2.56v17.92h17.92v2.56h-17.92z"></path>
</symbol>
<symbol id="icon-collections_bookmark_FILL0_wght400_GRAD0_opsz24" viewBox="0 0 32 32">
<path d="M10.88 21.024h15.36v-15.36h-2.56v8.96l-3.2-1.92-3.2 1.92v-8.96h-6.4v15.36zM10.88 23.584c-0.704 0-1.307-0.251-1.808-0.752s-0.752-1.104-0.752-1.808v-15.36c0-0.704 0.251-1.307 0.752-1.808s1.104-0.752 1.808-0.752h15.36c0.704 0 1.307 0.251 1.808 0.752s0.752 1.104 0.752 1.808v15.36c0 0.704-0.251 1.307-0.752 1.808s-1.104 0.752-1.808 0.752h-15.36zM5.76 28.704c-0.704 0-1.307-0.251-1.808-0.752s-0.752-1.104-0.752-1.808v-17.92h2.56v17.92h17.92v2.56h-17.92z"></path>
</symbol>
<symbol id="icon-collections_bookmark_FILL0_wght400_GRAD0_opsz32" viewBox="0 0 32 32">
<path d="M10.83 21.099h15.515v-15.515h-2.586v9.050l-3.232-1.939-3.232 1.939v-9.050h-6.465v15.515zM10.83 23.685c-0.711 0-1.32-0.253-1.826-0.76s-0.76-1.115-0.76-1.826v-15.515c0-0.711 0.253-1.32 0.76-1.826s1.115-0.76 1.826-0.76h15.515c0.711 0 1.32 0.253 1.826 0.76s0.76 1.115 0.76 1.826v15.515c0 0.711-0.253 1.32-0.76 1.826s-1.115 0.76-1.826 0.76h-15.515zM5.658 28.857c-0.711 0-1.32-0.253-1.826-0.76s-0.76-1.115-0.76-1.826v-18.101h2.586v18.101h18.101v2.586h-18.101z"></path>
</symbol>
<symbol id="icon-contract_edit_FILL0_wght400_GRAD0_opsz16" viewBox="0 0 32 32">
<path d="M12.235 12.094v-2.51h11.294v2.51h-11.294zM12.235 15.859v-2.51h11.294v2.51h-11.294zM16 28.408h-7.529c-1.046 0-1.935-0.366-2.667-1.098s-1.098-1.621-1.098-2.667v-3.765h3.765v-17.569h18.824v11.325c-0.418-0.042-0.842-0.026-1.271 0.047s-0.842 0.204-1.239 0.392v-9.255h-13.804v15.059h7.529l-2.51 2.51h-8.784v1.255c0 0.356 0.12 0.654 0.361 0.894s0.539 0.361 0.894 0.361h7.529v2.51zM18.51 28.408v-3.859l6.933-6.902c0.188-0.188 0.397-0.324 0.627-0.408s0.46-0.125 0.69-0.125c0.251 0 0.491 0.047 0.721 0.141s0.439 0.235 0.627 0.424l1.161 1.161c0.167 0.188 0.298 0.397 0.392 0.627s0.141 0.46 0.141 0.69-0.042 0.465-0.125 0.706c-0.084 0.241-0.22 0.455-0.408 0.643l-6.902 6.902h-3.859zM20.392 26.525h1.192l3.796-3.827-0.565-0.596-0.596-0.565-3.828 3.796v1.192zM24.816 22.102l-0.596-0.565 1.161 1.161-0.565-0.596z"></path>
</symbol>
<symbol id="icon-contract_edit_FILL0_wght400_GRAD0_opsz24" viewBox="0 0 32 32">
<path d="M12.16 12.064v-2.56h11.52v2.56h-11.52zM12.16 15.904v-2.56h11.52v2.56h-11.52zM16 28.704h-7.68c-1.067 0-1.973-0.373-2.72-1.12s-1.12-1.653-1.12-2.72v-3.84h3.84v-17.92h19.2v11.552c-0.427-0.043-0.859-0.027-1.296 0.048s-0.859 0.208-1.264 0.4v-9.44h-14.080v15.36h7.68l-2.56 2.56h-8.96v1.28c0 0.363 0.123 0.667 0.368 0.912s0.549 0.368 0.912 0.368h7.68v2.56zM18.56 28.704v-3.936l7.072-7.040c0.192-0.192 0.405-0.331 0.64-0.416s0.469-0.128 0.704-0.128c0.256 0 0.501 0.048 0.736 0.144s0.448 0.24 0.64 0.432l1.184 1.184c0.171 0.192 0.304 0.405 0.4 0.64s0.144 0.469 0.144 0.704c0 0.235-0.043 0.475-0.128 0.72s-0.224 0.464-0.416 0.656l-7.040 7.040h-3.936zM20.48 26.784h1.216l3.872-3.904-0.576-0.608-0.608-0.576-3.904 3.872v1.216zM24.992 22.272l-0.608-0.576 1.184 1.184-0.576-0.608z"></path>
</symbol>
<symbol id="icon-contract_edit_FILL0_wght400_GRAD0_opsz32" viewBox="0 0 32 32">
<path d="M12.121 12.048v-2.586h11.636v2.586h-11.636zM12.121 15.927v-2.586h11.636v2.586h-11.636zM16 28.856h-7.758c-1.077 0-1.993-0.377-2.747-1.131s-1.131-1.67-1.131-2.747v-3.879h3.879v-18.101h19.394v11.669c-0.431-0.043-0.867-0.027-1.309 0.049s-0.867 0.21-1.277 0.404v-9.535h-14.222v15.515h7.758l-2.586 2.586h-9.050v1.293c0 0.366 0.124 0.673 0.372 0.921s0.555 0.372 0.921 0.372h7.758v2.586zM18.586 28.856v-3.976l7.143-7.111c0.194-0.194 0.41-0.334 0.646-0.42s0.474-0.129 0.711-0.129c0.259 0 0.506 0.049 0.743 0.145s0.453 0.242 0.646 0.436l1.196 1.196c0.172 0.194 0.307 0.409 0.404 0.646s0.145 0.474 0.145 0.711c0 0.237-0.043 0.48-0.129 0.727s-0.226 0.469-0.42 0.663l-7.111 7.111h-3.976zM20.525 26.917h1.228l3.911-3.943-0.582-0.614-0.614-0.582-3.943 3.911v1.228zM25.083 22.359l-0.614-0.582 1.196 1.196-0.582-0.614z"></path>
</symbol>
<symbol id="icon-description_FILL0_wght400_GRAD0_opsz16" viewBox="0 0 32 32">
<path d="M10.983 23.387h10.039v-2.51h-10.039v2.51zM10.983 18.368h10.039v-2.51h-10.039v2.51zM8.473 28.407c-0.69 0-1.281-0.246-1.773-0.737s-0.737-1.082-0.737-1.773v-20.078c0-0.69 0.246-1.281 0.737-1.773s1.082-0.737 1.773-0.737h10.039l7.529 7.529v15.059c0 0.69-0.246 1.281-0.737 1.773s-1.082 0.737-1.773 0.737h-15.059zM17.257 12.093v-6.274h-8.784v20.078h15.059v-13.804h-6.274z"></path>
</symbol>
<symbol id="icon-description_FILL0_wght400_GRAD0_opsz24" viewBox="0 0 32 32">
<path d="M10.88 23.584h10.24v-2.56h-10.24v2.56zM10.88 18.464h10.24v-2.56h-10.24v2.56zM8.32 28.704c-0.704 0-1.307-0.251-1.808-0.752s-0.752-1.104-0.752-1.808v-20.48c0-0.704 0.251-1.307 0.752-1.808s1.104-0.752 1.808-0.752h10.24l7.68 7.68v15.36c0 0.704-0.251 1.307-0.752 1.808s-1.104 0.752-1.808 0.752h-15.36zM17.28 12.064v-6.4h-8.96v20.48h15.36v-14.080h-6.4z"></path>
</symbol>
<symbol id="icon-description_FILL0_wght400_GRAD0_opsz32" viewBox="0 0 32 32">
<path d="M10.827 23.685h10.343v-2.586h-10.343v2.586zM10.827 18.513h10.343v-2.586h-10.343v2.586zM8.241 28.857c-0.711 0-1.32-0.253-1.826-0.76s-0.76-1.115-0.76-1.826v-20.687c0-0.711 0.253-1.32 0.76-1.826s1.115-0.76 1.826-0.76h10.343l7.758 7.758v15.515c0 0.711-0.253 1.32-0.76 1.826s-1.115 0.76-1.826 0.76h-15.515zM17.292 12.049v-6.465h-9.050v20.687h15.515v-14.222h-6.465z"></path>
</symbol>
<symbol id="icon-dictionary_FILL0_wght400_GRAD0_opsz16" viewBox="0 0 32 32">
<path d="M5.963 18.651h1.412l0.722-2.071h3.263l0.753 2.071h1.38l-3.043-8.094h-1.443l-3.043 8.094zM8.504 15.42l1.192-3.357h0.063l1.192 3.357h-2.447zM18.512 13.224v-2.133c0.69-0.293 1.396-0.512 2.118-0.659s1.48-0.22 2.275-0.22c0.544 0 1.077 0.042 1.6 0.126s1.035 0.188 1.537 0.314v2.008c-0.502-0.188-1.009-0.329-1.521-0.424s-1.051-0.141-1.616-0.141c-0.795 0-1.558 0.099-2.29 0.298s-1.433 0.476-2.102 0.831zM18.512 20.126v-2.133c0.69-0.293 1.396-0.512 2.118-0.659s1.48-0.22 2.275-0.22c0.544 0 1.077 0.042 1.6 0.125s1.035 0.188 1.537 0.314v2.008c-0.502-0.188-1.009-0.329-1.521-0.424s-1.051-0.141-1.616-0.141c-0.795 0-1.558 0.094-2.29 0.282s-1.433 0.471-2.102 0.847zM18.512 16.675v-2.133c0.69-0.293 1.396-0.512 2.118-0.659s1.48-0.22 2.275-0.22c0.544 0 1.077 0.042 1.6 0.126s1.035 0.188 1.537 0.314v2.008c-0.502-0.188-1.009-0.329-1.521-0.424s-1.051-0.141-1.616-0.141c-0.795 0-1.558 0.099-2.29 0.298s-1.433 0.476-2.102 0.831zM9.101 20.879c0.983 0 1.94 0.11 2.871 0.329s1.856 0.549 2.776 0.988v-12.361c-0.858-0.502-1.767-0.878-2.729-1.129s-1.935-0.376-2.918-0.376c-0.753 0-1.501 0.073-2.243 0.22s-1.459 0.366-2.149 0.659v12.424c0.732-0.251 1.459-0.439 2.18-0.565s1.459-0.188 2.212-0.188zM17.257 22.196c0.92-0.439 1.846-0.769 2.777-0.988s1.887-0.329 2.871-0.329c0.753 0 1.49 0.063 2.212 0.188s1.448 0.314 2.18 0.565v-12.424c-0.69-0.293-1.407-0.512-2.149-0.659s-1.49-0.22-2.243-0.22c-0.983 0-1.956 0.126-2.918 0.376s-1.872 0.627-2.729 1.129v12.361zM16.002 25.898c-1.004-0.795-2.091-1.412-3.263-1.851s-2.384-0.659-3.639-0.659c-0.878 0-1.741 0.115-2.588 0.345s-1.658 0.554-2.431 0.972c-0.439 0.23-0.863 0.22-1.271-0.031s-0.612-0.617-0.612-1.098v-15.121c0-0.23 0.058-0.45 0.173-0.659s0.288-0.366 0.518-0.471c0.962-0.502 1.966-0.878 3.012-1.129s2.112-0.376 3.2-0.376c1.213 0 2.4 0.157 3.561 0.471s2.275 0.784 3.341 1.412c1.067-0.627 2.18-1.098 3.341-1.412s2.348-0.471 3.561-0.471c1.087 0 2.154 0.125 3.2 0.376s2.050 0.627 3.012 1.129c0.23 0.105 0.403 0.261 0.518 0.471s0.172 0.429 0.172 0.659v15.121c0 0.481-0.204 0.847-0.612 1.098s-0.831 0.261-1.271 0.031c-0.774-0.418-1.584-0.742-2.431-0.972s-1.71-0.345-2.588-0.345c-1.255 0-2.468 0.22-3.639 0.659s-2.259 1.056-3.263 1.851z"></path>
</symbol>
<symbol id="icon-dictionary_FILL0_wght400_GRAD0_opsz24" viewBox="0 0 32 32">
<path d="M5.76 18.752h1.44l0.736-2.112h3.328l0.768 2.112h1.408l-3.104-8.256h-1.472l-3.104 8.256zM8.352 15.456l1.216-3.424h0.064l1.216 3.424h-2.496zM18.56 13.216v-2.176c0.704-0.299 1.424-0.523 2.16-0.672s1.509-0.224 2.32-0.224c0.555 0 1.099 0.043 1.632 0.128s1.056 0.192 1.568 0.32v2.048c-0.512-0.192-1.029-0.336-1.552-0.432s-1.072-0.144-1.648-0.144c-0.811 0-1.589 0.101-2.336 0.304s-1.461 0.485-2.144 0.848zM18.56 20.256v-2.176c0.704-0.299 1.424-0.523 2.16-0.672s1.509-0.224 2.32-0.224c0.555 0 1.099 0.043 1.632 0.128s1.056 0.192 1.568 0.32v2.048c-0.512-0.192-1.029-0.336-1.552-0.432s-1.072-0.144-1.648-0.144c-0.811 0-1.589 0.096-2.336 0.288s-1.461 0.48-2.144 0.864zM18.56 16.736v-2.176c0.704-0.299 1.424-0.523 2.16-0.672s1.509-0.224 2.32-0.224c0.555 0 1.099 0.043 1.632 0.128s1.056 0.192 1.568 0.32v2.048c-0.512-0.192-1.029-0.336-1.552-0.432s-1.072-0.144-1.648-0.144c-0.811 0-1.589 0.101-2.336 0.304s-1.461 0.485-2.144 0.848zM8.96 21.024c1.003 0 1.979 0.112 2.928 0.336s1.893 0.56 2.832 1.008v-12.608c-0.875-0.512-1.803-0.896-2.784-1.152s-1.973-0.384-2.976-0.384c-0.768 0-1.531 0.075-2.288 0.224s-1.488 0.373-2.192 0.672v12.672c0.747-0.256 1.488-0.448 2.224-0.576s1.488-0.192 2.256-0.192zM17.28 22.368c0.939-0.448 1.883-0.784 2.832-1.008s1.925-0.336 2.928-0.336c0.768 0 1.52 0.064 2.256 0.192s1.477 0.32 2.224 0.576v-12.672c-0.704-0.299-1.435-0.523-2.192-0.672s-1.52-0.224-2.288-0.224c-1.003 0-1.995 0.128-2.976 0.384s-1.909 0.64-2.784 1.152v12.608zM16 26.144c-1.024-0.811-2.133-1.44-3.328-1.888s-2.432-0.672-3.712-0.672c-0.896 0-1.776 0.117-2.64 0.352s-1.691 0.565-2.48 0.992c-0.448 0.235-0.88 0.224-1.296-0.032s-0.624-0.629-0.624-1.12v-15.424c0-0.235 0.059-0.459 0.176-0.672s0.293-0.373 0.528-0.48c0.981-0.512 2.005-0.896 3.072-1.152s2.155-0.384 3.264-0.384c1.237 0 2.448 0.16 3.632 0.48s2.32 0.8 3.408 1.44c1.088-0.64 2.224-1.12 3.408-1.44s2.395-0.48 3.632-0.48c1.109 0 2.197 0.128 3.264 0.384s2.091 0.64 3.072 1.152c0.235 0.107 0.411 0.267 0.528 0.48s0.176 0.437 0.176 0.672v15.424c0 0.491-0.208 0.864-0.624 1.12s-0.848 0.267-1.296 0.032c-0.789-0.427-1.616-0.757-2.48-0.992s-1.744-0.352-2.64-0.352c-1.28 0-2.517 0.224-3.712 0.672s-2.304 1.077-3.328 1.888z"></path>
</symbol>
<symbol id="icon-dictionary_FILL0_wght400_GRAD0_opsz32" viewBox="0 0 32 32">
<path d="M5.655 18.803h1.455l0.743-2.133h3.362l0.776 2.133h1.422l-3.135-8.339h-1.487l-3.135 8.339zM8.273 15.474l1.228-3.459h0.065l1.228 3.459h-2.521zM18.585 13.212v-2.198c0.711-0.302 1.438-0.528 2.182-0.679s1.525-0.226 2.343-0.226c0.56 0 1.11 0.043 1.648 0.129s1.067 0.194 1.584 0.323v2.069c-0.517-0.194-1.040-0.339-1.568-0.436s-1.083-0.145-1.665-0.145c-0.819 0-1.605 0.102-2.36 0.307s-1.476 0.49-2.166 0.857zM18.585 20.323v-2.198c0.711-0.302 1.438-0.528 2.182-0.679s1.525-0.226 2.343-0.226c0.56 0 1.11 0.043 1.648 0.129s1.067 0.194 1.584 0.323v2.069c-0.517-0.194-1.040-0.339-1.568-0.436s-1.083-0.145-1.665-0.145c-0.819 0-1.605 0.097-2.36 0.291s-1.476 0.485-2.166 0.873zM18.585 16.767v-2.198c0.711-0.302 1.438-0.528 2.182-0.679s1.525-0.226 2.343-0.226c0.56 0 1.11 0.043 1.648 0.129s1.067 0.194 1.584 0.323v2.069c-0.517-0.194-1.040-0.339-1.568-0.436s-1.083-0.145-1.665-0.145c-0.819 0-1.605 0.102-2.36 0.307s-1.476 0.49-2.166 0.857zM8.888 21.098c1.013 0 1.999 0.113 2.958 0.339s1.912 0.566 2.861 1.018v-12.735c-0.883-0.517-1.821-0.905-2.812-1.164s-1.993-0.388-3.006-0.388c-0.776 0-1.546 0.075-2.311 0.226s-1.503 0.377-2.214 0.679v12.8c0.754-0.259 1.503-0.453 2.246-0.582s1.503-0.194 2.279-0.194zM17.292 22.456c0.948-0.453 1.902-0.792 2.861-1.018s1.945-0.339 2.958-0.339c0.776 0 1.535 0.065 2.279 0.194s1.492 0.323 2.247 0.582v-12.8c-0.711-0.302-1.449-0.528-2.214-0.679s-1.535-0.226-2.311-0.226c-1.013 0-2.015 0.129-3.006 0.388s-1.929 0.646-2.812 1.164v12.735zM15.999 26.27c-1.034-0.819-2.155-1.455-3.362-1.907s-2.457-0.679-3.749-0.679c-0.905 0-1.794 0.119-2.667 0.355s-1.708 0.571-2.505 1.002c-0.453 0.237-0.889 0.226-1.309-0.032s-0.63-0.636-0.63-1.131v-15.58c0-0.237 0.059-0.463 0.178-0.679s0.296-0.377 0.533-0.485c0.991-0.517 2.026-0.905 3.103-1.164s2.176-0.388 3.297-0.388c1.25 0 2.473 0.162 3.669 0.485s2.343 0.808 3.442 1.455c1.099-0.646 2.247-1.131 3.442-1.455s2.419-0.485 3.669-0.485c1.121 0 2.22 0.129 3.297 0.388s2.112 0.646 3.103 1.164c0.237 0.108 0.415 0.269 0.533 0.485s0.178 0.442 0.178 0.679v15.58c0 0.496-0.21 0.873-0.63 1.131s-0.857 0.269-1.309 0.032c-0.797-0.431-1.632-0.765-2.505-1.002s-1.762-0.355-2.667-0.355c-1.293 0-2.543 0.226-3.749 0.679s-2.327 1.088-3.362 1.907z"></path>
</symbol>
<symbol id="icon-done_outline_FILL0_wght400_GRAD0_opsz16" viewBox="0 0 32 32">
<path d="M12.893 23.388l13.302-13.302-1.788-1.757-11.545 11.514-5.302-5.333-1.788 1.788 7.122 7.090zM12.893 26.933l-10.635-10.635 5.302-5.333 5.333 5.333 11.482-11.514 5.396 5.271-16.878 16.878z"></path>
</symbol>
<symbol id="icon-done_outline_FILL0_wght400_GRAD0_opsz24" viewBox="0 0 32 32">
<path d="M12.833 23.584l13.568-13.568-1.824-1.792-11.776 11.744-5.408-5.44-1.824 1.824 7.264 7.232zM12.833 27.2l-10.848-10.848 5.408-5.44 5.44 5.44 11.712-11.744 5.504 5.376-17.216 17.216z"></path>
</symbol>
<symbol id="icon-done_outline_FILL0_wght400_GRAD0_opsz32" viewBox="0 0 32 32">
<path d="M12.798 23.685l13.705-13.705-1.842-1.81-11.895 11.863-5.463-5.495-1.842 1.842 7.337 7.305zM12.798 27.337l-10.958-10.958 5.463-5.495 5.495 5.495 11.83-11.863 5.56 5.43-17.39 17.39z"></path>
</symbol>
<symbol id="icon-edit_note_FILL0_wght400_GRAD0_opsz16" viewBox="0 0 32 32">
<path d="M5.963 18.369v-2.51h8.784v2.51h-8.784zM5.963 13.349v-2.51h13.804v2.51h-13.804zM5.963 8.33v-2.51h13.804v2.51h-13.804zM17.257 25.898v-3.859l6.933-6.902c0.188-0.188 0.397-0.324 0.627-0.408s0.46-0.126 0.69-0.126c0.251 0 0.491 0.047 0.721 0.141s0.439 0.235 0.628 0.424l1.161 1.161c0.167 0.188 0.298 0.397 0.392 0.627s0.141 0.46 0.141 0.69c0 0.23-0.042 0.465-0.126 0.706s-0.22 0.455-0.408 0.643l-6.902 6.902h-3.859zM19.14 24.016h1.192l3.796-3.828-0.565-0.596-0.596-0.565-3.827 3.796v1.192zM23.563 19.592l-0.596-0.565 1.161 1.161-0.565-0.596z"></path>
</symbol>
<symbol id="icon-edit_note_FILL0_wght400_GRAD0_opsz24" viewBox="0 0 32 32">
<path d="M5.76 18.464v-2.56h8.96v2.56h-8.96zM5.76 13.344v-2.56h14.080v2.56h-14.080zM5.76 8.224v-2.56h14.080v2.56h-14.080zM17.28 26.144v-3.936l7.072-7.040c0.192-0.192 0.405-0.331 0.64-0.416s0.469-0.128 0.704-0.128c0.256 0 0.501 0.048 0.736 0.144s0.448 0.24 0.64 0.432l1.184 1.184c0.171 0.192 0.304 0.405 0.4 0.64s0.144 0.469 0.144 0.704c0 0.235-0.043 0.475-0.128 0.72s-0.224 0.464-0.416 0.656l-7.040 7.040h-3.936zM19.2 24.224h1.216l3.872-3.904-0.576-0.608-0.608-0.576-3.904 3.872v1.216zM23.712 19.712l-0.608-0.576 1.184 1.184-0.576-0.608z"></path>
</symbol>
<symbol id="icon-edit_note_FILL0_wght400_GRAD0_opsz32" viewBox="0 0 32 32">
<path d="M5.655 18.513v-2.586h9.051v2.586h-9.051zM5.655 13.341v-2.586h14.222v2.586h-14.222zM5.655 8.169v-2.586h14.222v2.586h-14.222zM17.292 26.27v-3.976l7.143-7.111c0.194-0.194 0.409-0.334 0.646-0.42s0.474-0.129 0.711-0.129c0.259 0 0.506 0.049 0.743 0.145s0.452 0.242 0.646 0.436l1.196 1.196c0.172 0.194 0.307 0.409 0.404 0.646s0.145 0.474 0.145 0.711c0 0.237-0.043 0.479-0.129 0.727s-0.226 0.469-0.42 0.663l-7.111 7.111h-3.976zM19.231 24.331h1.228l3.911-3.943-0.582-0.614-0.614-0.582-3.943 3.911v1.228zM23.789 19.773l-0.614-0.582 1.196 1.196-0.582-0.614z"></path>
</symbol>
<symbol id="icon-export" viewBox="0 0 32 32">
<path d="M22.672 10.667l-6.667-6.667-6.667 6.667 1.867 1.933 3.467-3.467v10.867h2.667v-10.867l3.467 3.467 1.867-1.933zM8.003 26.667c-0.733 0-1.361-0.261-1.883-0.783s-0.783-1.15-0.783-1.883v-6.667c0-0.733 0.261-1.361 0.783-1.883s1.15-0.783 1.883-0.783h4v2.667h-4v6.667h16v-6.667h-4v-2.667h4c0.733 0 1.361 0.261 1.883 0.783s0.783 1.15 0.783 1.883v6.667c0 0.733-0.261 1.361-0.783 1.883s-1.15 0.783-1.883 0.783h-16z"></path>
</symbol>
<symbol id="icon-favorite_FILL0_wght400_GRAD0_opsz16" viewBox="0 0 32 32">
<path d="M15.998 27.152l-1.82-1.631c-2.112-1.903-3.859-3.545-5.239-4.926s-2.478-2.62-3.294-3.718c-0.816-1.098-1.386-2.107-1.71-3.027s-0.486-1.861-0.486-2.824c0-1.966 0.659-3.608 1.976-4.925s2.959-1.976 4.926-1.976c1.088 0 2.123 0.23 3.106 0.69s1.83 1.109 2.541 1.945c0.711-0.837 1.558-1.485 2.541-1.945s2.018-0.69 3.106-0.69c1.966 0 3.608 0.659 4.926 1.976s1.976 2.959 1.976 4.925c0 0.962-0.162 1.903-0.486 2.824s-0.894 1.929-1.71 3.027-1.914 2.337-3.294 3.718c-1.38 1.38-3.127 3.022-5.239 4.926l-1.82 1.631zM15.998 23.764c2.008-1.799 3.66-3.341 4.957-4.627s2.322-2.405 3.075-3.357 1.276-1.799 1.569-2.541c0.293-0.742 0.439-1.48 0.439-2.212 0-1.255-0.418-2.301-1.255-3.137s-1.882-1.255-3.137-1.255c-0.983 0-1.893 0.277-2.729 0.831s-1.412 1.26-1.726 2.118h-2.384c-0.314-0.858-0.889-1.563-1.725-2.118s-1.746-0.831-2.729-0.831c-1.255 0-2.301 0.418-3.137 1.255s-1.255 1.882-1.255 3.137c0 0.732 0.146 1.469 0.439 2.212s0.816 1.59 1.569 2.541c0.753 0.952 1.778 2.071 3.074 3.357s2.949 2.829 4.957 4.627z"></path>
</symbol>
<symbol id="icon-favorite_FILL0_wght400_GRAD0_opsz24" viewBox="0 0 32 32">
<path d="M16 27.424l-1.856-1.664c-2.155-1.941-3.936-3.616-5.344-5.024s-2.528-2.672-3.36-3.792c-0.832-1.12-1.413-2.149-1.744-3.088s-0.496-1.899-0.496-2.88c0-2.005 0.672-3.68 2.016-5.024s3.019-2.016 5.024-2.016c1.109 0 2.165 0.235 3.168 0.704s1.867 1.131 2.592 1.984c0.725-0.853 1.589-1.515 2.592-1.984s2.059-0.704 3.168-0.704c2.005 0 3.68 0.672 5.024 2.016s2.016 3.019 2.016 5.024c0 0.981-0.165 1.941-0.496 2.88s-0.912 1.968-1.744 3.088c-0.832 1.12-1.952 2.384-3.36 3.792s-3.189 3.083-5.344 5.024l-1.856 1.664zM16 23.968c2.048-1.835 3.733-3.408 5.056-4.72s2.368-2.453 3.136-3.424c0.768-0.971 1.301-1.835 1.6-2.592s0.448-1.509 0.448-2.256c0-1.28-0.427-2.347-1.28-3.2s-1.92-1.28-3.2-1.28c-1.003 0-1.931 0.283-2.784 0.848s-1.44 1.285-1.76 2.16h-2.432c-0.32-0.875-0.907-1.595-1.76-2.16s-1.781-0.848-2.784-0.848c-1.28 0-2.347 0.427-3.2 1.28s-1.28 1.92-1.28 3.2c0 0.747 0.149 1.499 0.448 2.256s0.832 1.621 1.6 2.592 1.813 2.112 3.136 3.424c1.323 1.312 3.008 2.885 5.056 4.72z"></path>
</symbol>
<symbol id="icon-favorite_FILL0_wght400_GRAD0_opsz32" viewBox="0 0 32 32">
<path d="M16.001 27.563l-1.875-1.681c-2.177-1.961-3.976-3.652-5.398-5.075s-2.554-2.699-3.394-3.83-1.428-2.171-1.762-3.119c-0.334-0.948-0.501-1.918-0.501-2.909 0-2.026 0.679-3.717 2.036-5.075s3.049-2.036 5.075-2.036c1.121 0 2.187 0.237 3.2 0.711s1.885 1.142 2.618 2.004c0.733-0.862 1.605-1.53 2.618-2.004s2.079-0.711 3.2-0.711c2.026 0 3.717 0.679 5.075 2.036s2.036 3.049 2.036 5.075c0 0.991-0.167 1.961-0.501 2.909s-0.921 1.988-1.762 3.119-1.972 2.408-3.394 3.83c-1.422 1.422-3.222 3.114-5.398 5.075l-1.875 1.681zM16.001 24.072c2.069-1.853 3.771-3.442 5.107-4.768s2.392-2.478 3.168-3.459c0.776-0.98 1.315-1.853 1.616-2.618s0.453-1.525 0.453-2.279c0-1.293-0.431-2.37-1.293-3.232s-1.939-1.293-3.232-1.293c-1.013 0-1.95 0.286-2.812 0.857s-1.455 1.298-1.778 2.182h-2.457c-0.323-0.883-0.916-1.611-1.778-2.182s-1.799-0.857-2.812-0.857c-1.293 0-2.37 0.431-3.232 1.293s-1.293 1.939-1.293 3.232c0 0.754 0.151 1.514 0.453 2.279s0.84 1.638 1.616 2.618c0.776 0.981 1.832 2.133 3.168 3.459s3.038 2.915 5.107 4.768z"></path>
</symbol>
<symbol id="icon-folder_FILL0_wght400_GRAD0_opsz16" viewBox="0 0 32 32">
<path d="M5.958 25.898c-0.69 0-1.281-0.246-1.773-0.737s-0.737-1.082-0.737-1.773v-15.059c0-0.69 0.246-1.281 0.737-1.773s1.082-0.737 1.773-0.737h7.529l2.51 2.51h10.039c0.69 0 1.281 0.246 1.773 0.737s0.737 1.082 0.737 1.773v12.549c0 0.69-0.246 1.281-0.737 1.773s-1.082 0.737-1.773 0.737h-20.078zM5.958 23.388h20.078v-12.549h-11.074l-2.51-2.51h-6.494v15.059z"></path>
</symbol>
<symbol id="icon-folder_FILL0_wght400_GRAD0_opsz24" viewBox="0 0 32 32">
<path d="M5.76 26.144c-0.704 0-1.307-0.251-1.808-0.752s-0.752-1.104-0.752-1.808v-15.36c0-0.704 0.251-1.307 0.752-1.808s1.104-0.752 1.808-0.752h7.68l2.56 2.56h10.24c0.704 0 1.307 0.251 1.808 0.752s0.752 1.104 0.752 1.808v12.8c0 0.704-0.251 1.307-0.752 1.808s-1.104 0.752-1.808 0.752h-20.48zM5.76 23.584h20.48v-12.8h-11.296l-2.56-2.56h-6.624v15.36z"></path>
</symbol>
<symbol id="icon-folder_FILL0_wght400_GRAD0_opsz32" viewBox="0 0 32 32">
<path d="M5.658 26.27c-0.711 0-1.32-0.253-1.826-0.76s-0.76-1.115-0.76-1.826v-15.515c0-0.711 0.253-1.32 0.76-1.826s1.115-0.76 1.826-0.76h7.758l2.586 2.586h10.343c0.711 0 1.32 0.253 1.826 0.76s0.76 1.115 0.76 1.826v12.929c0 0.711-0.253 1.32-0.76 1.826s-1.115 0.76-1.826 0.76h-20.687zM5.658 23.684h20.687v-12.929h-11.41l-2.586-2.586h-6.691v15.515z"></path>
</symbol>
<symbol id="icon-format_quote_FILL0_wght400_GRAD0_opsz16" viewBox="0 0 32 32">
<path d="M8.097 23.388l2.886-5.020c-1.38 0-2.562-0.491-3.545-1.475s-1.474-2.165-1.474-3.545c0-1.38 0.492-2.562 1.474-3.545s2.165-1.475 3.545-1.475c1.38 0 2.562 0.492 3.545 1.475s1.475 2.165 1.475 3.545c0 0.481-0.057 0.925-0.173 1.333s-0.288 0.8-0.518 1.176l-4.329 7.529h-2.886zM19.391 23.388l2.886-5.020c-1.38 0-2.562-0.491-3.545-1.475s-1.474-2.165-1.474-3.545 0.491-2.562 1.474-3.545c0.983-0.983 2.165-1.475 3.545-1.475s2.562 0.492 3.545 1.475c0.983 0.983 1.474 2.165 1.474 3.545 0 0.481-0.058 0.925-0.173 1.333s-0.287 0.8-0.518 1.176l-4.329 7.529h-2.886z"></path>
</symbol>
<symbol id="icon-format_quote_FILL0_wght400_GRAD0_opsz24" viewBox="0 0 32 32">
<path d="M7.936 23.584l2.944-5.12c-1.408 0-2.613-0.501-3.616-1.504s-1.504-2.208-1.504-3.616c0-1.408 0.501-2.613 1.504-3.616s2.208-1.504 3.616-1.504c1.408 0 2.613 0.501 3.616 1.504s1.504 2.208 1.504 3.616c0 0.491-0.059 0.944-0.176 1.36s-0.293 0.816-0.528 1.2l-4.416 7.68h-2.944zM19.456 23.584l2.944-5.12c-1.408 0-2.613-0.501-3.616-1.504s-1.504-2.208-1.504-3.616c0-1.408 0.501-2.613 1.504-3.616s2.208-1.504 3.616-1.504c1.408 0 2.613 0.501 3.616 1.504s1.504 2.208 1.504 3.616c0 0.491-0.059 0.944-0.176 1.36s-0.293 0.816-0.528 1.2l-4.416 7.68h-2.944z"></path>
</symbol>
<symbol id="icon-format_quote_FILL0_wght400_GRAD0_opsz32" viewBox="0 0 32 32">
<path d="M7.853 23.685l2.974-5.172c-1.422 0-2.64-0.506-3.653-1.519s-1.519-2.23-1.519-3.653c0-1.422 0.506-2.64 1.519-3.652s2.23-1.519 3.653-1.519c1.422 0 2.64 0.506 3.652 1.519s1.519 2.23 1.519 3.652c0 0.496-0.059 0.954-0.178 1.374s-0.296 0.824-0.533 1.212l-4.461 7.758h-2.974zM19.49 23.685l2.974-5.172c-1.422 0-2.64-0.506-3.653-1.519s-1.519-2.23-1.519-3.653c0-1.422 0.506-2.64 1.519-3.652s2.23-1.519 3.653-1.519c1.422 0 2.64 0.506 3.652 1.519s1.519 2.23 1.519 3.652c0 0.496-0.059 0.954-0.178 1.374s-0.296 0.824-0.533 1.212l-4.461 7.758h-2.974z"></path>
</symbol>
<symbol id="icon-function_FILL0_wght400_GRAD0_opsz16" viewBox="0 0 32 32">
<path d="M13.49 23.388v-2.51h1.945l3.294-3.765-3.294-3.765h-2.071l-2.008 10.792c-0.167 0.941-0.554 1.678-1.161 2.212s-1.38 0.8-2.322 0.8c-0.941 0-1.705-0.251-2.29-0.753s-0.878-1.171-0.878-2.008c0-0.669 0.178-1.208 0.533-1.616s0.805-0.612 1.349-0.612c0.523 0 0.967 0.178 1.333 0.533s0.549 0.784 0.549 1.286c0 0.104-0.005 0.199-0.016 0.282s-0.026 0.178-0.047 0.282c0.105-0.021 0.193-0.078 0.267-0.173s0.131-0.225 0.173-0.392l1.945-10.635h-3.576v-2.51h4.047l0.659-3.576c0.146-0.795 0.539-1.443 1.176-1.945s1.396-0.753 2.275-0.753c0.92 0 1.673 0.272 2.259 0.816s0.878 1.224 0.878 2.039c0 0.627-0.178 1.145-0.533 1.553s-0.805 0.612-1.349 0.612c-0.523 0-0.967-0.178-1.333-0.533s-0.549-0.795-0.549-1.318c0-0.105 0.005-0.199 0.016-0.282s0.026-0.178 0.047-0.282c-0.126 0.042-0.22 0.105-0.282 0.188s-0.115 0.209-0.157 0.376l-0.533 3.106h5.929v2.51h-1.004l1.631 1.851 1.631-1.851h-1.004v-2.51h6.274v2.51h-1.945l-3.294 3.765 3.294 3.765h1.945v2.51h-6.274v-2.51h1.004l-1.631-1.882-1.631 1.882h1.004v2.51h-6.274z"></path>
</symbol>
<symbol id="icon-function_FILL0_wght400_GRAD0_opsz24" viewBox="0 0 32 32">
<path d="M13.44 23.584v-2.56h1.984l3.36-3.84-3.36-3.84h-2.112l-2.048 11.008c-0.171 0.96-0.565 1.712-1.184 2.256s-1.408 0.816-2.368 0.816c-0.96 0-1.739-0.256-2.336-0.768s-0.896-1.195-0.896-2.048c0-0.683 0.181-1.232 0.544-1.648s0.821-0.624 1.376-0.624c0.533 0 0.987 0.181 1.36 0.544s0.56 0.8 0.56 1.312c0 0.107-0.005 0.203-0.016 0.288s-0.027 0.181-0.048 0.288c0.107-0.021 0.197-0.080 0.272-0.176s0.133-0.229 0.176-0.4l1.984-10.848h-3.648v-2.56h4.128l0.672-3.648c0.149-0.811 0.549-1.472 1.2-1.984s1.424-0.768 2.32-0.768c0.939 0 1.707 0.277 2.304 0.832s0.896 1.248 0.896 2.080c0 0.64-0.181 1.168-0.544 1.584s-0.821 0.624-1.376 0.624c-0.533 0-0.987-0.181-1.36-0.544s-0.56-0.811-0.56-1.344c0-0.107 0.005-0.203 0.016-0.288s0.027-0.181 0.048-0.288c-0.128 0.043-0.224 0.107-0.288 0.192s-0.117 0.213-0.16 0.384l-0.544 3.168h6.048v2.56h-1.024l1.664 1.888 1.664-1.888h-1.024v-2.56h6.4v2.56h-1.984l-3.36 3.84 3.36 3.84h1.984v2.56h-6.4v-2.56h1.024l-1.664-1.92-1.664 1.92h1.024v2.56h-6.4z"></path>
</symbol>
<symbol id="icon-function_FILL0_wght400_GRAD0_opsz32" viewBox="0 0 32 32">
<path d="M13.414 23.685v-2.586h2.004l3.394-3.879-3.394-3.879h-2.133l-2.069 11.119c-0.172 0.97-0.571 1.729-1.196 2.279s-1.422 0.824-2.392 0.824-1.756-0.259-2.36-0.776c-0.603-0.517-0.905-1.207-0.905-2.069 0-0.69 0.183-1.244 0.55-1.665s0.83-0.63 1.39-0.63c0.539 0 0.997 0.183 1.374 0.55s0.566 0.808 0.566 1.325c0 0.108-0.005 0.205-0.016 0.291s-0.027 0.183-0.049 0.291c0.108-0.022 0.199-0.081 0.275-0.178s0.135-0.232 0.178-0.404l2.004-10.958h-3.685v-2.586h4.17l0.679-3.685c0.151-0.819 0.555-1.487 1.212-2.004s1.438-0.776 2.343-0.776c0.948 0 1.724 0.28 2.327 0.84s0.905 1.261 0.905 2.101c0 0.646-0.183 1.18-0.55 1.6s-0.83 0.63-1.39 0.63c-0.539 0-0.997-0.183-1.374-0.55s-0.566-0.819-0.566-1.358c0-0.108 0.005-0.205 0.016-0.291s0.027-0.183 0.049-0.291c-0.129 0.043-0.226 0.108-0.291 0.194s-0.118 0.215-0.162 0.388l-0.55 3.2h6.109v2.586h-1.034l1.681 1.907 1.681-1.907h-1.034v-2.586h6.465v2.586h-2.004l-3.394 3.879 3.394 3.879h2.004v2.586h-6.465v-2.586h1.034l-1.681-1.939-1.681 1.939h1.034v2.586h-6.465z"></path>
</symbol>
<symbol id="icon-history_edu_FILL0_wght400_GRAD0_opsz16" viewBox="0 0 32 32">
<path d="M10.98 25.897c-0.69 0-1.281-0.246-1.773-0.737s-0.737-1.082-0.737-1.773v-3.765h3.765v-2.823c-0.732-0.042-1.427-0.204-2.086-0.486s-1.26-0.706-1.804-1.271v-1.38h-1.443l-4.078-4.078c0.753-0.962 1.684-1.642 2.792-2.039s2.227-0.596 3.357-0.596c0.565 0 1.114 0.042 1.647 0.125s1.072 0.24 1.616 0.471v-1.726h15.059v16.314c0 1.046-0.366 1.935-1.098 2.667s-1.621 1.098-2.667 1.098h-12.549zM14.745 19.623h7.529v2.51c0 0.356 0.12 0.654 0.361 0.894s0.539 0.361 0.894 0.361c0.356 0 0.654-0.12 0.894-0.361s0.361-0.539 0.361-0.894v-13.804h-10.039v0.753l7.529 7.529v1.757h-1.757l-3.576-3.576-0.251 0.251c-0.293 0.293-0.601 0.554-0.925 0.784s-0.664 0.408-1.020 0.533v3.263zM7.969 11.152h2.886v2.698c0.251 0.167 0.512 0.282 0.784 0.345s0.554 0.094 0.847 0.094c0.481 0 0.915-0.073 1.302-0.22s0.769-0.408 1.145-0.784l0.251-0.251-1.757-1.757c-0.607-0.607-1.286-1.061-2.039-1.365s-1.558-0.455-2.416-0.455c-0.418 0-0.816 0.031-1.192 0.094s-0.753 0.157-1.129 0.282l1.318 1.318zM19.765 22.133h-8.784v1.255h8.973c-0.063-0.188-0.11-0.387-0.141-0.596s-0.047-0.429-0.047-0.659z"></path>
</symbol>
<symbol id="icon-history_edu_FILL0_wght400_GRAD0_opsz24" viewBox="0 0 32 32">
<path d="M10.88 26.144c-0.704 0-1.307-0.251-1.808-0.752s-0.752-1.104-0.752-1.808v-3.84h3.84v-2.88c-0.747-0.043-1.456-0.208-2.128-0.496s-1.285-0.72-1.84-1.296v-1.408h-1.472l-4.16-4.16c0.768-0.981 1.717-1.675 2.848-2.080s2.272-0.608 3.424-0.608c0.576 0 1.136 0.043 1.68 0.128s1.093 0.245 1.648 0.48v-1.76h15.36v16.64c0 1.067-0.373 1.973-1.12 2.72s-1.653 1.12-2.72 1.12h-12.8zM14.72 19.744h7.68v2.56c0 0.363 0.123 0.667 0.368 0.912s0.549 0.368 0.912 0.368c0.363 0 0.667-0.123 0.912-0.368s0.368-0.549 0.368-0.912v-14.080h-10.24v0.768l7.68 7.68v1.792h-1.792l-3.648-3.648-0.256 0.256c-0.299 0.299-0.613 0.565-0.944 0.8s-0.677 0.416-1.040 0.544v3.328zM7.808 11.104h2.944v2.752c0.256 0.171 0.523 0.288 0.8 0.352s0.565 0.096 0.864 0.096c0.491 0 0.933-0.075 1.328-0.224s0.784-0.416 1.168-0.8l0.256-0.256-1.792-1.792c-0.619-0.619-1.312-1.083-2.080-1.392s-1.589-0.464-2.464-0.464c-0.427 0-0.832 0.032-1.216 0.096s-0.768 0.16-1.152 0.288l1.344 1.344zM19.84 22.304h-8.96v1.28h9.152c-0.064-0.192-0.112-0.395-0.144-0.608s-0.048-0.437-0.048-0.672z"></path>
</symbol>
<symbol id="icon-history_edu_FILL0_wght400_GRAD0_opsz32" viewBox="0 0 32 32">
<path d="M10.828 26.271c-0.711 0-1.32-0.253-1.826-0.76s-0.76-1.115-0.76-1.826v-3.879h3.879v-2.909c-0.754-0.043-1.471-0.21-2.15-0.501s-1.298-0.727-1.859-1.309v-1.422h-1.487l-4.202-4.202c0.776-0.991 1.735-1.692 2.877-2.101s2.295-0.614 3.459-0.614c0.582 0 1.147 0.043 1.697 0.129s1.104 0.248 1.665 0.485v-1.778h15.515v16.808c0 1.077-0.377 1.993-1.131 2.748s-1.67 1.131-2.747 1.131h-12.929zM14.707 19.806h7.758v2.586c0 0.366 0.124 0.673 0.372 0.921s0.555 0.372 0.921 0.372 0.673-0.124 0.921-0.372c0.248-0.248 0.372-0.555 0.372-0.921v-14.222h-10.343v0.776l7.758 7.758v1.81h-1.81l-3.685-3.685-0.259 0.259c-0.302 0.302-0.62 0.571-0.954 0.808s-0.684 0.42-1.050 0.55v3.362zM7.725 11.079h2.974v2.78c0.259 0.172 0.528 0.291 0.808 0.356s0.571 0.097 0.873 0.097c0.496 0 0.943-0.075 1.341-0.226s0.792-0.42 1.18-0.808l0.259-0.259-1.81-1.81c-0.625-0.625-1.325-1.094-2.101-1.406s-1.605-0.469-2.489-0.469c-0.431 0-0.84 0.032-1.228 0.097s-0.776 0.162-1.164 0.291l1.358 1.358zM19.879 22.392h-9.050v1.293h9.244c-0.065-0.194-0.113-0.399-0.145-0.614s-0.049-0.442-0.049-0.679z"></path>
</symbol>
<symbol id="icon-how_it_works_arrow_2" viewBox="0 0 32 32">
<path fill="none" stroke="#cdcfd0" style="stroke: var(--color1, #cdcfd0)" stroke-linejoin="miter" stroke-linecap="round" stroke-miterlimit="4" stroke-width="0.6" d="M25.502 1.8c1.019 13.317-10.72 26.092-21.929 24.958"></path>
<path fill="none" stroke="#cdcfd0" style="stroke: var(--color1, #cdcfd0)" stroke-linejoin="miter" stroke-linecap="round" stroke-miterlimit="4" stroke-width="0.6" d="M8.519 23.212c-2.161 2.179-5.273 3.437-5.070 3.454 0.742 0.896 2.527 1.684 4.984 1.915"></path>
</symbol>
<symbol id="icon-how_it_works_arrows" viewBox="0 0 32 32">
<path fill="none" stroke="#cdcfd0" style="stroke: var(--color1, #cdcfd0)" stroke-linejoin="miter" stroke-linecap="round" stroke-miterlimit="4" stroke-width="1.0213" d="M8.050 0.681c1.871 7.642 8.836 23.165 20.281 27.111"></path>
<path fill="none" stroke="#cdcfd0" style="stroke: var(--color1, #cdcfd0)" stroke-linejoin="miter" stroke-linecap="round" stroke-miterlimit="4" stroke-width="1.0213" d="M23.018 21.334c2.427 3.518 5.731 6.501 5.327 6.512-1.807 0.408-4.252 0.571-6.961 0.703"></path>
</symbol>
<symbol id="icon-how_it_works_book" viewBox="0 0 32 32">
<path d="M8.669 21.333c1.044 0 2.061 0.117 3.050 0.35s1.972 0.583 2.95 1.050v-13.133c-0.911-0.533-1.878-0.933-2.9-1.2s-2.056-0.4-3.1-0.4c-0.8 0-1.594 0.078-2.383 0.233s-1.55 0.389-2.283 0.7v13.2c0.778-0.267 1.55-0.467 2.317-0.6s1.55-0.2 2.35-0.2zM17.336 22.733c0.978-0.467 1.961-0.817 2.95-1.050s2.006-0.35 3.050-0.35c0.8 0 1.583 0.067 2.35 0.2s1.539 0.333 2.317 0.6v-13.2c-0.733-0.311-1.494-0.544-2.283-0.7s-1.583-0.233-2.383-0.233c-1.044 0-2.078 0.133-3.1 0.4s-1.989 0.667-2.9 1.2v13.133zM16.003 26.666c-1.067-0.844-2.222-1.5-3.467-1.967s-2.533-0.7-3.867-0.7c-0.933 0-1.85 0.122-2.75 0.367s-1.761 0.589-2.583 1.033c-0.467 0.244-0.917 0.233-1.35-0.033s-0.65-0.655-0.65-1.167v-16.067c0-0.244 0.061-0.478 0.183-0.7s0.306-0.389 0.55-0.5c1.022-0.533 2.089-0.933 3.2-1.2s2.244-0.4 3.4-0.4c1.289 0 2.55 0.167 3.783 0.5s2.417 0.833 3.55 1.5c1.133-0.667 2.317-1.167 3.55-1.5s2.494-0.5 3.783-0.5c1.156 0 2.289 0.133 3.4 0.4s2.178 0.667 3.2 1.2c0.244 0.111 0.428 0.278 0.55 0.5s0.183 0.456 0.183 0.7v16.067c0 0.511-0.217 0.9-0.65 1.167s-0.883 0.278-1.35 0.033c-0.822-0.445-1.683-0.789-2.583-1.033s-1.817-0.367-2.75-0.367c-1.333 0-2.622 0.233-3.867 0.7s-2.4 1.122-3.467 1.967z"></path>
</symbol>
<symbol id="icon-how_it_works_list" viewBox="0 0 32 32">
<path d="M9.333 12v-2.667h18.667v2.667h-18.667zM9.333 17.334v-2.667h18.667v2.667h-18.667zM9.333 22.667v-2.667h18.667v2.667h-18.667zM5.333 12c-0.378 0-0.694-0.128-0.95-0.383s-0.383-0.572-0.383-0.95c0-0.378 0.128-0.694 0.383-0.95s0.572-0.383 0.95-0.383c0.378 0 0.694 0.128 0.95 0.383s0.383 0.572 0.383 0.95c0 0.378-0.128 0.694-0.383 0.95s-0.572 0.383-0.95 0.383zM5.333 17.334c-0.378 0-0.694-0.128-0.95-0.383s-0.383-0.572-0.383-0.95c0-0.378 0.128-0.694 0.383-0.95s0.572-0.383 0.95-0.383 0.694 0.128 0.95 0.383c0.256 0.255 0.383 0.572 0.383 0.95s-0.128 0.694-0.383 0.95c-0.256 0.256-0.572 0.383-0.95 0.383zM5.333 22.667c-0.378 0-0.694-0.128-0.95-0.383s-0.383-0.572-0.383-0.95c0-0.378 0.128-0.694 0.383-0.95s0.572-0.383 0.95-0.383c0.378 0 0.694 0.128 0.95 0.383s0.383 0.572 0.383 0.95c0 0.378-0.128 0.694-0.383 0.95s-0.572 0.383-0.95 0.383z"></path>
</symbol>
<symbol id="icon-how_it_works_pencil" viewBox="0 0 32 32">
<path d="M5.568 28c-0.467 0.111-0.872-0.006-1.217-0.35s-0.461-0.75-0.35-1.217l1.333-6.367 6.6 6.6-6.367 1.333zM11.935 26.666l-6.6-6.6 15.267-15.267c0.511-0.511 1.144-0.767 1.9-0.767s1.389 0.256 1.9 0.767l2.8 2.8c0.511 0.511 0.767 1.144 0.767 1.9s-0.256 1.389-0.767 1.9l-15.267 15.267zM22.502 6.667l-13.8 13.8 2.833 2.833 13.8-13.8-2.833-2.833z"></path>
</symbol>
<symbol id="icon-image_FILL0_wght400_GRAD0_opsz16" viewBox="0 0 32 32">
<path d="M7.216 27.153c-0.69 0-1.281-0.246-1.773-0.737s-0.737-1.082-0.737-1.772v-17.569c0-0.69 0.246-1.281 0.737-1.773s1.082-0.737 1.773-0.737h17.569c0.69 0 1.281 0.246 1.772 0.737s0.737 1.082 0.737 1.773v17.569c0 0.69-0.246 1.281-0.737 1.772s-1.082 0.737-1.772 0.737h-17.569zM7.216 24.643h17.569v-17.569h-17.569v17.569zM8.471 22.133h15.059l-4.706-6.274-3.765 5.020-2.824-3.765-3.765 5.020z"></path>
</symbol>
<symbol id="icon-image_FILL0_wght400_GRAD0_opsz24" viewBox="0 0 32 32">
<path d="M7.040 27.424c-0.704 0-1.307-0.251-1.808-0.752s-0.752-1.104-0.752-1.808v-17.92c0-0.704 0.251-1.307 0.752-1.808s1.104-0.752 1.808-0.752h17.92c0.704 0 1.307 0.251 1.808 0.752s0.752 1.104 0.752 1.808v17.92c0 0.704-0.251 1.307-0.752 1.808s-1.104 0.752-1.808 0.752h-17.92zM7.040 24.864h17.92v-17.92h-17.92v17.92zM8.32 22.304h15.36l-4.8-6.4-3.84 5.12-2.88-3.84-3.84 5.12z"></path>
</symbol>
<symbol id="icon-image_FILL0_wght400_GRAD0_opsz32" viewBox="0 0 32 32">
<path d="M6.949 27.563c-0.711 0-1.32-0.253-1.826-0.76s-0.76-1.115-0.76-1.826v-18.101c0-0.711 0.253-1.32 0.76-1.826s1.115-0.76 1.826-0.76h18.101c0.711 0 1.32 0.253 1.826 0.76s0.76 1.115 0.76 1.826v18.101c0 0.711-0.253 1.32-0.76 1.826s-1.115 0.76-1.826 0.76h-18.101zM6.949 24.978h18.101v-18.101h-18.101v18.101zM8.242 22.392h15.515l-4.849-6.465-3.879 5.172-2.909-3.879-3.879 5.172z"></path>
</symbol>
<symbol id="icon-import" viewBox="0 0 32 32">
<path d="M16.003 21.333l-6.667-6.667 1.867-1.933 3.467 3.467v-10.867h2.667v10.867l3.467-3.467 1.867 1.933-6.667 6.667zM8.003 26.666c-0.733 0-1.361-0.261-1.883-0.783s-0.783-1.15-0.783-1.883v-4h2.667v4h16v-4h2.667v4c0 0.733-0.261 1.361-0.783 1.883s-1.15 0.783-1.883 0.783h-16z"></path>
</symbol>
<symbol id="icon-import_contacts_FILL0_wght400_GRAD0_opsz16-1" viewBox="0 0 32 32">
<path d="M9.101 20.879c0.983 0 1.94 0.11 2.871 0.329s1.856 0.549 2.776 0.988v-12.361c-0.858-0.502-1.767-0.878-2.729-1.129s-1.935-0.376-2.918-0.376c-0.753 0-1.501 0.073-2.243 0.22s-1.459 0.366-2.149 0.659v12.424c0.732-0.251 1.459-0.439 2.18-0.565s1.459-0.188 2.212-0.188zM17.257 22.196c0.92-0.439 1.846-0.769 2.777-0.988s1.887-0.329 2.871-0.329c0.753 0 1.49 0.063 2.212 0.188s1.448 0.314 2.18 0.565v-12.424c-0.69-0.293-1.407-0.512-2.149-0.659s-1.49-0.22-2.243-0.22c-0.983 0-1.956 0.126-2.918 0.376s-1.872 0.627-2.729 1.129v12.361zM16.002 25.898c-1.004-0.795-2.091-1.412-3.263-1.851s-2.384-0.659-3.639-0.659c-0.878 0-1.741 0.115-2.588 0.345s-1.658 0.554-2.431 0.972c-0.439 0.23-0.863 0.22-1.271-0.031s-0.612-0.617-0.612-1.098v-15.121c0-0.23 0.058-0.45 0.173-0.659s0.288-0.366 0.518-0.471c0.962-0.502 1.966-0.878 3.012-1.129s2.112-0.376 3.2-0.376c1.213 0 2.4 0.157 3.561 0.471s2.275 0.784 3.341 1.412c1.067-0.627 2.18-1.098 3.341-1.412s2.348-0.471 3.561-0.471c1.087 0 2.154 0.125 3.2 0.376s2.050 0.627 3.012 1.129c0.23 0.105 0.403 0.261 0.518 0.471s0.172 0.429 0.172 0.659v15.121c0 0.481-0.204 0.847-0.612 1.098s-0.831 0.261-1.271 0.031c-0.774-0.418-1.584-0.742-2.431-0.972s-1.71-0.345-2.588-0.345c-1.255 0-2.468 0.22-3.639 0.659s-2.259 1.056-3.263 1.851z"></path>
</symbol>
<symbol id="icon-import_contacts_FILL0_wght400_GRAD0_opsz24-1" viewBox="0 0 32 32">
<path d="M8.96 21.024c1.003 0 1.979 0.112 2.928 0.336s1.893 0.56 2.832 1.008v-12.608c-0.875-0.512-1.803-0.896-2.784-1.152s-1.973-0.384-2.976-0.384c-0.768 0-1.531 0.075-2.288 0.224s-1.488 0.373-2.192 0.672v12.672c0.747-0.256 1.488-0.448 2.224-0.576s1.488-0.192 2.256-0.192zM17.28 22.368c0.939-0.448 1.883-0.784 2.832-1.008s1.925-0.336 2.928-0.336c0.768 0 1.52 0.064 2.256 0.192s1.477 0.32 2.224 0.576v-12.672c-0.704-0.299-1.435-0.523-2.192-0.672s-1.52-0.224-2.288-0.224c-1.003 0-1.995 0.128-2.976 0.384s-1.909 0.64-2.784 1.152v12.608zM16 26.144c-1.024-0.811-2.133-1.44-3.328-1.888s-2.432-0.672-3.712-0.672c-0.896 0-1.776 0.117-2.64 0.352s-1.691 0.565-2.48 0.992c-0.448 0.235-0.88 0.224-1.296-0.032s-0.624-0.629-0.624-1.12v-15.424c0-0.235 0.059-0.459 0.176-0.672s0.293-0.373 0.528-0.48c0.981-0.512 2.005-0.896 3.072-1.152s2.155-0.384 3.264-0.384c1.237 0 2.448 0.16 3.632 0.48s2.32 0.8 3.408 1.44c1.088-0.64 2.224-1.12 3.408-1.44s2.395-0.48 3.632-0.48c1.109 0 2.197 0.128 3.264 0.384s2.091 0.64 3.072 1.152c0.235 0.107 0.411 0.267 0.528 0.48s0.176 0.437 0.176 0.672v15.424c0 0.491-0.208 0.864-0.624 1.12s-0.848 0.267-1.296 0.032c-0.789-0.427-1.616-0.757-2.48-0.992s-1.744-0.352-2.64-0.352c-1.28 0-2.517 0.224-3.712 0.672s-2.304 1.077-3.328 1.888z"></path>
</symbol>
<symbol id="icon-import_contacts_FILL0_wght400_GRAD0_opsz32-1" viewBox="0 0 32 32">
<path d="M8.888 21.098c1.013 0 1.999 0.113 2.958 0.339s1.912 0.566 2.861 1.018v-12.735c-0.883-0.517-1.821-0.905-2.812-1.164s-1.993-0.388-3.006-0.388c-0.776 0-1.546 0.075-2.311 0.226s-1.503 0.377-2.214 0.679v12.8c0.754-0.259 1.503-0.453 2.246-0.582s1.503-0.194 2.279-0.194zM17.292 22.456c0.948-0.453 1.902-0.792 2.861-1.018s1.945-0.339 2.958-0.339c0.776 0 1.535 0.065 2.279 0.194s1.492 0.323 2.247 0.582v-12.8c-0.711-0.302-1.449-0.528-2.214-0.679s-1.535-0.226-2.311-0.226c-1.013 0-2.015 0.129-3.006 0.388s-1.929 0.646-2.812 1.164v12.735zM15.999 26.27c-1.034-0.819-2.155-1.455-3.362-1.907s-2.457-0.679-3.749-0.679c-0.905 0-1.794 0.119-2.667 0.355s-1.708 0.571-2.505 1.002c-0.453 0.237-0.889 0.226-1.309-0.032s-0.63-0.636-0.63-1.131v-15.58c0-0.237 0.059-0.463 0.178-0.679s0.296-0.377 0.533-0.485c0.991-0.517 2.026-0.905 3.103-1.164s2.176-0.388 3.297-0.388c1.25 0 2.473 0.162 3.669 0.485s2.343 0.808 3.442 1.455c1.099-0.646 2.247-1.131 3.442-1.455s2.419-0.485 3.669-0.485c1.121 0 2.22 0.129 3.297 0.388s2.112 0.646 3.103 1.164c0.237 0.108 0.415 0.269 0.533 0.485s0.178 0.442 0.178 0.679v15.58c0 0.496-0.21 0.873-0.63 1.131s-0.857 0.269-1.309 0.032c-0.797-0.431-1.632-0.765-2.505-1.002s-1.762-0.355-2.667-0.355c-1.293 0-2.543 0.226-3.749 0.679s-2.327 1.088-3.362 1.907z"></path>
</symbol>
<symbol id="icon-ios_share_FILL0_wght400_GRAD0_opsz16-1" viewBox="0 0 32 32">
<path d="M8.471 29.662c-0.69 0-1.281-0.246-1.773-0.737s-0.737-1.082-0.737-1.773v-13.804c0-0.69 0.246-1.281 0.737-1.773s1.082-0.737 1.773-0.737h3.765v2.51h-3.765v13.804h15.059v-13.804h-3.765v-2.51h3.765c0.69 0 1.281 0.246 1.773 0.737s0.737 1.082 0.737 1.773v13.804c0 0.69-0.246 1.281-0.737 1.773s-1.082 0.737-1.773 0.737h-15.059zM14.746 20.878v-14.024l-2.008 2.008-1.757-1.788 5.020-5.020 5.020 5.020-1.757 1.788-2.008-2.008v14.023h-2.51z"></path>
</symbol>
<symbol id="icon-ios_share_FILL0_wght400_GRAD0_opsz24-1" viewBox="0 0 32 32">
<path d="M8.32 29.984c-0.704 0-1.307-0.251-1.808-0.752s-0.752-1.104-0.752-1.808v-14.080c0-0.704 0.251-1.307 0.752-1.808s1.104-0.752 1.808-0.752h3.84v2.56h-3.84v14.080h15.36v-14.080h-3.84v-2.56h3.84c0.704 0 1.307 0.251 1.808 0.752s0.752 1.104 0.752 1.808v14.080c0 0.704-0.251 1.307-0.752 1.808s-1.104 0.752-1.808 0.752h-15.36zM14.72 21.024v-14.304l-2.048 2.048-1.792-1.824 5.12-5.12 5.12 5.12-1.792 1.824-2.048-2.048v14.304h-2.56z"></path>
</symbol>
<symbol id="icon-ios_share_FILL0_wght400_GRAD0_opsz32-1" viewBox="0 0 32 32">
<path d="M8.242 30.149c-0.711 0-1.32-0.253-1.826-0.76s-0.76-1.115-0.76-1.826v-14.222c0-0.711 0.253-1.32 0.76-1.826s1.115-0.76 1.826-0.76h3.879v2.586h-3.879v14.222h15.515v-14.222h-3.879v-2.586h3.879c0.711 0 1.32 0.253 1.826 0.76s0.76 1.115 0.76 1.826v14.222c0 0.711-0.253 1.32-0.76 1.826s-1.115 0.76-1.826 0.76h-15.515zM14.707 21.099v-14.448l-2.069 2.069-1.81-1.842 5.172-5.172 5.172 5.172-1.81 1.842-2.069-2.069v14.448h-2.586z"></path>
</symbol>
<symbol id="icon-iPad" viewBox="0 0 32 32">
<path d="M6.215 9.28h19.84c1.414 0 2.56 1.146 2.56 2.56v12.16c0 1.414-1.146 2.56-2.56 2.56h-19.84c-1.414 0-2.56-1.146-2.56-2.56v-12.16c0-1.414 1.146-2.56 2.56-2.56z"></path>
<path d="M13.255 22.72h5.76c0.53 0 0.96 0.43 0.96 0.96s-0.43 0.96-0.96 0.96h-5.76c-0.53 0-0.96-0.43-0.96-0.96s0.43-0.96 0.96-0.96z"></path>
</symbol>
<symbol id="icon-iPhone" viewBox="0 0 32 32">
<path d="M10.667 4h8.667c1.473 0 2.667 1.194 2.667 2.667v17.667c0 1.473-1.194 2.667-2.667 2.667h-8.667c-1.473 0-2.667-1.194-2.667-2.667v-17.667c0-1.473 1.194-2.667 2.667-2.667z"></path>
<path d="M13 6h4c0.552 0 1 0.448 1 1s-0.448 1-1 1h-4c-0.552 0-1-0.448-1-1s0.448-1 1-1z"></path>
<path d="M11 23h8c0.552 0 1 0.448 1 1s-0.448 1-1 1h-8c-0.552 0-1-0.448-1-1s0.448-1 1-1z"></path>
</symbol>

<symbol id="icon-list_alt_FILL0_wght400_GRAD0_opsz16" viewBox="0 0 32 32">
<path d="M10.98 22.133c0.356 0 0.654-0.12 0.894-0.361s0.361-0.539 0.361-0.894-0.12-0.654-0.361-0.894c-0.241-0.241-0.539-0.361-0.894-0.361s-0.654 0.12-0.894 0.361c-0.241 0.24-0.361 0.539-0.361 0.894s0.12 0.654 0.361 0.894c0.241 0.24 0.539 0.361 0.894 0.361zM10.98 17.113c0.356 0 0.654-0.12 0.894-0.361s0.361-0.539 0.361-0.894c0-0.356-0.12-0.654-0.361-0.894s-0.539-0.361-0.894-0.361c-0.356 0-0.654 0.12-0.894 0.361s-0.361 0.539-0.361 0.894c0 0.356 0.12 0.654 0.361 0.894s0.539 0.361 0.894 0.361zM10.98 12.094c0.356 0 0.654-0.12 0.894-0.361s0.361-0.539 0.361-0.894c0-0.356-0.12-0.654-0.361-0.894s-0.539-0.361-0.894-0.361c-0.356 0-0.654 0.12-0.894 0.361s-0.361 0.539-0.361 0.894c0 0.356 0.12 0.654 0.361 0.894s0.539 0.361 0.894 0.361zM14.745 22.133h7.529v-2.51h-7.529v2.51zM14.745 17.113h7.529v-2.51h-7.529v2.51zM14.745 12.094h7.529v-2.51h-7.529v2.51zM7.216 27.153c-0.69 0-1.281-0.246-1.773-0.737s-0.737-1.082-0.737-1.772v-17.569c0-0.69 0.246-1.281 0.737-1.773s1.082-0.737 1.773-0.737h17.569c0.69 0 1.281 0.246 1.772 0.737s0.737 1.082 0.737 1.773v17.569c0 0.69-0.246 1.281-0.737 1.772s-1.082 0.737-1.772 0.737h-17.569zM7.216 24.643h17.569v-17.569h-17.569v17.569z"></path>
</symbol>
<symbol id="icon-list_alt_FILL0_wght400_GRAD0_opsz24" viewBox="0 0 32 32">
<path d="M10.88 22.304c0.363 0 0.667-0.123 0.912-0.368s0.368-0.549 0.368-0.912c0-0.363-0.123-0.667-0.368-0.912s-0.549-0.368-0.912-0.368c-0.363 0-0.667 0.123-0.912 0.368s-0.368 0.549-0.368 0.912c0 0.363 0.123 0.667 0.368 0.912s0.549 0.368 0.912 0.368zM10.88 17.184c0.363 0 0.667-0.123 0.912-0.368s0.368-0.549 0.368-0.912c0-0.363-0.123-0.667-0.368-0.912s-0.549-0.368-0.912-0.368c-0.363 0-0.667 0.123-0.912 0.368s-0.368 0.549-0.368 0.912c0 0.363 0.123 0.667 0.368 0.912s0.549 0.368 0.912 0.368zM10.88 12.064c0.363 0 0.667-0.123 0.912-0.368s0.368-0.549 0.368-0.912c0-0.363-0.123-0.667-0.368-0.912s-0.549-0.368-0.912-0.368c-0.363 0-0.667 0.123-0.912 0.368s-0.368 0.549-0.368 0.912c0 0.363 0.123 0.667 0.368 0.912s0.549 0.368 0.912 0.368zM14.72 22.304h7.68v-2.56h-7.68v2.56zM14.72 17.184h7.68v-2.56h-7.68v2.56zM14.72 12.064h7.68v-2.56h-7.68v2.56zM7.040 27.424c-0.704 0-1.307-0.251-1.808-0.752s-0.752-1.104-0.752-1.808v-17.92c0-0.704 0.251-1.307 0.752-1.808s1.104-0.752 1.808-0.752h17.92c0.704 0 1.307 0.251 1.808 0.752s0.752 1.104 0.752 1.808v17.92c0 0.704-0.251 1.307-0.752 1.808s-1.104 0.752-1.808 0.752h-17.92zM7.040 24.864h17.92v-17.92h-17.92v17.92z"></path>
</symbol>
<symbol id="icon-list_alt_FILL0_wght400_GRAD0_opsz32" viewBox="0 0 32 32">
<path d="M10.828 22.392c0.366 0 0.673-0.124 0.921-0.372s0.372-0.555 0.372-0.921c0-0.366-0.124-0.673-0.372-0.921s-0.555-0.372-0.921-0.372c-0.366 0-0.673 0.124-0.921 0.372s-0.372 0.555-0.372 0.921c0 0.366 0.124 0.673 0.372 0.921s0.555 0.372 0.921 0.372zM10.828 17.22c0.366 0 0.673-0.124 0.921-0.372s0.372-0.555 0.372-0.921-0.124-0.673-0.372-0.921c-0.248-0.248-0.555-0.372-0.921-0.372s-0.673 0.124-0.921 0.372c-0.248 0.248-0.372 0.555-0.372 0.921s0.124 0.673 0.372 0.921c0.248 0.248 0.555 0.372 0.921 0.372zM10.828 12.048c0.366 0 0.673-0.124 0.921-0.372s0.372-0.555 0.372-0.921c0-0.366-0.124-0.673-0.372-0.921s-0.555-0.372-0.921-0.372c-0.366 0-0.673 0.124-0.921 0.372s-0.372 0.555-0.372 0.921c0 0.366 0.124 0.673 0.372 0.921s0.555 0.372 0.921 0.372zM14.707 22.392h7.758v-2.586h-7.758v2.586zM14.707 17.22h7.758v-2.586h-7.758v2.586zM14.707 12.048h7.758v-2.586h-7.758v2.586zM6.949 27.563c-0.711 0-1.32-0.253-1.826-0.76s-0.76-1.115-0.76-1.826v-18.101c0-0.711 0.253-1.32 0.76-1.826s1.115-0.76 1.826-0.76h18.101c0.711 0 1.32 0.253 1.826 0.76s0.76 1.115 0.76 1.826v18.101c0 0.711-0.253 1.32-0.76 1.826s-1.115 0.76-1.826 0.76h-18.101zM6.949 24.978h18.101v-18.101h-18.101v18.101z"></path>
</symbol>
<symbol id="icon-list_FILL0_wght400_GRAD0_opsz16" viewBox="0 0 32 32">
<path d="M9.726 12.093v-2.51h17.569v2.51h-17.569zM9.726 17.113v-2.51h17.569v2.51h-17.569zM9.726 22.133v-2.51h17.569v2.51h-17.569zM5.961 12.093c-0.356 0-0.654-0.12-0.894-0.361s-0.361-0.539-0.361-0.894c0-0.356 0.12-0.654 0.361-0.894s0.539-0.361 0.894-0.361c0.356 0 0.654 0.12 0.894 0.361s0.361 0.539 0.361 0.894c0 0.356-0.12 0.654-0.361 0.894s-0.539 0.361-0.894 0.361zM5.961 17.113c-0.356 0-0.654-0.12-0.894-0.361s-0.361-0.539-0.361-0.894c0-0.356 0.12-0.654 0.361-0.894s0.539-0.361 0.894-0.361c0.356 0 0.654 0.12 0.894 0.361s0.361 0.539 0.361 0.894c0 0.356-0.12 0.654-0.361 0.894s-0.539 0.361-0.894 0.361zM5.961 22.133c-0.356 0-0.654-0.12-0.894-0.361s-0.361-0.539-0.361-0.894c0-0.356 0.12-0.654 0.361-0.894s0.539-0.361 0.894-0.361c0.356 0 0.654 0.12 0.894 0.361s0.361 0.539 0.361 0.894c0 0.356-0.12 0.654-0.361 0.894s-0.539 0.361-0.894 0.361z"></path>
</symbol>
<symbol id="icon-list_FILL0_wght400_GRAD0_opsz24" viewBox="0 0 32 32">
<path d="M9.6 12.064v-2.56h17.92v2.56h-17.92zM9.6 17.184v-2.56h17.92v2.56h-17.92zM9.6 22.304v-2.56h17.92v2.56h-17.92zM5.76 12.064c-0.363 0-0.667-0.123-0.912-0.368s-0.368-0.549-0.368-0.912c0-0.363 0.123-0.667 0.368-0.912s0.549-0.368 0.912-0.368c0.363 0 0.667 0.123 0.912 0.368s0.368 0.549 0.368 0.912c0 0.363-0.123 0.667-0.368 0.912s-0.549 0.368-0.912 0.368zM5.76 17.184c-0.363 0-0.667-0.123-0.912-0.368s-0.368-0.549-0.368-0.912c0-0.363 0.123-0.667 0.368-0.912s0.549-0.368 0.912-0.368c0.363 0 0.667 0.123 0.912 0.368s0.368 0.549 0.368 0.912c0 0.363-0.123 0.667-0.368 0.912s-0.549 0.368-0.912 0.368zM5.76 22.304c-0.363 0-0.667-0.123-0.912-0.368s-0.368-0.549-0.368-0.912c0-0.363 0.123-0.667 0.368-0.912s0.549-0.368 0.912-0.368c0.363 0 0.667 0.123 0.912 0.368s0.368 0.549 0.368 0.912c0 0.363-0.123 0.667-0.368 0.912s-0.549 0.368-0.912 0.368z"></path>
</symbol>
<symbol id="icon-list_FILL0_wght400_GRAD0_opsz32" viewBox="0 0 32 32">
<path d="M9.535 12.049v-2.586h18.101v2.586h-18.101zM9.535 17.22v-2.586h18.101v2.586h-18.101zM9.535 22.392v-2.586h18.101v2.586h-18.101zM5.657 12.049c-0.366 0-0.673-0.124-0.921-0.372s-0.372-0.555-0.372-0.921c0-0.366 0.124-0.673 0.372-0.921s0.555-0.372 0.921-0.372 0.673 0.124 0.921 0.372c0.248 0.248 0.372 0.555 0.372 0.921s-0.124 0.673-0.372 0.921c-0.248 0.248-0.555 0.372-0.921 0.372zM5.657 17.22c-0.366 0-0.673-0.124-0.921-0.372s-0.372-0.555-0.372-0.921c0-0.366 0.124-0.673 0.372-0.921s0.555-0.372 0.921-0.372 0.673 0.124 0.921 0.372c0.248 0.248 0.372 0.555 0.372 0.921s-0.124 0.673-0.372 0.921c-0.248 0.248-0.555 0.372-0.921 0.372zM5.657 22.392c-0.366 0-0.673-0.124-0.921-0.372s-0.372-0.555-0.372-0.921c0-0.366 0.124-0.673 0.372-0.921s0.555-0.372 0.921-0.372c0.366 0 0.673 0.124 0.921 0.372s0.372 0.555 0.372 0.921c0 0.366-0.124 0.673-0.372 0.921s-0.555 0.372-0.921 0.372z"></path>
</symbol>
<symbol id="icon-logo" viewBox="0 0 32 32">
<path d="M3.628 17.040h-2.153c-0.032-0.001-0.063 0.004-0.093 0.015s-0.057 0.029-0.079 0.052c-0.023 0.023-0.041 0.050-0.053 0.080s-0.019 0.063-0.019 0.095c0 0.033 0.006 0.066 0.019 0.096s0.030 0.058 0.053 0.081c0.023 0.023 0.050 0.041 0.079 0.053s0.061 0.018 0.093 0.017h2.153c0.032 0.001 0.063-0.005 0.093-0.017s0.057-0.030 0.079-0.053c0.023-0.023 0.041-0.050 0.053-0.081s0.019-0.063 0.019-0.096c0-0.033-0.006-0.065-0.019-0.095s-0.030-0.057-0.053-0.080c-0.023-0.023-0.050-0.040-0.079-0.052s-0.061-0.017-0.093-0.015zM5.219 14.825v-1.382c-0-0.063-0.024-0.124-0.068-0.169s-0.102-0.070-0.163-0.070h-4.639c-0.061 0-0.12 0.025-0.163 0.070s-0.068 0.106-0.068 0.169v5.114c0 0.064 0.024 0.125 0.067 0.17s0.103 0.069 0.164 0.069h4.636c0.061-0 0.12-0.025 0.163-0.070s0.068-0.106 0.068-0.169v-1.382l0.969-1.007c0.043-0.045 0.067-0.107 0.067-0.17s-0.024-0.125-0.067-0.17l-0.966-1.003zM4.825 16.908c-0.043 0.045-0.067 0.107-0.067 0.17v1.243h-4.175v-4.639h4.175v1.243c0 0.064 0.024 0.125 0.067 0.17l0.872 0.906-0.872 0.906zM1.466 16.245h1.538c0.061 0 0.12-0.025 0.163-0.070s0.068-0.106 0.068-0.169c0-0.064-0.024-0.124-0.068-0.169s-0.102-0.070-0.163-0.070h-1.538c-0.061 0-0.12 0.025-0.163 0.070s-0.068 0.106-0.068 0.169c0 0.064 0.024 0.124 0.068 0.169s0.102 0.070 0.163 0.070zM8.301 14.97h2.015c0.032 0.001 0.063-0.004 0.093-0.015s0.057-0.029 0.079-0.052c0.023-0.023 0.041-0.050 0.053-0.080s0.019-0.063 0.019-0.095c-0-0.033-0.006-0.066-0.019-0.096s-0.030-0.058-0.053-0.081c-0.023-0.023-0.050-0.041-0.079-0.053s-0.061-0.018-0.093-0.017h-2.015c-0.063 0-0.122 0.026-0.167 0.072s-0.069 0.108-0.069 0.173c0 0.065 0.025 0.127 0.069 0.173s0.104 0.072 0.167 0.072zM8.294 16.245h1.451c0.061 0 0.12-0.025 0.163-0.070s0.068-0.106 0.068-0.169c0-0.064-0.024-0.124-0.068-0.169s-0.102-0.070-0.163-0.070h-1.451c-0.061 0-0.12 0.025-0.163 0.070s-0.068 0.106-0.068 0.169c0 0.064 0.024 0.124 0.068 0.169s0.102 0.070 0.163 0.070zM1.476 14.97h2.102c0.032 0.001 0.063-0.004 0.093-0.015s0.057-0.029 0.079-0.052c0.023-0.023 0.041-0.050 0.053-0.080s0.019-0.063 0.019-0.095c-0-0.033-0.006-0.066-0.019-0.096s-0.030-0.058-0.053-0.081c-0.023-0.023-0.050-0.041-0.079-0.053s-0.061-0.018-0.093-0.017h-2.102c-0.032-0.001-0.063 0.005-0.093 0.017s-0.056 0.030-0.079 0.053c-0.023 0.023-0.041 0.050-0.053 0.081s-0.019 0.063-0.019 0.096c-0 0.033 0.006 0.065 0.019 0.095s0.031 0.057 0.053 0.080c0.023 0.023 0.050 0.040 0.079 0.052s0.061 0.017 0.093 0.015zM19.301 14.609c-0.017-0.054-0.051-0.101-0.096-0.134s-0.099-0.049-0.154-0.047c-0.114 0-0.197 0.063-0.244 0.181l-1.043 2.562c-0.024 0.046-0.036 0.097-0.037 0.149 0 0.035 0.007 0.069 0.020 0.101s0.032 0.061 0.056 0.085c0.024 0.024 0.052 0.043 0.083 0.056s0.064 0.019 0.098 0.018c0.117 0 0.201-0.066 0.244-0.188l0.164-0.403h1.32l0.17 0.403c0.050 0.125 0.134 0.188 0.244 0.188 0.067 0 0.132-0.027 0.18-0.075s0.076-0.115 0.077-0.185c-0.003-0.052-0.015-0.103-0.037-0.149l-1.046-2.562zM18.575 16.523l0.478-1.278 0.468 1.278h-0.946zM24.916 14.429c-0.035-0.001-0.069 0.005-0.102 0.019s-0.061 0.034-0.086 0.059c-0.024 0.026-0.043 0.056-0.056 0.090s-0.018 0.070-0.017 0.106v2.604c0 0.072 0.027 0.141 0.076 0.192s0.115 0.079 0.184 0.079c0.069 0 0.135-0.029 0.184-0.079s0.076-0.12 0.076-0.192v-2.604c0.001-0.036-0.004-0.072-0.017-0.106s-0.032-0.064-0.056-0.090c-0.025-0.026-0.054-0.046-0.086-0.059s-0.067-0.020-0.102-0.019zM10.37 17.040h-2.066c-0.032-0.001-0.063 0.004-0.093 0.015s-0.057 0.029-0.079 0.052c-0.023 0.023-0.041 0.050-0.053 0.080s-0.019 0.063-0.019 0.095c0 0.033 0.006 0.066 0.019 0.096s0.030 0.058 0.053 0.081c0.023 0.023 0.050 0.041 0.079 0.053s0.061 0.018 0.093 0.017h2.066c0.063 0 0.122-0.026 0.167-0.072s0.069-0.108 0.069-0.173c0-0.065-0.025-0.127-0.069-0.173s-0.104-0.072-0.167-0.072zM31.571 14.477h-2.022c-0.032-0.001-0.063 0.005-0.093 0.017s-0.057 0.030-0.079 0.053c-0.023 0.023-0.041 0.050-0.053 0.081s-0.019 0.063-0.019 0.096c0 0.033 0.006 0.065 0.019 0.095s0.031 0.057 0.053 0.080c0.023 0.023 0.050 0.040 0.079 0.052s0.061 0.017 0.092 0.015h0.749v2.34c0 0.072 0.027 0.141 0.076 0.192s0.115 0.079 0.184 0.079c0.069 0 0.135-0.029 0.184-0.079s0.076-0.12 0.076-0.192v-2.337h0.752c0.032 0.001 0.063-0.004 0.093-0.015s0.057-0.029 0.079-0.052c0.023-0.023 0.041-0.050 0.053-0.080s0.019-0.063 0.019-0.095c0-0.033-0.006-0.066-0.018-0.097s-0.030-0.058-0.053-0.082-0.050-0.042-0.079-0.054c-0.029-0.012-0.061-0.018-0.093-0.018zM27.71 15.807l-0.324-0.153c-0.311-0.153-0.384-0.229-0.384-0.399 0-0.201 0.16-0.333 0.408-0.333 0.184 0 0.348 0.076 0.501 0.236 0.043 0.044 0.1 0.070 0.16 0.073 0.127 0 0.244-0.115 0.244-0.243-0.001-0.072-0.028-0.14-0.077-0.191-0.147-0.17-0.411-0.368-0.826-0.365-0.541 0-0.936 0.354-0.936 0.84 0 0.361 0.214 0.625 0.688 0.858l0.318 0.153c0.321 0.153 0.408 0.247 0.408 0.42 0 0.236-0.184 0.389-0.468 0.389-0.307 0-0.521-0.184-0.645-0.34-0.020-0.023-0.045-0.042-0.073-0.055s-0.058-0.019-0.088-0.018c-0.032-0.001-0.063 0.005-0.093 0.017s-0.056 0.030-0.079 0.053-0.041 0.050-0.053 0.081c-0.012 0.030-0.019 0.063-0.019 0.096 0.002 0.070 0.030 0.137 0.077 0.188 0.224 0.285 0.608 0.469 0.979 0.469 0.585 0 0.993-0.368 0.993-0.896-0.003-0.382-0.21-0.639-0.712-0.878zM12.877 15.807l-0.324-0.153c-0.311-0.153-0.384-0.229-0.384-0.399 0-0.201 0.16-0.333 0.408-0.333 0.184 0 0.348 0.076 0.501 0.236 0.043 0.044 0.1 0.070 0.16 0.073 0.127 0 0.244-0.115 0.244-0.243-0.001-0.072-0.029-0.14-0.077-0.191-0.147-0.17-0.411-0.368-0.826-0.365-0.541 0-0.936 0.354-0.936 0.84 0 0.361 0.214 0.625 0.689 0.858l0.318 0.153c0.321 0.153 0.408 0.247 0.408 0.42 0 0.236-0.184 0.389-0.468 0.389-0.307 0-0.521-0.184-0.645-0.34-0.020-0.023-0.045-0.042-0.073-0.055s-0.058-0.019-0.088-0.018c-0.032-0.001-0.063 0.005-0.093 0.017s-0.056 0.030-0.079 0.053c-0.023 0.023-0.041 0.050-0.053 0.081s-0.019 0.063-0.019 0.096c0.002 0.070 0.030 0.137 0.077 0.188 0.227 0.285 0.608 0.469 0.979 0.469 0.585 0 0.993-0.368 0.993-0.896-0.003-0.382-0.211-0.639-0.712-0.878zM16.022 15.807l-0.324-0.153c-0.311-0.153-0.384-0.229-0.384-0.399 0-0.201 0.16-0.333 0.408-0.333 0.184 0 0.348 0.076 0.501 0.236 0.043 0.044 0.1 0.070 0.16 0.073 0.127 0 0.244-0.115 0.244-0.243-0.001-0.072-0.029-0.14-0.077-0.191-0.147-0.17-0.411-0.368-0.826-0.365-0.541 0-0.936 0.354-0.936 0.84 0 0.361 0.214 0.625 0.689 0.858l0.318 0.153c0.321 0.153 0.408 0.247 0.408 0.42 0 0.236-0.184 0.389-0.468 0.389-0.307 0-0.521-0.184-0.645-0.34-0.020-0.023-0.045-0.042-0.073-0.055s-0.058-0.019-0.088-0.018c-0.032-0.001-0.063 0.005-0.093 0.017s-0.056 0.030-0.079 0.053c-0.023 0.023-0.041 0.050-0.053 0.081s-0.019 0.063-0.019 0.096c0.002 0.070 0.030 0.137 0.077 0.188 0.224 0.285 0.608 0.469 0.979 0.469 0.585 0 0.993-0.368 0.993-0.896-0.003-0.382-0.211-0.639-0.712-0.878zM23.155 14.429c-0.107 0-0.184 0.049-0.247 0.156l-0.695 1.219-0.692-1.219c-0.064-0.111-0.134-0.156-0.247-0.156-0.033-0.001-0.067 0.004-0.098 0.016s-0.060 0.031-0.084 0.055c-0.024 0.024-0.043 0.053-0.056 0.085s-0.020 0.066-0.020 0.101c0.001 0.067 0.020 0.132 0.057 0.188l0.879 1.479v0.955c0 0.072 0.027 0.141 0.076 0.192s0.115 0.079 0.184 0.079c0.069 0 0.135-0.029 0.184-0.079s0.076-0.12 0.076-0.192v-0.944l0.882-1.489c0.037-0.054 0.057-0.118 0.057-0.184-0-0.035-0.007-0.069-0.020-0.101s-0.032-0.061-0.056-0.085c-0.024-0.024-0.052-0.043-0.083-0.056s-0.064-0.019-0.098-0.018z"></path>
</symbol>
<symbol id="icon-mac" viewBox="0 0 32 32">
<path d="M26.24 23.68c1.408 0 2.56-1.152 2.56-2.56v-12.8c0-1.408-1.152-2.56-2.56-2.56h-20.48c-1.408 0-2.56 1.152-2.56 2.56v12.8c0 1.408 1.152 2.56 2.56 2.56h-3.84c-0.704 0-1.28 0.576-1.28 1.28s0.576 1.28 1.28 1.28h28.16c0.704 0 1.28-0.576 1.28-1.28s-0.576-1.28-1.28-1.28h-3.84zM7.040 8.32h17.92c0.704 0 1.28 0.576 1.28 1.28v10.24c0 0.704-0.576 1.28-1.28 1.28h-17.92c-0.704 0-1.28-0.576-1.28-1.28v-10.24c0-0.704 0.576-1.28 1.28-1.28z"></path>
</symbol>
<symbol id="icon-mail_FILL0_wght400_GRAD0_opsz16" viewBox="0 0 32 32">
<path d="M5.958 25.898c-0.69 0-1.281-0.246-1.773-0.737s-0.737-1.082-0.737-1.773v-15.059c0-0.69 0.246-1.281 0.737-1.773s1.082-0.737 1.773-0.737h20.078c0.69 0 1.281 0.246 1.773 0.737s0.737 1.082 0.737 1.773v15.059c0 0.69-0.246 1.281-0.737 1.773s-1.082 0.737-1.773 0.737h-20.078zM15.998 17.114l-10.039-6.275v12.549h20.078v-12.549l-10.039 6.275zM15.998 14.604l10.039-6.274h-20.078l10.039 6.274zM5.958 10.839v-0z"></path>
</symbol>
<symbol id="icon-mail_FILL0_wght400_GRAD0_opsz24" viewBox="0 0 32 32">
<path d="M5.76 26.144c-0.704 0-1.307-0.251-1.808-0.752s-0.752-1.104-0.752-1.808v-15.36c0-0.704 0.251-1.307 0.752-1.808s1.104-0.752 1.808-0.752h20.48c0.704 0 1.307 0.251 1.808 0.752s0.752 1.104 0.752 1.808v15.36c0 0.704-0.251 1.307-0.752 1.808s-1.104 0.752-1.808 0.752h-20.48zM16 17.184l-10.24-6.4v12.8h20.48v-12.8l-10.24 6.4zM16 14.624l10.24-6.4h-20.48l10.24 6.4zM5.76 10.784v0z"></path>
</symbol>
<symbol id="icon-mail_FILL0_wght400_GRAD0_opsz32" viewBox="0 0 32 32">
<path d="M5.658 26.27c-0.711 0-1.32-0.253-1.826-0.76s-0.76-1.115-0.76-1.826v-15.515c0-0.711 0.253-1.32 0.76-1.826s1.115-0.76 1.826-0.76h20.687c0.711 0 1.32 0.253 1.826 0.76s0.76 1.115 0.76 1.826v15.515c0 0.711-0.253 1.32-0.76 1.826s-1.115 0.76-1.826 0.76h-20.687zM16.001 17.22l-10.343-6.465v12.929h20.687v-12.929l-10.343 6.465zM16.001 14.634l10.343-6.465h-20.687l10.343 6.465zM5.658 10.755v0z"></path>
</symbol>
<symbol id="icon-match_case_FILL0_wght400_GRAD0_opsz16" viewBox="0 0 32 32">
<path d="M5.926 22.134l4.706-12.549h2.259l4.706 12.549h-2.165l-1.129-3.2h-5.082l-1.129 3.2h-2.165zM9.879 17.114h3.765l-1.82-5.208h-0.126l-1.82 5.208zM21.456 22.479c-1.025 0-1.83-0.267-2.416-0.8s-0.878-1.26-0.878-2.18c0-0.878 0.34-1.595 1.020-2.149s1.553-0.831 2.62-0.831c0.481 0 0.925 0.037 1.333 0.11s0.758 0.193 1.051 0.361v-0.439c0-0.565-0.193-1.014-0.58-1.349s-0.915-0.502-1.584-0.502c-0.439 0-0.852 0.094-1.239 0.282s-0.716 0.46-0.988 0.816l-1.349-1.004c0.397-0.565 0.899-0.993 1.506-1.286s1.307-0.439 2.102-0.439c1.297 0 2.29 0.309 2.98 0.925s1.035 1.511 1.035 2.682v5.522h-1.851v-1.067h-0.094c-0.272 0.418-0.638 0.748-1.098 0.988s-0.983 0.361-1.569 0.361zM21.77 20.91c0.669 0 1.239-0.235 1.71-0.706s0.706-1.041 0.706-1.71c-0.293-0.167-0.627-0.293-1.004-0.376s-0.721-0.125-1.035-0.125c-0.669 0-1.182 0.131-1.537 0.392s-0.533 0.633-0.533 1.114c0 0.418 0.157 0.758 0.471 1.019s0.721 0.392 1.224 0.392z"></path>
</symbol>
<symbol id="icon-match_case_FILL0_wght400_GRAD0_opsz24" viewBox="0 0 32 32">
<path d="M5.73 22.304l4.8-12.8h2.304l4.8 12.8h-2.208l-1.152-3.264h-5.184l-1.152 3.264h-2.208zM9.762 17.184h3.84l-1.856-5.312h-0.128l-1.856 5.312zM21.57 22.656c-1.045 0-1.867-0.272-2.464-0.816s-0.896-1.285-0.896-2.224c0-0.896 0.347-1.627 1.040-2.192s1.584-0.848 2.672-0.848c0.491 0 0.944 0.037 1.36 0.112s0.773 0.197 1.072 0.368v-0.448c0-0.576-0.197-1.035-0.592-1.376s-0.933-0.512-1.616-0.512c-0.448 0-0.869 0.096-1.264 0.288s-0.731 0.469-1.008 0.832l-1.376-1.024c0.405-0.576 0.917-1.013 1.536-1.312s1.333-0.448 2.144-0.448c1.323 0 2.336 0.315 3.040 0.944s1.056 1.541 1.056 2.736v5.632h-1.888v-1.088h-0.096c-0.277 0.427-0.651 0.763-1.12 1.008s-1.003 0.368-1.6 0.368zM21.89 21.056c0.683 0 1.264-0.24 1.744-0.72s0.72-1.061 0.72-1.744c-0.299-0.171-0.64-0.299-1.024-0.384s-0.736-0.128-1.056-0.128c-0.683 0-1.205 0.133-1.568 0.4s-0.544 0.645-0.544 1.136c0 0.427 0.16 0.773 0.48 1.040s0.736 0.4 1.248 0.4z"></path>
</symbol>
<symbol id="icon-match_case_FILL0_wght400_GRAD0_opsz32" viewBox="0 0 32 32">
<path d="M5.625 22.391l4.848-12.929h2.327l4.849 12.929h-2.23l-1.164-3.297h-5.236l-1.164 3.297h-2.23zM9.698 17.22h3.879l-1.875-5.366h-0.129l-1.875 5.366zM21.625 22.747c-1.056 0-1.886-0.275-2.489-0.824s-0.905-1.298-0.905-2.247c0-0.905 0.35-1.643 1.050-2.214s1.6-0.857 2.699-0.857c0.496 0 0.954 0.038 1.374 0.113s0.781 0.199 1.083 0.372v-0.453c0-0.582-0.199-1.045-0.598-1.39s-0.943-0.517-1.632-0.517c-0.453 0-0.878 0.097-1.277 0.291s-0.738 0.474-1.018 0.84l-1.39-1.034c0.409-0.582 0.927-1.024 1.552-1.325s1.347-0.453 2.166-0.453c1.336 0 2.36 0.318 3.071 0.954s1.067 1.557 1.067 2.764v5.689h-1.907v-1.099h-0.097c-0.28 0.431-0.657 0.77-1.131 1.018s-1.013 0.372-1.616 0.372zM21.948 21.131c0.69 0 1.277-0.242 1.762-0.727s0.727-1.072 0.727-1.762c-0.302-0.172-0.646-0.302-1.034-0.388s-0.743-0.129-1.067-0.129c-0.69 0-1.217 0.135-1.584 0.404s-0.55 0.652-0.55 1.147c0 0.431 0.162 0.781 0.485 1.051s0.743 0.404 1.261 0.404z"></path>
</symbol>
<symbol id="icon-newsmode_FILL0_wght400_GRAD0_opsz16" viewBox="0 0 32 32">
<path d="M5.958 27.153c-0.69 0-1.281-0.246-1.773-0.737s-0.737-1.082-0.737-1.772v-17.569c0-0.69 0.246-1.281 0.737-1.773s1.082-0.737 1.773-0.737h20.078c0.69 0 1.281 0.246 1.773 0.737s0.737 1.082 0.737 1.773v17.569c0 0.69-0.246 1.281-0.737 1.772s-1.082 0.737-1.773 0.737h-20.078zM5.958 24.643h20.078v-17.569h-20.078v17.569zM8.468 22.133h15.059v-2.51h-15.059v2.51zM8.468 17.113h5.020v-7.529h-5.020v7.529zM15.998 17.113h7.529v-2.51h-7.529v2.51zM15.998 12.094h7.529v-2.51h-7.529v2.51z"></path>
</symbol>
<symbol id="icon-newsmode_FILL0_wght400_GRAD0_opsz24" viewBox="0 0 32 32">
<path d="M5.76 27.424c-0.704 0-1.307-0.251-1.808-0.752s-0.752-1.104-0.752-1.808v-17.92c0-0.704 0.251-1.307 0.752-1.808s1.104-0.752 1.808-0.752h20.48c0.704 0 1.307 0.251 1.808 0.752s0.752 1.104 0.752 1.808v17.92c0 0.704-0.251 1.307-0.752 1.808s-1.104 0.752-1.808 0.752h-20.48zM5.76 24.864h20.48v-17.92h-20.48v17.92zM8.32 22.304h15.36v-2.56h-15.36v2.56zM8.32 17.184h5.12v-7.68h-5.12v7.68zM16 17.184h7.68v-2.56h-7.68v2.56zM16 12.064h7.68v-2.56h-7.68v2.56z"></path>
</symbol>
<symbol id="icon-newsmode_FILL0_wght400_GRAD0_opsz32" viewBox="0 0 32 32">
<path d="M5.658 27.563c-0.711 0-1.32-0.253-1.826-0.76s-0.76-1.115-0.76-1.826v-18.101c0-0.711 0.253-1.32 0.76-1.826s1.115-0.76 1.826-0.76h20.687c0.711 0 1.32 0.253 1.826 0.76s0.76 1.115 0.76 1.826v18.101c0 0.711-0.253 1.32-0.76 1.826s-1.115 0.76-1.826 0.76h-20.687zM5.658 24.978h20.687v-18.101h-20.687v18.101zM8.244 22.392h15.515v-2.586h-15.515v2.586zM8.244 17.22h5.172v-7.758h-5.172v7.758zM16.001 17.22h7.758v-2.586h-7.758v2.586zM16.001 12.048h7.758v-2.586h-7.758v2.586z"></path>
</symbol>
<symbol id="icon-rocket_launch_FILL0_wght400_GRAD0_opsz16" viewBox="0 0 32 32">
<path d="M8.032 13.38l2.447 1.035c0.293-0.586 0.596-1.15 0.91-1.694s0.659-1.088 1.035-1.631l-1.757-0.345-2.635 2.635zM12.487 15.984l3.576 3.545c0.878-0.335 1.82-0.847 2.824-1.537s1.945-1.475 2.824-2.353c1.464-1.464 2.609-3.090 3.435-4.878s1.187-3.435 1.082-4.941c-1.506-0.105-3.158 0.256-4.957 1.082s-3.43 1.971-4.894 3.435c-0.878 0.878-1.663 1.82-2.353 2.824s-1.203 1.945-1.537 2.824zM18.072 13.945c-0.481-0.481-0.722-1.072-0.722-1.773s0.241-1.291 0.722-1.773c0.481-0.481 1.077-0.722 1.788-0.722s1.307 0.241 1.788 0.722c0.481 0.481 0.722 1.072 0.722 1.773s-0.241 1.291-0.722 1.773c-0.481 0.481-1.077 0.722-1.788 0.722s-1.307-0.241-1.788-0.722zM18.668 24.015l2.635-2.635-0.345-1.757c-0.544 0.376-1.088 0.716-1.631 1.019s-1.109 0.601-1.694 0.894l1.035 2.479zM28.487 3.529c0.397 2.531 0.152 4.993-0.737 7.388s-2.421 4.68-4.596 6.855l0.628 3.106c0.084 0.418 0.063 0.826-0.063 1.224s-0.335 0.743-0.627 1.035l-5.271 5.271-2.635-6.18-5.365-5.365-6.18-2.635 5.239-5.271c0.293-0.293 0.643-0.502 1.051-0.627s0.821-0.146 1.239-0.063l3.106 0.627c2.175-2.175 4.455-3.712 6.839-4.612s4.842-1.15 7.373-0.753zM5.868 20.847c0.732-0.732 1.626-1.103 2.682-1.114s1.95 0.35 2.682 1.082 1.093 1.626 1.082 2.682c-0.010 1.056-0.382 1.95-1.114 2.682-0.523 0.523-1.396 0.973-2.62 1.349s-2.912 0.711-5.067 1.004c0.293-2.154 0.627-3.843 1.004-5.067s0.826-2.097 1.349-2.619zM7.656 22.604c-0.209 0.209-0.418 0.591-0.627 1.145s-0.356 1.114-0.439 1.678c0.565-0.084 1.124-0.225 1.678-0.424s0.936-0.403 1.145-0.612c0.251-0.251 0.387-0.554 0.408-0.91s-0.094-0.659-0.345-0.91c-0.251-0.251-0.554-0.371-0.91-0.361s-0.659 0.141-0.91 0.392z"></path>
</symbol>
<symbol id="icon-rocket_launch_FILL0_wght400_GRAD0_opsz24" viewBox="0 0 32 32">
<path d="M7.873 13.376l2.496 1.056c0.299-0.597 0.608-1.173 0.928-1.728s0.672-1.109 1.056-1.664l-1.792-0.352-2.688 2.688zM12.417 16.032l3.648 3.616c0.896-0.341 1.856-0.864 2.88-1.568s1.984-1.504 2.88-2.4c1.493-1.493 2.661-3.152 3.504-4.976s1.211-3.504 1.104-5.040c-1.536-0.107-3.221 0.261-5.056 1.104s-3.499 2.011-4.992 3.504c-0.896 0.896-1.696 1.856-2.4 2.88s-1.227 1.984-1.568 2.88zM18.113 13.952c-0.491-0.491-0.736-1.093-0.736-1.808s0.245-1.317 0.736-1.808c0.491-0.491 1.099-0.736 1.824-0.736s1.333 0.245 1.824 0.736c0.491 0.491 0.736 1.093 0.736 1.808s-0.245 1.317-0.736 1.808c-0.491 0.491-1.099 0.736-1.824 0.736s-1.333-0.245-1.824-0.736zM18.721 24.224l2.688-2.688-0.352-1.792c-0.555 0.384-1.109 0.731-1.664 1.040s-1.131 0.613-1.728 0.912l1.056 2.528zM28.737 3.328c0.405 2.581 0.155 5.093-0.752 7.536s-2.469 4.773-4.688 6.992l0.64 3.168c0.085 0.427 0.064 0.843-0.064 1.248s-0.341 0.757-0.64 1.056l-5.376 5.376-2.688-6.304-5.472-5.472-6.304-2.688 5.344-5.376c0.299-0.299 0.656-0.512 1.072-0.64s0.837-0.149 1.264-0.064l3.168 0.64c2.219-2.219 4.544-3.787 6.976-4.704s4.939-1.173 7.52-0.768zM5.665 20.992c0.747-0.747 1.659-1.125 2.736-1.136s1.989 0.357 2.736 1.104c0.747 0.747 1.115 1.659 1.104 2.736s-0.389 1.989-1.136 2.736c-0.533 0.533-1.424 0.992-2.672 1.376s-2.971 0.725-5.168 1.024c0.299-2.197 0.64-3.92 1.024-5.168s0.843-2.139 1.376-2.672zM7.489 22.784c-0.213 0.213-0.427 0.603-0.64 1.168s-0.363 1.136-0.448 1.712c0.576-0.085 1.147-0.229 1.712-0.432s0.955-0.411 1.168-0.624c0.256-0.256 0.395-0.565 0.416-0.928s-0.096-0.672-0.352-0.928-0.565-0.379-0.928-0.368c-0.363 0.011-0.672 0.144-0.928 0.4z"></path>
</symbol>
<symbol id="icon-rocket_launch_FILL0_wght400_GRAD0_opsz32" viewBox="0 0 32 32">
<path d="M7.791 13.374l2.521 1.067c0.302-0.603 0.614-1.185 0.937-1.745s0.679-1.12 1.067-1.681l-1.81-0.356-2.715 2.715zM12.381 16.057l3.685 3.652c0.905-0.345 1.875-0.873 2.909-1.584s2.004-1.519 2.909-2.424c1.508-1.508 2.688-3.184 3.539-5.026s1.223-3.539 1.115-5.091c-1.552-0.108-3.254 0.264-5.107 1.115s-3.534 2.031-5.042 3.539c-0.905 0.905-1.713 1.875-2.424 2.909s-1.239 2.004-1.584 2.909zM18.134 13.956c-0.496-0.496-0.743-1.104-0.743-1.826s0.248-1.331 0.743-1.826c0.496-0.496 1.11-0.743 1.842-0.743s1.347 0.248 1.842 0.743c0.496 0.496 0.743 1.104 0.743 1.826s-0.248 1.331-0.743 1.826c-0.496 0.496-1.11 0.743-1.842 0.743s-1.347-0.248-1.842-0.743zM18.748 24.331l2.715-2.715-0.356-1.81c-0.56 0.388-1.12 0.738-1.681 1.051s-1.142 0.62-1.745 0.921l1.067 2.553zM28.866 3.224c0.409 2.607 0.156 5.145-0.76 7.612s-2.494 4.822-4.735 7.063l0.646 3.2c0.086 0.431 0.065 0.851-0.065 1.261s-0.345 0.765-0.646 1.067l-5.43 5.43-2.715-6.368-5.527-5.527-6.368-2.715 5.398-5.43c0.302-0.302 0.663-0.517 1.083-0.646s0.846-0.151 1.277-0.065l3.2 0.646c2.241-2.241 4.59-3.825 7.047-4.752s4.989-1.185 7.596-0.776zM5.561 21.067c0.754-0.754 1.675-1.137 2.764-1.147s2.009 0.361 2.764 1.115c0.754 0.754 1.126 1.675 1.115 2.764s-0.393 2.009-1.148 2.764c-0.539 0.539-1.438 1.002-2.699 1.39s-3.001 0.733-5.22 1.034c0.302-2.22 0.646-3.96 1.034-5.22s0.851-2.16 1.39-2.699zM7.403 22.877c-0.215 0.215-0.431 0.609-0.646 1.18s-0.366 1.147-0.453 1.729c0.582-0.086 1.158-0.232 1.729-0.436s0.964-0.415 1.18-0.63c0.259-0.259 0.399-0.571 0.42-0.937s-0.097-0.679-0.356-0.937c-0.259-0.259-0.571-0.383-0.937-0.372s-0.679 0.145-0.937 0.404z"></path>
</symbol>
<symbol id="icon-school_FILL0_wght400_GRAD0_opsz16" viewBox="0 0 32 32">
<path d="M16.002 27.153l-8.784-4.769v-7.529l-5.020-2.761 13.804-7.529 13.804 7.529v10.039h-2.51v-8.659l-2.51 1.38v7.529l-8.784 4.769zM16.002 16.737l8.596-4.643-8.596-4.643-8.596 4.643 8.596 4.643zM16.002 24.298l6.274-3.388v-4.737l-6.274 3.451-6.274-3.451v4.737l6.274 3.388z"></path>
</symbol>
<symbol id="icon-school_FILL0_wght400_GRAD0_opsz24" viewBox="0 0 32 32">
<path d="M16 27.424l-8.96-4.864v-7.68l-5.12-2.816 14.080-7.68 14.080 7.68v10.24h-2.56v-8.832l-2.56 1.408v7.68l-8.96 4.864zM16 16.8l8.768-4.736-8.768-4.736-8.768 4.736 8.768 4.736zM16 24.512l6.4-3.456v-4.832l-6.4 3.52-6.4-3.52v4.832l6.4 3.456z"></path>
</symbol>
<symbol id="icon-school_FILL0_wght400_GRAD0_opsz32" viewBox="0 0 32 32">
<path d="M15.999 27.563l-9.050-4.913v-7.758l-5.172-2.844 14.222-7.758 14.222 7.758v10.343h-2.586v-8.921l-2.586 1.422v7.758l-9.050 4.913zM15.999 16.832l8.857-4.784-8.857-4.784-8.857 4.784 8.857 4.784zM15.999 24.622l6.465-3.491v-4.881l-6.465 3.556-6.465-3.556v4.881l6.465 3.491z"></path>
</symbol>
<symbol id="icon-search_FILL0_wght400_GRAD0_opsz16" viewBox="0 0 32 32">
<path d="M25.537 27.153l-7.906-7.906c-0.627 0.502-1.349 0.899-2.165 1.192s-1.684 0.439-2.604 0.439c-2.28 0-4.209-0.79-5.788-2.369s-2.369-3.508-2.369-5.788 0.79-4.209 2.369-5.788c1.579-1.579 3.508-2.369 5.788-2.369s4.209 0.79 5.788 2.369c1.579 1.579 2.369 3.508 2.369 5.788 0 0.92-0.146 1.788-0.439 2.604s-0.69 1.537-1.192 2.165l7.906 7.906-1.757 1.757zM12.863 18.368c1.569 0 2.902-0.549 4-1.647s1.647-2.431 1.647-4c0-1.569-0.549-2.902-1.647-4s-2.431-1.647-4-1.647c-1.569 0-2.902 0.549-4 1.647s-1.647 2.431-1.647 4c0 1.569 0.549 2.902 1.647 4s2.431 1.647 4 1.647z"></path>
</symbol>
<symbol id="icon-search_FILL0_wght400_GRAD0_opsz24" viewBox="0 0 32 32">
<path d="M25.728 27.424l-8.064-8.064c-0.64 0.512-1.376 0.917-2.208 1.216s-1.717 0.448-2.656 0.448c-2.325 0-4.293-0.805-5.904-2.416s-2.416-3.579-2.416-5.904c0-2.325 0.805-4.293 2.416-5.904s3.579-2.416 5.904-2.416c2.325 0 4.293 0.805 5.904 2.416s2.416 3.579 2.416 5.904c0 0.939-0.149 1.824-0.448 2.656s-0.704 1.568-1.216 2.208l8.064 8.064-1.792 1.792zM12.8 18.464c1.6 0 2.96-0.56 4.080-1.68s1.68-2.48 1.68-4.080c0-1.6-0.56-2.96-1.68-4.080s-2.48-1.68-4.080-1.68c-1.6 0-2.96 0.56-4.080 1.68s-1.68 2.48-1.68 4.080c0 1.6 0.56 2.96 1.68 4.080s2.48 1.68 4.080 1.68z"></path>
</symbol>
<symbol id="icon-search_FILL0_wght400_GRAD0_opsz32" viewBox="0 0 32 32">
<path d="M25.826 27.563l-8.145-8.145c-0.646 0.517-1.39 0.927-2.23 1.228s-1.735 0.452-2.683 0.452c-2.349 0-4.337-0.813-5.964-2.44s-2.44-3.615-2.44-5.964c0-2.349 0.813-4.337 2.44-5.964s3.615-2.44 5.964-2.44c2.349 0 4.337 0.813 5.964 2.44s2.44 3.615 2.44 5.964c0 0.948-0.151 1.842-0.452 2.683s-0.711 1.584-1.228 2.23l8.145 8.145-1.81 1.81zM12.768 18.513c1.616 0 2.99-0.566 4.121-1.697s1.697-2.505 1.697-4.121c0-1.616-0.566-2.99-1.697-4.121s-2.505-1.697-4.121-1.697c-1.616 0-2.99 0.566-4.121 1.697s-1.697 2.505-1.697 4.121c0 1.616 0.566 2.99 1.697 4.121s2.505 1.697 4.121 1.697z"></path>
</symbol>
<symbol id="icon-send_FILL0_wght400_GRAD0_opsz16" viewBox="0 0 32 32">
<path d="M4.706 25.897v-20.078l23.843 10.039-23.843 10.039zM7.216 22.133l14.871-6.275-14.871-6.274v4.392l7.529 1.882-7.529 1.882v4.392z"></path>
</symbol>
<symbol id="icon-send_FILL0_wght400_GRAD0_opsz24" viewBox="0 0 32 32">
<path d="M4.48 26.144v-20.48l24.32 10.24-24.32 10.24zM7.040 22.304l15.168-6.4-15.168-6.4v4.48l7.68 1.92-7.68 1.92v4.48z"></path>
</symbol>
<symbol id="icon-send_FILL0_wght400_GRAD0_opsz32" viewBox="0 0 32 32">
<path d="M4.364 26.271v-20.687l24.566 10.343-24.566 10.343zM6.949 22.392l15.321-6.465-15.321-6.465v4.525l7.758 1.939-7.758 1.939v4.525z"></path>
</symbol>
<symbol id="icon-star_FILL0_wght400_GRAD0_opsz16" viewBox="0 0 32 32">
<path d="M12.045 23.168l3.953-2.384 3.953 2.416-1.035-4.518 3.482-3.012-4.58-0.408-1.82-4.267-1.82 4.235-4.58 0.408 3.482 3.043-1.035 4.486zM8.249 28.408l2.039-8.816-6.839-5.929 9.035-0.784 3.514-8.314 3.514 8.314 9.035 0.784-6.839 5.929 2.039 8.816-7.749-4.675-7.749 4.675z"></path>
</symbol>
<symbol id="icon-star_FILL0_wght400_GRAD0_opsz24" viewBox="0 0 32 32">
<path d="M11.968 23.36l4.032-2.432 4.032 2.464-1.056-4.608 3.552-3.072-4.672-0.416-1.856-4.352-1.856 4.32-4.672 0.416 3.552 3.104-1.056 4.576zM8.096 28.704l2.080-8.992-6.976-6.048 9.216-0.8 3.584-8.48 3.584 8.48 9.216 0.8-6.976 6.048 2.080 8.992-7.904-4.768-7.904 4.768z"></path>
</symbol>
<symbol id="icon-star_FILL0_wght400_GRAD0_opsz32" viewBox="0 0 32 32">
<path d="M11.929 23.458l4.073-2.457 4.073 2.489-1.067-4.655 3.588-3.103-4.719-0.42-1.875-4.396-1.875 4.364-4.719 0.42 3.588 3.135-1.067 4.622zM8.017 28.856l2.101-9.083-7.046-6.109 9.309-0.808 3.62-8.566 3.62 8.566 9.309 0.808-7.046 6.109 2.101 9.083-7.984-4.816-7.984 4.816z"></path>
</symbol>
<symbol id="icon-stylus_FILL0_wght400_GRAD0_opsz16" viewBox="0 0 32 32">
<path d="M6.182 27.152c-0.439 0.105-0.821-0.005-1.145-0.329s-0.434-0.706-0.329-1.145l1.255-5.992 6.212 6.212-5.992 1.255zM12.174 25.898l-6.212-6.212 14.369-14.369c0.481-0.481 1.077-0.722 1.788-0.722s1.307 0.24 1.788 0.722l2.635 2.635c0.481 0.481 0.721 1.077 0.721 1.788s-0.241 1.307-0.721 1.788l-14.369 14.369zM22.119 7.074l-12.988 12.988 2.667 2.667 12.988-12.988-2.667-2.667z"></path>
</symbol>
<symbol id="icon-stylus_FILL0_wght400_GRAD0_opsz24" viewBox="0 0 32 32">
<path d="M5.983 27.424c-0.448 0.107-0.837-0.005-1.168-0.336s-0.443-0.72-0.336-1.168l1.28-6.112 6.336 6.336-6.112 1.28zM12.095 26.144l-6.336-6.336 14.656-14.656c0.491-0.491 1.099-0.736 1.824-0.736s1.333 0.245 1.824 0.736l2.688 2.688c0.491 0.491 0.736 1.099 0.736 1.824s-0.245 1.333-0.736 1.824l-14.656 14.656zM22.239 6.944l-13.248 13.248 2.72 2.72 13.248-13.248-2.72-2.72z"></path>
</symbol>
<symbol id="icon-stylus_FILL0_wght400_GRAD0_opsz32" viewBox="0 0 32 32">
<path d="M5.884 27.563c-0.453 0.108-0.846-0.005-1.18-0.339s-0.447-0.727-0.339-1.18l1.293-6.174 6.4 6.4-6.174 1.293zM12.058 26.27l-6.4-6.4 14.804-14.804c0.496-0.496 1.11-0.743 1.842-0.743s1.347 0.248 1.842 0.743l2.715 2.715c0.496 0.496 0.743 1.11 0.743 1.842s-0.248 1.347-0.743 1.842l-14.804 14.804zM22.305 6.876l-13.382 13.382 2.747 2.748 13.382-13.382-2.747-2.747z"></path>
</symbol>
<symbol id="icon-sunny_FILL0_wght400_GRAD0_opsz16" viewBox="0 0 32 32">
<path d="M14.748 7.075v-5.020h2.51v5.020h-2.51zM23.093 10.526l-1.726-1.726 3.514-3.608 1.757 1.788-3.545 3.545zM24.787 17.114v-2.51h5.019v2.51h-5.019zM14.748 29.663v-5.020h2.51v5.020h-2.51zM8.912 10.463l-3.576-3.482 1.788-1.757 3.545 3.545-1.757 1.694zM24.849 26.526l-3.482-3.608 1.694-1.694 3.576 3.451-1.788 1.851zM2.199 17.114v-2.51h5.020v2.51h-5.020zM7.124 26.526l-1.757-1.788 3.514-3.514 0.91 0.847 0.91 0.878-3.576 3.576zM16.002 23.388c-2.091 0-3.869-0.732-5.333-2.196s-2.196-3.242-2.196-5.333 0.732-3.869 2.196-5.333c1.464-1.464 3.242-2.196 5.333-2.196s3.869 0.732 5.333 2.196c1.464 1.464 2.196 3.242 2.196 5.333s-0.732 3.869-2.196 5.333c-1.464 1.464-3.242 2.196-5.333 2.196zM16.002 20.879c1.38 0 2.562-0.491 3.545-1.474s1.475-2.165 1.475-3.545-0.491-2.562-1.475-3.545c-0.983-0.983-2.165-1.475-3.545-1.475s-2.562 0.492-3.545 1.475c-0.983 0.983-1.474 2.165-1.474 3.545s0.492 2.562 1.474 3.545c0.983 0.983 2.165 1.474 3.545 1.474z"></path>
</symbol>
<symbol id="icon-sunny_FILL0_wght400_GRAD0_opsz24" viewBox="0 0 32 32">
<path d="M14.72 6.944v-5.12h2.56v5.12h-2.56zM23.232 10.464l-1.76-1.76 3.584-3.68 1.792 1.824-3.616 3.616zM24.96 17.184v-2.56h5.12v2.56h-5.12zM14.72 29.984v-5.12h2.56v5.12h-2.56zM8.768 10.4l-3.648-3.552 1.824-1.792 3.616 3.616-1.792 1.728zM25.024 26.784l-3.552-3.68 1.728-1.728 3.648 3.52-1.824 1.888zM1.92 17.184v-2.56h5.12v2.56h-5.12zM6.944 26.784l-1.792-1.824 3.584-3.584 0.928 0.864 0.928 0.896-3.648 3.648zM16 23.584c-2.133 0-3.947-0.747-5.44-2.24s-2.24-3.307-2.24-5.44c0-2.133 0.747-3.947 2.24-5.44s3.307-2.24 5.44-2.24c2.133 0 3.947 0.747 5.44 2.24s2.24 3.307 2.24 5.44c0 2.133-0.747 3.947-2.24 5.44s-3.307 2.24-5.44 2.24zM16 21.024c1.408 0 2.613-0.501 3.616-1.504s1.504-2.208 1.504-3.616c0-1.408-0.501-2.613-1.504-3.616s-2.208-1.504-3.616-1.504-2.613 0.501-3.616 1.504c-1.003 1.003-1.504 2.208-1.504 3.616s0.501 2.613 1.504 3.616c1.003 1.003 2.208 1.504 3.616 1.504z"></path>
</symbol>
<symbol id="icon-sunny_FILL0_wght400_GRAD0_opsz32" viewBox="0 0 32 32">
<path d="M14.706 6.876v-5.172h2.586v5.172h-2.586zM23.304 10.432l-1.778-1.778 3.62-3.717 1.81 1.842-3.653 3.652zM25.049 17.22v-2.586h5.172v2.586h-5.172zM14.706 30.149v-5.172h2.586v5.172h-2.586zM8.694 10.367l-3.685-3.588 1.842-1.81 3.653 3.653-1.81 1.745zM25.114 26.917l-3.588-3.717 1.745-1.745 3.685 3.555-1.842 1.907zM1.776 17.22v-2.586h5.172v2.586h-5.172zM6.851 26.917l-1.81-1.842 3.62-3.62 0.937 0.873 0.937 0.905-3.685 3.685zM15.999 23.684c-2.155 0-3.987-0.754-5.495-2.263s-2.263-3.34-2.263-5.495 0.754-3.987 2.263-5.495c1.508-1.508 3.34-2.263 5.495-2.263s3.987 0.754 5.495 2.263c1.508 1.508 2.263 3.34 2.263 5.495s-0.754 3.987-2.263 5.495c-1.508 1.508-3.34 2.263-5.495 2.263zM15.999 21.098c1.422 0 2.64-0.506 3.653-1.519s1.519-2.23 1.519-3.652c0-1.422-0.506-2.64-1.519-3.653s-2.23-1.519-3.653-1.519-2.64 0.506-3.653 1.519c-1.013 1.013-1.519 2.23-1.519 3.653s0.506 2.64 1.519 3.652c1.013 1.013 2.23 1.519 3.653 1.519z"></path>
</symbol>
<symbol id="icon-iPad1" viewBox="0 0 33 32">
<path fill="#fff" style="fill: var(--color2, #fff)" d="M6.333 9h20.667c1.473 0 2.667 1.194 2.667 2.667v12.667c0 1.473-1.194 2.667-2.667 2.667h-20.667c-1.473 0-2.667-1.194-2.667-2.667v-12.667c0-1.473 1.194-2.667 2.667-2.667z"></path>
<path fill="#000" style="fill: var(--color3, #000)" d="M13.667 23h6c0.552 0 1 0.448 1 1s-0.448 1-1 1h-6c-0.552 0-1-0.448-1-1s0.448-1 1-1z"></path>
</symbol>
<symbol id="icon-burger1" viewBox="0 0 32 32">
<path d="M4.799 8.001c0-0.424 0.169-0.831 0.469-1.131s0.707-0.469 1.131-0.469h19.2c0.424 0 0.831 0.169 1.131 0.469s0.469 0.707 0.469 1.131-0.169 0.831-0.469 1.131c-0.3 0.3-0.707 0.469-1.131 0.469h-19.2c-0.424 0-0.831-0.169-1.131-0.469s-0.469-0.707-0.469-1.131z"></path>
<path d="M4.799 16.001c0-0.424 0.169-0.831 0.469-1.131s0.707-0.469 1.131-0.469h19.2c0.424 0 0.831 0.169 1.131 0.469s0.469 0.707 0.469 1.131c0 0.424-0.169 0.831-0.469 1.131s-0.707 0.469-1.131 0.469h-19.2c-0.424 0-0.831-0.169-1.131-0.469s-0.469-0.707-0.469-1.131z"></path>
<path d="M4.799 24.001c0-0.424 0.169-0.831 0.469-1.131s0.707-0.469 1.131-0.469h19.2c0.424 0 0.831 0.169 1.131 0.469s0.469 0.707 0.469 1.131c0 0.424-0.169 0.831-0.469 1.131s-0.707 0.469-1.131 0.469h-19.2c-0.424 0-0.831-0.169-1.131-0.469s-0.469-0.707-0.469-1.131z"></path>
</symbol>
<symbol id="icon-svg-logo" viewBox="0 0 32 32">
<path d="M18.312 21.386h-11.231c-0.165-0.007-0.329 0.020-0.483 0.080s-0.295 0.151-0.414 0.269c-0.119 0.118-0.214 0.259-0.278 0.415s-0.098 0.325-0.098 0.495c0 0.171 0.033 0.34 0.098 0.497s0.159 0.299 0.277 0.418c0.119 0.119 0.259 0.212 0.413 0.274s0.319 0.092 0.484 0.087h11.231c0.165 0.005 0.33-0.025 0.484-0.087s0.295-0.155 0.413-0.274c0.119-0.119 0.213-0.261 0.277-0.418s0.098-0.326 0.098-0.497c0-0.17-0.033-0.338-0.098-0.495s-0.159-0.298-0.278-0.415c-0.119-0.118-0.26-0.209-0.414-0.269s-0.319-0.087-0.483-0.080zM26.613 9.913v-7.158c-0-0.329-0.127-0.644-0.353-0.877s-0.531-0.363-0.85-0.364h-24.207c-0.319 0-0.625 0.131-0.85 0.364s-0.352 0.548-0.353 0.877v26.49c-0 0.329 0.125 0.646 0.349 0.881 0.228 0.231 0.535 0.36 0.855 0.36h24.189c0.319-0 0.625-0.131 0.85-0.364s0.352-0.548 0.353-0.877v-7.158l5.058-5.215c0.224-0.235 0.349-0.552 0.349-0.881s-0.125-0.646-0.349-0.881l-5.040-5.197zM24.555 20.703c-0.224 0.235-0.349 0.552-0.349 0.881v6.438h-21.782v-24.027h21.782v6.438c-0 0.329 0.125 0.646 0.349 0.881l4.552 4.694-4.552 4.694zM7.028 17.268h8.022c0.319 0 0.625-0.131 0.851-0.363s0.353-0.548 0.353-0.877c0-0.329-0.127-0.645-0.352-0.877s-0.532-0.363-0.851-0.363h-8.022c-0.319 0-0.625 0.131-0.851 0.363s-0.352 0.548-0.352 0.877 0.127 0.645 0.352 0.877c0.226 0.233 0.532 0.363 0.851 0.363zM7.081 10.668h10.97c0.165 0.007 0.329-0.020 0.483-0.080s0.295-0.152 0.414-0.269c0.119-0.118 0.214-0.259 0.278-0.415s0.098-0.325 0.098-0.495c-0-0.171-0.034-0.34-0.098-0.497s-0.159-0.299-0.277-0.418c-0.119-0.119-0.259-0.212-0.413-0.274s-0.319-0.092-0.484-0.087h-10.97c-0.165-0.005-0.33 0.025-0.484 0.087s-0.295 0.155-0.413 0.274c-0.119 0.119-0.213 0.261-0.277 0.418s-0.098 0.326-0.098 0.497c-0 0.17 0.033 0.338 0.098 0.495s0.159 0.298 0.278 0.415c0.119 0.118 0.26 0.209 0.414 0.269s0.319 0.087 0.483 0.080z"></path>
</symbol>
<symbol id="icon-close_ac" viewBox="0 0 33 32">
<path d="M16.675 4.13c-0.735 0-1.329 0.594-1.329 1.329l-0.009 9.211h-9.221c-0.735 0-1.329 0.594-1.329 1.329s0.594 1.329 1.329 1.329h9.221v9.221c0 0.735 0.594 1.329 1.329 1.329s1.329-0.594 1.329-1.329v-9.221h9.221c0.735 0 1.329-0.594 1.329-1.329s-0.594-1.329-1.329-1.329h-9.221v-9.221c0-0.717-0.603-1.32-1.32-1.32z"></path>
</symbol>


<!-- =========================================================================== -->
<svg xmlns="http://www.w3.org/2000/svg" width="20" height="15" viewBox="0 0 20 15" fill="none">
   <symbol id="menu-icon">
  <path d="M0.833496 3.49967V0.833008H19.5002V3.49967H0.833496ZM0.833496 8.83301V6.16634H19.5002V8.83301H0.833496ZM0.833496 14.1663V11.4997H19.5002V14.1663H0.833496Z" fill="#071013"/>
</symbol>
</svg>
<svg xmlns="http://www.w3.org/2000/svg" width="16" height="17" viewBox="0 0 16 17" fill="none">
  <symbol id="closed-icon" viewBox="0 0 16 17">
    <path d="M0.41321 2.84314L2.29883 0.95752L15.4982 14.1568L13.6125 16.0425L0.41321 2.84314Z" fill="#071013"/>
    <path d="M2.30066 16.0428L0.415039 14.1572L13.6144 0.957899L15.5 2.84352L2.30066 16.0428Z" fill="#071013"/>
  </symbol>
</svg>












</defs>
</svg>
