<svg width="155" height="52" viewBox="0 0 155 52" fill="none" xmlns="http://www.w3.org/2000/svg">
<path d="M142.657 0.000168938H12.3502C11.8752 0.000168938 11.4059 0.000168938 10.9322 0.00276799C10.5357 0.00536703 10.1423 0.0129173 9.7419 0.0192719C8.87213 0.0295405 8.0044 0.106309 7.14626 0.248911C6.28932 0.394617 5.45923 0.669314 4.68406 1.06371C3.90984 1.46145 3.20241 1.97826 2.58744 2.59541C1.96924 3.21082 1.45392 3.92215 1.0613 4.70205C0.667594 5.4804 0.394599 6.31448 0.25174 7.17546C0.107523 8.03537 0.0299192 8.90518 0.0196237 9.77711C0.00760337 10.1755 0.00633398 10.5753 0 10.9738V41.0113C0.00633398 41.4148 0.00760337 41.8057 0.0196237 42.2093C0.0299223 43.0812 0.107527 43.951 0.25174 44.8109C0.394204 45.6724 0.667216 46.5069 1.0613 47.2855C1.45374 48.0629 1.96913 48.7714 2.58744 49.3834C3.20008 50.0033 3.90797 50.5204 4.68406 50.9151C5.45923 51.3106 6.28923 51.5869 7.14626 51.7349C8.00455 51.8763 8.87218 51.9531 9.7419 51.9646C10.1423 51.9734 10.5357 51.9785 10.9322 51.9785C11.4059 51.9811 11.8752 51.9811 12.3502 51.9811H142.657C143.122 51.9811 143.595 51.9811 144.061 51.9785C144.456 51.9785 144.86 51.9734 145.255 51.9646C146.123 51.9537 146.989 51.8769 147.846 51.7349C148.705 51.5859 149.538 51.3096 150.317 50.9151C151.093 50.5202 151.8 50.003 152.412 49.3834C153.029 48.769 153.545 48.061 153.943 47.2855C154.334 46.5063 154.604 45.6719 154.744 44.8109C154.889 43.9509 154.969 43.0813 154.985 42.2093C154.99 41.8057 154.99 41.4148 154.99 41.0113C155 40.5392 155 40.0697 155 39.5899V12.3926C155 11.9167 155 11.4446 154.99 10.9738C154.99 10.5753 154.99 10.1755 154.985 9.77706C154.969 8.90505 154.889 8.03543 154.744 7.17541C154.604 6.31492 154.333 5.48091 153.943 4.702C153.143 3.13877 151.875 1.86632 150.317 1.0636C149.538 0.670161 148.705 0.395537 147.846 0.248794C146.989 0.105564 146.123 0.0287686 145.255 0.01909C144.86 0.0127483 144.456 0.00513312 144.061 0.00259905C143.595 0 143.122 0.000168938 142.657 0.000168938Z" fill="#A6A6A6"/>
<path d="M10.9386 50.844C10.5439 50.844 10.1588 50.8389 9.76726 50.8301C8.95613 50.8195 8.14689 50.7486 7.34618 50.6181C6.59956 50.4891 5.87629 50.2492 5.20022 49.9061C4.53034 49.5659 3.91937 49.1199 3.39069 48.585C2.85436 48.0565 2.40785 47.4435 2.06883 46.7702C1.72608 46.0927 1.48888 45.3664 1.36549 44.6167C1.23223 43.8111 1.16014 42.9966 1.14982 42.1801C1.14161 41.906 1.13086 40.9935 1.13086 40.9935V10.9737C1.13086 10.9737 1.14231 10.0752 1.14989 9.81127C1.15976 8.99605 1.23144 8.18277 1.3643 7.37847C1.48792 6.62672 1.7253 5.89834 2.06824 5.21853C2.406 4.54578 2.85004 3.9323 3.38314 3.40186C3.91564 2.86638 4.52857 2.41802 5.19958 2.07314C5.8741 1.73121 6.596 1.49293 7.34111 1.36627C8.14445 1.23446 8.9565 1.16319 9.77045 1.15307L10.9392 1.13721H144.055L145.237 1.15371C146.044 1.16333 146.849 1.23396 147.644 1.365C148.397 1.49324 149.127 1.73319 149.809 2.07694C151.153 2.77199 152.247 3.87162 152.937 5.2217C153.274 5.89681 153.508 6.61926 153.63 7.36451C153.765 8.17542 153.84 8.99509 153.855 9.81699C153.859 10.185 153.859 10.5803 153.859 10.9737C153.869 11.4611 153.869 11.9249 153.869 12.3926V39.5899C153.869 40.062 153.869 40.5227 153.859 40.9871C153.859 41.4097 153.859 41.7968 153.854 42.1953C153.839 43.0025 153.765 43.8075 153.633 44.6039C153.512 45.359 153.276 46.091 152.933 46.7741C152.592 47.44 152.148 48.0478 151.618 48.5749C151.089 49.1126 150.476 49.5613 149.805 49.9037C149.125 50.2493 148.396 50.4902 147.644 50.6181C146.844 50.7493 146.035 50.8202 145.223 50.8301C144.844 50.8389 144.447 50.844 144.061 50.844L142.657 50.8466L10.9386 50.844Z" fill="black"/>
<path d="M32.0848 26.3817C32.0988 25.297 32.3859 24.2335 32.9196 23.2901C33.4533 22.3467 34.2162 21.5541 35.1373 20.986C34.5521 20.1476 33.7802 19.4576 32.8828 18.9708C31.9854 18.4841 30.9872 18.214 29.9675 18.182C27.7924 17.9529 25.6838 19.4878 24.5754 19.4878C23.4455 19.4878 21.739 18.2047 19.9013 18.2427C18.7126 18.2812 17.5542 18.628 16.5388 19.2492C15.5235 19.8705 14.6859 20.745 14.1076 21.7876C11.6025 26.139 13.471 32.534 15.8707 36.0513C17.0713 37.7736 18.4745 39.6975 20.3105 39.6293C22.1071 39.5545 22.7782 38.4799 24.9469 38.4799C27.0954 38.4799 27.725 39.6293 29.5983 39.5859C31.5261 39.5545 32.7408 37.8559 33.8993 36.1173C34.7619 34.89 35.4257 33.5337 35.8661 32.0985C34.746 31.6232 33.7902 30.8277 33.1178 29.8111C32.4454 28.7944 32.0861 27.6017 32.0848 26.3817Z" fill="white"/>
<path d="M28.5451 15.8698C29.5963 14.6034 30.1141 12.9755 29.9887 11.332C28.3828 11.5013 26.8993 12.2716 25.834 13.4895C25.3131 14.0845 24.9141 14.7766 24.6599 15.5264C24.4057 16.2762 24.3013 17.069 24.3525 17.8593C25.1558 17.8676 25.9505 17.6929 26.6767 17.3483C27.4029 17.0036 28.0417 16.4981 28.5451 15.8698Z" fill="white"/>
<path d="M54.7922 35.2689H48.6611L47.1887 39.6306H44.5918L50.3991 23.4932H53.0972L58.9045 39.6306H56.2633L54.7922 35.2689ZM49.2961 33.2561H54.156L51.7602 26.1773H51.6932L49.2961 33.2561Z" fill="white"/>
<path d="M71.4451 33.7484C71.4451 37.4046 69.4946 39.7536 66.5511 39.7536C65.8055 39.7928 65.0639 39.6204 64.4114 39.2564C63.7588 38.8924 63.2216 38.3513 62.8613 37.6952H62.8056V43.5227H60.3984V27.865H62.7285V29.8219H62.7728C63.1496 29.169 63.6959 28.6307 64.3534 28.2644C65.011 27.8982 65.7552 27.7176 66.5068 27.7419C69.4832 27.7419 71.4451 30.1024 71.4451 33.7484ZM68.9709 33.7484C68.9709 31.3664 67.7439 29.8003 65.8718 29.8003C64.0326 29.8003 62.7955 31.3994 62.7955 33.7484C62.7955 36.119 64.0326 37.7066 65.8718 37.7066C67.744 37.7066 68.9709 36.152 68.9709 33.7484Z" fill="white"/>
<path d="M84.3533 33.7484C84.3533 37.4046 82.4028 39.7536 79.4593 39.7536C78.7137 39.7928 77.9721 39.6204 77.3196 39.2564C76.667 38.8923 76.1298 38.3513 75.7695 37.6952H75.7138V43.5227H73.3066V27.865H75.6366V29.8219H75.6809C76.0578 29.1689 76.604 28.6307 77.2616 28.2644C77.9191 27.8982 78.6633 27.7176 79.415 27.7419C82.3914 27.7419 84.3533 30.1024 84.3533 33.7484ZM81.8791 33.7484C81.8791 31.3664 80.6521 29.8003 78.78 29.8003C76.9408 29.8003 75.7037 31.3994 75.7037 33.7484C75.7037 36.119 76.9408 37.7066 78.78 37.7066C80.6522 37.7066 81.8791 36.152 81.8791 33.7484Z" fill="white"/>
<path d="M92.8841 35.1344C93.0624 36.7347 94.612 37.7854 96.7295 37.7854C98.7584 37.7854 100.218 36.7346 100.218 35.2917C100.218 34.0391 99.3377 33.2891 97.2531 32.7751L95.1685 32.2713C92.2149 31.5555 90.8437 30.1697 90.8437 27.9209C90.8437 25.1366 93.2623 23.2241 96.6966 23.2241C100.095 23.2241 102.425 25.1366 102.504 27.9209H100.074C99.9284 26.3105 98.6015 25.3384 96.6624 25.3384C94.7232 25.3384 93.3963 26.3219 93.3963 27.7534C93.3963 28.8943 94.2438 29.5657 96.3171 30.0796L98.0892 30.5161C101.389 31.2992 102.761 32.6292 102.761 34.9896C102.761 38.0087 100.364 39.8996 96.5511 39.8996C92.9839 39.8996 90.5755 38.0531 90.4199 35.1343L92.8841 35.1344Z" fill="white"/>
<path d="M107.956 25.0815V27.8659H110.186V29.7784H107.956V36.2646C107.956 37.2722 108.402 37.7418 109.383 37.7418C109.647 37.7371 109.912 37.7185 110.174 37.6859V39.5869C109.734 39.6696 109.286 39.707 108.837 39.6986C106.463 39.6986 105.537 38.8039 105.537 36.5221V29.7784H103.832V27.8659H105.537V25.0815H107.956Z" fill="white"/>
<path d="M111.479 33.7488C111.479 30.0469 113.652 27.7207 117.04 27.7207C120.441 27.7207 122.604 30.0469 122.604 33.7488C122.604 37.4608 120.452 39.7768 117.04 39.7768C113.63 39.7768 111.479 37.4608 111.479 33.7488ZM120.151 33.7488C120.151 31.2094 118.991 29.7106 117.04 29.7106C115.09 29.7106 113.931 31.2208 113.931 33.7488C113.931 36.2983 115.09 37.7857 117.04 37.7857C118.991 37.7857 120.151 36.2983 120.151 33.7488Z" fill="white"/>
<path d="M124.586 27.8654H126.882V29.868H126.937C127.093 29.2425 127.458 28.6898 127.972 28.3027C128.485 27.9156 129.116 27.7177 129.758 27.7423C130.036 27.7413 130.312 27.7715 130.583 27.8324V30.0913C130.233 29.984 129.868 29.9347 129.501 29.9454C129.152 29.9312 128.803 29.993 128.48 30.1267C128.156 30.2604 127.865 30.4628 127.627 30.72C127.388 30.9771 127.208 31.283 127.099 31.6165C126.99 31.9501 126.954 32.3034 126.993 32.6523V39.6309H124.586L124.586 27.8654Z" fill="white"/>
<path d="M141.682 36.1752C141.358 38.3111 139.285 39.7768 136.633 39.7768C133.221 39.7768 131.104 37.4836 131.104 33.8046C131.104 30.1142 133.232 27.7207 136.531 27.7207C139.776 27.7207 141.816 29.9568 141.816 33.5241V34.3516H133.533V34.4975C133.495 34.9305 133.549 35.3667 133.692 35.7772C133.835 36.1876 134.063 36.5629 134.361 36.8781C134.66 37.1933 135.021 37.4412 135.423 37.6053C135.824 37.7694 136.255 37.8461 136.688 37.8301C137.257 37.8835 137.828 37.7514 138.316 37.4532C138.804 37.155 139.183 36.7068 139.396 36.1752L141.682 36.1752ZM133.545 32.6637H139.408C139.429 32.2744 139.371 31.8848 139.235 31.5193C139.099 31.1539 138.89 30.8205 138.62 30.5401C138.35 30.2597 138.025 30.0384 137.665 29.8899C137.306 29.7415 136.92 29.6692 136.531 29.6776C136.139 29.6753 135.751 29.7508 135.388 29.8999C135.025 30.049 134.696 30.2687 134.418 30.5464C134.14 30.824 133.92 31.154 133.77 31.5174C133.62 31.8809 133.544 32.2704 133.545 32.6637Z" fill="white"/>
<path d="M48.9987 11.3467C49.5034 11.3103 50.0098 11.3869 50.4814 11.5707C50.9531 11.7546 51.3782 12.0412 51.7261 12.4099C52.074 12.7786 52.336 13.2202 52.4932 13.7029C52.6505 14.1855 52.6991 14.6972 52.6354 15.201C52.6354 17.6791 51.3009 19.1036 48.9987 19.1036H46.207V11.3467H48.9987ZM47.4074 18.0066H48.8646C49.2253 18.0282 49.5861 17.9689 49.921 17.8329C50.2559 17.6969 50.5564 17.4876 50.8005 17.2204C51.0447 16.9532 51.2264 16.6347 51.3324 16.2881C51.4385 15.9415 51.4661 15.5755 51.4135 15.2168C51.4623 14.8595 51.4318 14.4958 51.3242 14.1517C51.2165 13.8077 51.0343 13.4918 50.7907 13.2267C50.5472 12.9616 50.2481 12.7538 49.9151 12.6183C49.5822 12.4828 49.2234 12.4229 48.8646 12.4429H47.4074V18.0066Z" fill="white"/>
<path d="M53.9915 16.1735C53.9549 15.7888 53.9987 15.4007 54.1203 15.034C54.2418 14.6673 54.4384 14.3302 54.6974 14.0442C54.9563 13.7582 55.272 13.5297 55.6242 13.3734C55.9763 13.217 56.3571 13.1362 56.7421 13.1362C57.1272 13.1362 57.508 13.217 57.8601 13.3734C58.2122 13.5297 58.5279 13.7582 58.7869 14.0442C59.0459 14.3302 59.2424 14.6673 59.364 15.034C59.4856 15.4007 59.5294 15.7888 59.4927 16.1735C59.5301 16.5586 59.4868 16.9473 59.3655 17.3146C59.2443 17.6818 59.0479 18.0196 58.7888 18.3061C58.5298 18.5927 58.2138 18.8216 57.8614 18.9783C57.5089 19.135 57.1276 19.216 56.7421 19.216C56.3566 19.216 55.9754 19.135 55.6229 18.9783C55.2704 18.8216 54.9545 18.5927 54.6954 18.3061C54.4364 18.0196 54.2399 17.6818 54.1187 17.3146C53.9975 16.9473 53.9542 16.5586 53.9915 16.1735ZM58.3087 16.1735C58.3087 14.9046 57.7408 14.1626 56.744 14.1626C55.7435 14.1626 55.1806 14.9046 55.1806 16.1735C55.1806 17.4526 55.7435 18.1889 56.744 18.1889C57.7408 18.1889 58.3087 17.4475 58.3087 16.1735Z" fill="white"/>
<path d="M66.8057 19.1033H65.6116L64.4062 14.792H64.3151L63.1147 19.1033H61.932L60.3242 13.2495H61.4918L62.5366 17.7163H62.6226L63.8218 13.2495H64.9261L66.1252 17.7163H66.2163L67.2561 13.2495H68.4071L66.8057 19.1033Z" fill="white"/>
<path d="M69.7578 13.2496H70.8659V14.1795H70.9519C71.0978 13.8455 71.3439 13.5656 71.6559 13.3786C71.9679 13.1917 72.3303 13.1071 72.6925 13.1366C72.9763 13.1152 73.2612 13.1582 73.5262 13.2623C73.7913 13.3664 74.0295 13.529 74.2234 13.7381C74.4173 13.9472 74.5618 14.1974 74.6463 14.4702C74.7307 14.743 74.753 15.0313 74.7113 15.3139V19.1033H73.5602V15.604C73.5602 14.6632 73.1529 14.1954 72.3016 14.1954C72.1089 14.1864 71.9166 14.2193 71.7377 14.2919C71.5589 14.3645 71.3978 14.475 71.2656 14.6159C71.1333 14.7568 71.0329 14.9247 70.9714 15.1082C70.9098 15.2917 70.8885 15.4863 70.9089 15.6789V19.1034H69.7578L69.7578 13.2496Z" fill="white"/>
<path d="M76.5449 10.9644H77.696V19.1033H76.5449V10.9644Z" fill="white"/>
<path d="M79.2981 16.1736C79.2615 15.7889 79.3054 15.4007 79.427 15.034C79.5485 14.6673 79.7451 14.3302 80.0041 14.0442C80.2632 13.7582 80.5789 13.5297 80.931 13.3734C81.2832 13.217 81.664 13.1362 82.0491 13.1362C82.4341 13.1362 82.815 13.217 83.1671 13.3734C83.5193 13.5297 83.835 13.7582 84.094 14.0442C84.353 14.3302 84.5496 14.6673 84.6712 15.034C84.7927 15.4007 84.8366 15.7889 84.8 16.1736C84.8373 16.5587 84.7939 16.9474 84.6727 17.3147C84.5514 17.682 84.3549 18.0197 84.0958 18.3062C83.8367 18.5928 83.5208 18.8217 83.1683 18.9784C82.8158 19.1351 82.4346 19.2161 82.0491 19.2161C81.6635 19.2161 81.2823 19.1351 80.9298 18.9784C80.5773 18.8217 80.2614 18.5928 80.0023 18.3062C79.7432 18.0197 79.5467 17.682 79.4255 17.3147C79.3042 16.9474 79.2608 16.5587 79.2981 16.1736ZM83.6153 16.1736C83.6153 14.9047 83.0474 14.1627 82.0506 14.1627C81.0501 14.1627 80.4872 14.9047 80.4872 16.1736C80.4872 17.4527 81.0501 18.189 82.0506 18.189C83.0474 18.189 83.6153 17.4476 83.6153 16.1736Z" fill="white"/>
<path d="M86.0117 17.4475C86.0117 16.3938 86.7934 15.7864 88.1811 15.7L89.761 15.6086V15.1034C89.761 14.4851 89.3537 14.136 88.5669 14.136C87.9243 14.136 87.4791 14.3727 87.3513 14.7866H86.2369C86.3545 13.7811 87.2969 13.1362 88.62 13.1362C90.0823 13.1362 90.907 13.8668 90.907 15.1034V19.103H89.7989V18.2804H89.7079C89.523 18.5754 89.2634 18.816 88.9556 18.9775C88.6478 19.139 88.3029 19.2155 87.9559 19.1995C87.7111 19.225 87.4636 19.1988 87.2295 19.1225C86.9953 19.0462 86.7797 18.9215 86.5965 18.7564C86.4134 18.5914 86.2667 18.3896 86.166 18.1642C86.0652 17.9387 86.0127 17.6946 86.0117 17.4475ZM89.761 16.9473V16.4579L88.3367 16.5493C87.5334 16.6033 87.1691 16.8775 87.1691 17.3936C87.1691 17.9204 87.6245 18.227 88.2507 18.227C88.4342 18.2457 88.6195 18.2271 88.7957 18.1723C88.9718 18.1176 89.1352 18.0279 89.2761 17.9085C89.417 17.7891 89.5326 17.6425 89.6159 17.4774C89.6992 17.3122 89.7485 17.132 89.761 16.9473Z" fill="white"/>
<path d="M92.4199 16.1739C92.4199 14.3242 93.3674 13.1524 94.841 13.1524C95.2055 13.1355 95.5673 13.2232 95.884 13.405C96.2008 13.5869 96.4594 13.8555 96.6296 14.1794H96.7156V10.9644H97.8667V19.1033H96.7637V18.1784H96.6726C96.4892 18.5002 96.2216 18.7654 95.8987 18.9454C95.5759 19.1255 95.2101 19.2134 94.841 19.1998C93.3572 19.1998 92.4199 18.028 92.4199 16.1739ZM93.609 16.1739C93.609 17.4155 94.1921 18.1626 95.1674 18.1626C96.1376 18.1626 96.7372 17.4047 96.7372 16.179C96.7372 14.9589 96.1313 14.1902 95.1674 14.1902C94.1984 14.1902 93.609 14.9424 93.609 16.1739Z" fill="white"/>
<path d="M102.628 16.1735C102.592 15.7888 102.635 15.4007 102.757 15.034C102.879 14.6673 103.075 14.3302 103.334 14.0442C103.593 13.7582 103.909 13.5297 104.261 13.3734C104.613 13.217 104.994 13.1362 105.379 13.1362C105.764 13.1362 106.145 13.217 106.497 13.3734C106.849 13.5297 107.165 13.7582 107.424 14.0442C107.683 14.3302 107.879 14.6673 108.001 15.034C108.122 15.4007 108.166 15.7888 108.129 16.1735C108.167 16.5586 108.123 16.9473 108.002 17.3146C107.881 17.6818 107.685 18.0196 107.426 18.3061C107.166 18.5927 106.851 18.8216 106.498 18.9783C106.146 19.135 105.764 19.216 105.379 19.216C104.993 19.216 104.612 19.135 104.26 18.9783C103.907 18.8216 103.591 18.5927 103.332 18.3061C103.073 18.0196 102.877 17.6818 102.755 17.3146C102.634 16.9473 102.591 16.5586 102.628 16.1735ZM106.945 16.1735C106.945 14.9046 106.377 14.1626 105.381 14.1626C104.38 14.1626 103.817 14.9046 103.817 16.1735C103.817 17.4526 104.38 18.1889 105.381 18.1889C106.378 18.1889 106.945 17.4475 106.945 16.1735Z" fill="white"/>
<path d="M109.674 13.2496H110.782V14.1795H110.868C111.014 13.8455 111.26 13.5656 111.572 13.3786C111.884 13.1917 112.246 13.1071 112.608 13.1366C112.892 13.1152 113.177 13.1582 113.442 13.2623C113.707 13.3664 113.946 13.529 114.139 13.7381C114.333 13.9472 114.478 14.1974 114.562 14.4702C114.647 14.743 114.669 15.0313 114.627 15.3139V19.1033H113.476V15.604C113.476 14.6632 113.069 14.1954 112.218 14.1954C112.025 14.1864 111.833 14.2193 111.654 14.2919C111.475 14.3645 111.314 14.475 111.182 14.6159C111.049 14.7568 110.949 14.9247 110.887 15.1082C110.826 15.2917 110.805 15.4863 110.825 15.6789V19.1034H109.674V13.2496Z" fill="white"/>
<path d="M121.133 11.792V13.2761H122.397V14.2492H121.133V17.2592C121.133 17.8724 121.385 18.1409 121.958 18.1409C122.104 18.1404 122.251 18.1315 122.397 18.1142V19.0765C122.19 19.1136 121.98 19.1334 121.771 19.1356C120.49 19.1356 119.981 18.6836 119.981 17.555V14.2491H119.055V13.276H119.981V11.792H121.133Z" fill="white"/>
<path d="M123.967 10.9644H125.108V14.1902H125.199C125.352 13.8531 125.605 13.5715 125.923 13.3839C126.241 13.1962 126.609 13.1116 126.977 13.1416C127.26 13.1262 127.542 13.1735 127.804 13.2801C128.066 13.3868 128.301 13.5502 128.493 13.7586C128.685 13.967 128.829 14.2154 128.914 14.486C128.999 14.7566 129.024 15.0427 128.986 15.3239V19.1033H127.834V15.6089C127.834 14.6739 127.4 14.2004 126.587 14.2004C126.389 14.1841 126.19 14.2114 126.003 14.2804C125.817 14.3493 125.648 14.4583 125.508 14.5997C125.368 14.741 125.261 14.9113 125.194 15.0987C125.126 15.2861 125.1 15.486 125.118 15.6844V19.1033H123.967L123.967 10.9644Z" fill="white"/>
<path d="M135.698 17.5225C135.541 18.0575 135.202 18.5203 134.74 18.8299C134.278 19.1395 133.723 19.2762 133.17 19.2161C132.786 19.2263 132.404 19.1524 132.051 18.9996C131.698 18.8468 131.383 18.6188 131.126 18.3313C130.87 18.0438 130.679 17.7038 130.567 17.3348C130.454 16.9659 130.423 16.5768 130.476 16.1946C130.425 15.8113 130.456 15.4214 130.568 15.0513C130.68 14.6812 130.87 14.3396 131.125 14.0496C131.38 13.7596 131.694 13.528 132.046 13.3704C132.398 13.2129 132.78 13.133 133.165 13.1363C134.788 13.1363 135.767 14.2491 135.767 16.0873V16.4904H131.649V16.5552C131.631 16.77 131.658 16.9862 131.728 17.19C131.798 17.3938 131.909 17.5806 132.056 17.7385C132.202 17.8964 132.379 18.0219 132.577 18.1069C132.774 18.1919 132.987 18.2346 133.202 18.2322C133.477 18.2653 133.756 18.2156 134.003 18.0892C134.25 17.9628 134.455 17.7656 134.59 17.5225L135.698 17.5225ZM131.649 15.636H134.595C134.609 15.4396 134.583 15.2422 134.517 15.0567C134.451 14.8712 134.347 14.7015 134.211 14.5587C134.076 14.4159 133.913 14.3031 133.731 14.2274C133.55 14.1518 133.355 14.1151 133.159 14.1196C132.96 14.1171 132.762 14.1546 132.578 14.2299C132.393 14.3052 132.226 14.4169 132.085 14.5582C131.944 14.6995 131.833 14.8677 131.758 15.0528C131.683 15.2379 131.646 15.4362 131.649 15.636Z" fill="white"/>
</svg>
