<svg width="16" height="40" viewBox="0 0 16 40" fill="none" xmlns="http://www.w3.org/2000/svg">
<path d="M13.7912 36.5567C12.5349 34.7982 12.7854 32.0349 14.8009 30.7788C16.0595 32.7885 15.5561 35.0494 13.7912 36.5567Z" fill="#FAFBFC" stroke="#FAFBFC" stroke-width="0.489499" stroke-linejoin="round"/>
<path d="M4.33423 34.0196C6.34349 32.7757 9.4902 33.0408 10.9114 35.0586C8.61591 36.3035 6.04277 35.7888 4.33423 34.0196Z" fill="#FAFBFC" stroke="#FAFBFC" stroke-width="0.489499" stroke-linejoin="round"/>
<path d="M10.874 33.3432C9.85134 31.1612 10.6599 28.1549 13.0919 27.1495C14.0684 29.6095 13.0828 32.0126 10.874 33.3432Z" fill="#FAFBFC" stroke="#FAFBFC" stroke-width="0.489499" stroke-linejoin="round"/>
<path d="M8.53613 27.9755C8.20099 25.7197 9.6921 23.1101 12.0944 22.7232C12.3168 25.2267 10.8262 27.2364 8.53613 27.9755Z" fill="#FAFBFC" stroke="#FAFBFC" stroke-width="0.489499" stroke-linejoin="round"/>
<path d="M7.34905 22.842C7.55878 20.4567 9.67483 18.0315 12.1636 18.0599C11.7817 20.6806 9.81073 22.4874 7.34905 22.842Z" fill="#FAFBFC" stroke="#FAFBFC" stroke-width="0.489499" stroke-linejoin="round"/>
<path d="M7.64256 17.5217C8.10273 15.1717 10.4629 12.9822 12.9348 13.2718C12.2786 15.8378 10.128 17.4276 7.64256 17.5217Z" fill="#FAFBFC" stroke="#FAFBFC" stroke-width="0.489499" stroke-linejoin="round"/>
<path d="M9.29765 11.5401C9.67023 9.10968 12.0478 6.93619 14.6603 7.35483C14.0918 10.0014 11.9061 11.559 9.29765 11.5401Z" fill="#FAFBFC" stroke="#FAFBFC" stroke-width="0.489499" stroke-linejoin="round"/>
<path d="M11.2865 6.6975C10.526 4.41315 11.5341 1.35859 13.8754 0.427537C14.5691 2.99564 13.4488 5.42303 11.2865 6.6975Z" fill="#FAFBFC" stroke="#FAFBFC" stroke-width="0.489499" stroke-linejoin="round"/>
<path d="M8.64799 9.06596C6.90275 7.40413 6.35763 4.23455 7.98796 2.31678C9.8076 4.26044 9.95884 6.9286 8.64799 9.06596Z" fill="#FAFBFC" stroke="#FAFBFC" stroke-width="0.489499" stroke-linejoin="round"/>
<path d="M7.39628 12.9699C5.22172 11.9277 3.72148 9.08139 4.67794 6.75474C7.01056 8.04206 7.98088 10.5329 7.39628 12.9699Z" fill="#FAFBFC" stroke="#FAFBFC" stroke-width="0.489499" stroke-linejoin="round"/>
<path d="M6.58852 17.5032C4.26685 16.8492 2.29886 14.3024 2.8405 11.8464C5.36008 12.7148 6.74485 15.0023 6.58852 17.5032Z" fill="#FAFBFC" stroke="#FAFBFC" stroke-width="0.489499" stroke-linejoin="round"/>
<path d="M6.45531 21.8749C4.04595 21.7539 1.55831 19.7092 1.53741 17.1945C4.18761 17.4803 6.04876 19.4021 6.45531 21.8749Z" fill="#FAFBFC" stroke="#FAFBFC" stroke-width="0.489499" stroke-linejoin="round"/>
<path d="M7.10424 26.6916C4.69677 26.8456 1.9917 25.0972 1.68358 22.6013C4.34917 22.5837 6.41778 24.2813 7.10424 26.6916Z" fill="#FAFBFC" stroke="#FAFBFC" stroke-width="0.489499" stroke-linejoin="round"/>
<path d="M9.1384 31.1993C6.84406 31.9432 3.7894 30.9173 2.87163 28.5752C5.44989 27.8998 7.87528 29.0335 9.1384 31.1993Z" fill="#FAFBFC" stroke="#FAFBFC" stroke-width="0.489499" stroke-linejoin="round"/>
<path d="M14.5922 38.5461C12.7473 40.0032 9.61209 40.0857 7.98519 38.2365C10.1124 36.7469 12.7093 36.9756 14.5922 38.5461Z" fill="#FAFBFC" stroke="#FAFBFC" stroke-width="0.489499" stroke-linejoin="round"/>
</svg>
