<svg width="16" height="40" viewBox="0 0 16 40" fill="none" xmlns="http://www.w3.org/2000/svg">
<g id="Group 1000002924">
<path id="Vector 154" d="M2.20932 36.5567C3.46563 34.7982 3.21505 32.0349 1.19963 30.7788C-0.0590601 32.7885 0.444406 35.0494 2.20932 36.5567Z" fill="#FAFBFC" stroke="#FAFBFC" stroke-width="0.489499" stroke-linejoin="round"/>
<path id="Vector 155" d="M11.6666 34.0196C9.65675 32.7757 6.50921 33.0408 5.08766 35.0586C7.38372 36.3035 9.95755 35.7888 11.6666 34.0196Z" fill="#FAFBFC" stroke="#FAFBFC" stroke-width="0.489499" stroke-linejoin="round"/>
<path id="Vector 156" d="M5.12922 33.3436C6.1518 31.1617 5.34314 28.1554 2.91099 27.1499C1.93461 29.6098 2.92028 32.0129 5.12922 33.3436Z" fill="#FAFBFC" stroke="#FAFBFC" stroke-width="0.489499" stroke-linejoin="round"/>
<path id="Vector 157" d="M7.46735 27.9751C7.80236 25.7196 6.31097 23.1101 3.90842 22.723C3.68617 25.2264 5.17708 27.236 7.46735 27.9751Z" fill="#FAFBFC" stroke="#FAFBFC" stroke-width="0.489499" stroke-linejoin="round"/>
<path id="Vector 158" d="M8.64669 22.8414C8.43686 20.4564 6.32045 18.0314 3.8314 18.0597C4.21343 20.6801 6.1847 22.4868 8.64669 22.8414Z" fill="#FAFBFC" stroke="#FAFBFC" stroke-width="0.489499" stroke-linejoin="round"/>
<path id="Vector 159" d="M8.35705 17.521C7.8968 15.1713 5.53633 12.9821 3.06408 13.2716C3.7204 15.8373 5.87131 17.4269 8.35705 17.521Z" fill="#FAFBFC" stroke="#FAFBFC" stroke-width="0.489499" stroke-linejoin="round"/>
<path id="Vector 160" d="M6.70147 11.5394C6.32881 9.10931 3.95088 6.93608 1.33809 7.35464C1.90666 10.0009 4.09267 11.5583 6.70147 11.5394Z" fill="#FAFBFC" stroke="#FAFBFC" stroke-width="0.489499" stroke-linejoin="round"/>
<path id="Vector 161" d="M4.71633 6.69736C5.4767 4.41311 4.46841 1.35858 2.12706 0.427429C1.43343 2.99542 2.55394 5.42281 4.71633 6.69736Z" fill="#FAFBFC" stroke="#FAFBFC" stroke-width="0.489499" stroke-linejoin="round"/>
<path id="Vector 162" d="M7.35207 9.0659C9.09745 7.40403 9.64277 4.23451 8.0125 2.31689C6.19269 4.26059 6.0413 6.92869 7.35207 9.0659Z" fill="#FAFBFC" stroke="#FAFBFC" stroke-width="0.489499" stroke-linejoin="round"/>
<path id="Vector 163" d="M8.60397 12.97C10.7788 11.9278 12.2794 9.08176 11.3229 6.75541C8.98999 8.04271 8.01943 10.5334 8.60397 12.97Z" fill="#FAFBFC" stroke="#FAFBFC" stroke-width="0.489499" stroke-linejoin="round"/>
<path id="Vector 164" d="M9.41612 17.5027C11.7381 16.8488 13.7064 14.3023 13.1647 11.8466C10.6448 12.7149 9.25981 15.0021 9.41612 17.5027Z" fill="#FAFBFC" stroke="#FAFBFC" stroke-width="0.489499" stroke-linejoin="round"/>
<path id="Vector 165" d="M9.5431 21.8749C11.9531 21.7539 14.4414 19.7092 14.4623 17.1945C11.8114 17.4803 9.94976 19.4021 9.5431 21.8749Z" fill="#FAFBFC" stroke="#FAFBFC" stroke-width="0.489499" stroke-linejoin="round"/>
<path id="Vector 166" d="M8.89555 26.6916C11.3037 26.8456 14.0094 25.0972 14.3177 22.6013C11.6514 22.5837 9.58219 24.2813 8.89555 26.6916Z" fill="#FAFBFC" stroke="#FAFBFC" stroke-width="0.489499" stroke-linejoin="round"/>
<path id="Vector 167" d="M6.86518 31.1993C9.16013 31.9432 12.2156 30.9173 13.1336 28.5752C10.5547 27.8998 8.12864 29.0335 6.86518 31.1993Z" fill="#FAFBFC" stroke="#FAFBFC" stroke-width="0.489499" stroke-linejoin="round"/>
<path id="Vector 168" d="M1.40562 38.5461C3.25099 40.0032 6.38704 40.0857 8.01437 38.2365C5.88657 36.7469 3.28904 36.9756 1.40562 38.5461Z" fill="#FAFBFC" stroke="#FAFBFC" stroke-width="0.489499" stroke-linejoin="round"/>
</g>
</svg>
